%TF.GenerationSoftware,KiCad,Pcbnew,(5.1.9)-1*%
%TF.CreationDate,2021-03-28T17:18:04-04:00*%
%TF.ProjectId,nogasm,6e6f6761-736d-42e6-9b69-6361645f7063,rev?*%
%TF.SameCoordinates,Original*%
%TF.FileFunction,Legend,Bot*%
%TF.FilePolarity,Positive*%
%FSLAX46Y46*%
G04 Gerber Fmt 4.6, Leading zero omitted, Abs format (unit mm)*
G04 Created by KiCad (PCBNEW (5.1.9)-1) date 2021-03-28 17:18:04*
%MOMM*%
%LPD*%
G01*
G04 APERTURE LIST*
%ADD10C,0.150000*%
G04 APERTURE END LIST*
D10*
%TO.C,U14*%
X102616000Y-57150000D02*
X102616000Y-74930000D01*
X138176000Y-57150000D02*
X102616000Y-57150000D01*
X138176000Y-74930000D02*
X138176000Y-57150000D01*
X102616000Y-74930000D02*
X138176000Y-74930000D01*
X129286000Y-60960000D02*
X120396000Y-60960000D01*
X129286000Y-71120000D02*
X120396000Y-71120000D01*
X120396000Y-71120000D02*
X120396000Y-60960000D01*
X129286000Y-60960000D02*
X129286000Y-71120000D01*
X133096000Y-68580000D02*
X135636000Y-68580000D01*
X133096000Y-63500000D02*
X133096000Y-68580000D01*
X135636000Y-63500000D02*
X133096000Y-63500000D01*
X135636000Y-68580000D02*
X135636000Y-63500000D01*
X108966000Y-63500000D02*
X108966000Y-60960000D01*
X111506000Y-63500000D02*
X108966000Y-63500000D01*
X111506000Y-60960000D02*
X111506000Y-63500000D01*
X108966000Y-60960000D02*
X111506000Y-60960000D01*
X107696000Y-62230000D02*
X102616000Y-62230000D01*
X107696000Y-69850000D02*
X102616000Y-69850000D01*
X107696000Y-62230000D02*
X107696000Y-69850000D01*
X114046000Y-63500000D02*
X114046000Y-60960000D01*
X117856000Y-63500000D02*
X114046000Y-63500000D01*
X117856000Y-60960000D02*
X117856000Y-63500000D01*
X114046000Y-60960000D02*
X117856000Y-60960000D01*
X101346000Y-69850000D02*
X102616000Y-69850000D01*
X101346000Y-62230000D02*
X101346000Y-69850000D01*
X102616000Y-62230000D02*
X101346000Y-62230000D01*
X121634095Y-75652380D02*
X121634095Y-76461904D01*
X121586476Y-76557142D01*
X121538857Y-76604761D01*
X121443619Y-76652380D01*
X121253142Y-76652380D01*
X121157904Y-76604761D01*
X121110285Y-76557142D01*
X121062666Y-76461904D01*
X121062666Y-75652380D01*
X120062666Y-76652380D02*
X120634095Y-76652380D01*
X120348380Y-76652380D02*
X120348380Y-75652380D01*
X120443619Y-75795238D01*
X120538857Y-75890476D01*
X120634095Y-75938095D01*
X119205523Y-75985714D02*
X119205523Y-76652380D01*
X119443619Y-75604761D02*
X119681714Y-76319047D01*
X119062666Y-76319047D01*
%TD*%
M02*
