%TF.GenerationSoftware,KiCad,Pcbnew,(5.1.9)-1*%
%TF.CreationDate,2021-03-28T17:18:04-04:00*%
%TF.ProjectId,nogasm,6e6f6761-736d-42e6-9b69-6361645f7063,rev?*%
%TF.SameCoordinates,Original*%
%TF.FileFunction,Legend,Top*%
%TF.FilePolarity,Positive*%
%FSLAX46Y46*%
G04 Gerber Fmt 4.6, Leading zero omitted, Abs format (unit mm)*
G04 Created by KiCad (PCBNEW (5.1.9)-1) date 2021-03-28 17:18:04*
%MOMM*%
%LPD*%
G01*
G04 APERTURE LIST*
%ADD10C,0.200000*%
%ADD11C,0.150000*%
%ADD12C,0.250000*%
%ADD13C,0.120000*%
%ADD14C,0.010000*%
G04 APERTURE END LIST*
D10*
X118630700Y-61112400D02*
X119037100Y-61518800D01*
X118630700Y-61112400D02*
X119138700Y-60604400D01*
X119799100Y-61112400D02*
X118630700Y-61112400D01*
D11*
X129606781Y-104070278D02*
X129165942Y-103463515D01*
X129397090Y-103295577D01*
X129475869Y-103282485D01*
X129525755Y-103290387D01*
X129596633Y-103327181D01*
X129659610Y-103413862D01*
X129672701Y-103492641D01*
X129664800Y-103542527D01*
X129628006Y-103613405D01*
X129396858Y-103781343D01*
X130300224Y-103566462D02*
X130221445Y-103579553D01*
X130171559Y-103571652D01*
X130100681Y-103534858D01*
X129974727Y-103361497D01*
X129961636Y-103282717D01*
X129969537Y-103232832D01*
X130006332Y-103161954D01*
X130093012Y-103098977D01*
X130171791Y-103085885D01*
X130221677Y-103093786D01*
X130292555Y-103130581D01*
X130418509Y-103303942D01*
X130431600Y-103382721D01*
X130423699Y-103432607D01*
X130386905Y-103503485D01*
X130300224Y-103566462D01*
X130410840Y-102868061D02*
X130820307Y-103188600D01*
X130725957Y-102815696D01*
X131051454Y-103020661D01*
X130873136Y-102532184D01*
X131608331Y-102571921D02*
X131571537Y-102642800D01*
X131455963Y-102726769D01*
X131377184Y-102739860D01*
X131306306Y-102703065D01*
X131138367Y-102471918D01*
X131125276Y-102393138D01*
X131162070Y-102322260D01*
X131277644Y-102238291D01*
X131356423Y-102225200D01*
X131427302Y-102261994D01*
X131469286Y-102319781D01*
X131222336Y-102587492D01*
X131918258Y-102390892D02*
X131624366Y-101986383D01*
X131708335Y-102101957D02*
X131695244Y-102023178D01*
X131703145Y-101973292D01*
X131739940Y-101902414D01*
X131797726Y-101860429D01*
X133097468Y-101887308D02*
X133047582Y-101879407D01*
X132926819Y-101834711D01*
X132855940Y-101797916D01*
X132764070Y-101732228D01*
X132630215Y-101608753D01*
X132546245Y-101493179D01*
X132470177Y-101327720D01*
X132436094Y-101220047D01*
X132423003Y-101141268D01*
X132417813Y-101012603D01*
X132425714Y-100962717D01*
X133478505Y-101257306D02*
X133131784Y-101509214D01*
X133305145Y-101383260D02*
X132864306Y-100776497D01*
X132869496Y-100905162D01*
X132853693Y-101004934D01*
X132816899Y-101075812D01*
X133310799Y-100540391D02*
X133318700Y-100490505D01*
X133355495Y-100419627D01*
X133499962Y-100314666D01*
X133578741Y-100301574D01*
X133628627Y-100309476D01*
X133699505Y-100346270D01*
X133741490Y-100404057D01*
X133775573Y-100511730D01*
X133680760Y-101110359D01*
X134056375Y-100837459D01*
X133788897Y-100104742D02*
X134431990Y-100564559D01*
X134193405Y-99810850D01*
X134946650Y-100543799D02*
X134954551Y-100493913D01*
X134949361Y-100365248D01*
X134936270Y-100286468D01*
X134902186Y-100178796D01*
X134826118Y-100013336D01*
X134742149Y-99897762D01*
X134608294Y-99774287D01*
X134516423Y-99708599D01*
X134445545Y-99671805D01*
X134324781Y-99627109D01*
X134274895Y-99619208D01*
X104412092Y-102259843D02*
X104725530Y-102552128D01*
X104057312Y-102954501D02*
X104568811Y-102405986D01*
X104475229Y-103344214D02*
X104447346Y-103269380D01*
X104445583Y-103218904D01*
X104468178Y-103142307D01*
X104614320Y-102985588D01*
X104689154Y-102957706D01*
X104739631Y-102955943D01*
X104816228Y-102978538D01*
X104894587Y-103051609D01*
X104922470Y-103126443D01*
X104924232Y-103176920D01*
X104901638Y-103253516D01*
X104755495Y-103410235D01*
X104680661Y-103438117D01*
X104630185Y-103439880D01*
X104553588Y-103417286D01*
X104475229Y-103344214D01*
X105181905Y-103319537D02*
X104971504Y-103806999D01*
X105443102Y-103563108D02*
X104971504Y-103806999D01*
X104797479Y-103888884D01*
X104747002Y-103890646D01*
X104670406Y-103868052D01*
X105690840Y-104868455D02*
X105689077Y-104817978D01*
X105709909Y-104690905D01*
X105732503Y-104614308D01*
X105779455Y-104511592D01*
X105875120Y-104356636D01*
X105972549Y-104252157D01*
X106120454Y-104145915D01*
X106219645Y-104091913D01*
X106294479Y-104064030D01*
X106419790Y-104034385D01*
X106470266Y-104032622D01*
X106381972Y-105122282D02*
X106068535Y-104829996D01*
X106225253Y-104976139D02*
X106736752Y-104427624D01*
X106611441Y-104457269D01*
X106510488Y-104460794D01*
X106433891Y-104438200D01*
X107053715Y-104820862D02*
X107104192Y-104819100D01*
X107180788Y-104841694D01*
X107311387Y-104963480D01*
X107339270Y-105038314D01*
X107341032Y-105088790D01*
X107318438Y-105165387D01*
X107269724Y-105217627D01*
X107170533Y-105271629D01*
X106564811Y-105292781D01*
X106904368Y-105609423D01*
X107572585Y-105207050D02*
X107243925Y-105926065D01*
X107938262Y-105548050D01*
X108027518Y-106656778D02*
X108539017Y-106108263D01*
X108747975Y-106303119D01*
X108775857Y-106377953D01*
X108777620Y-106428430D01*
X108755026Y-106505027D01*
X108681954Y-106583386D01*
X108607121Y-106611268D01*
X108556644Y-106613031D01*
X108480047Y-106590437D01*
X108271089Y-106395580D01*
X109035292Y-106571047D02*
X108654393Y-107241348D01*
X109124228Y-106946980D01*
X108863351Y-107436205D01*
X109505448Y-107009475D01*
X109202908Y-107752847D02*
X109714407Y-107204331D01*
X109531889Y-107766628D01*
X110080083Y-107545331D01*
X109568585Y-108093846D01*
X109582686Y-108497661D02*
X109633163Y-108495898D01*
X109758474Y-108466253D01*
X109833308Y-108438370D01*
X109932499Y-108384368D01*
X110080404Y-108278126D01*
X110177832Y-108173647D01*
X110273498Y-108018691D01*
X110320450Y-107915975D01*
X110343044Y-107839378D01*
X110363876Y-107712305D01*
X110362113Y-107661828D01*
X110121142Y-78579285D02*
X110299714Y-79079285D01*
X110478285Y-78579285D01*
X111728285Y-79079285D02*
X111299714Y-79079285D01*
X111514000Y-79079285D02*
X111514000Y-78329285D01*
X111442571Y-78436428D01*
X111371142Y-78507857D01*
X111299714Y-78543571D01*
X112049714Y-79007857D02*
X112085428Y-79043571D01*
X112049714Y-79079285D01*
X112014000Y-79043571D01*
X112049714Y-79007857D01*
X112049714Y-79079285D01*
X112728285Y-78579285D02*
X112728285Y-79079285D01*
X112549714Y-78293571D02*
X112371142Y-78829285D01*
X112835428Y-78829285D01*
X113121142Y-79007857D02*
X113156857Y-79043571D01*
X113121142Y-79079285D01*
X113085428Y-79043571D01*
X113121142Y-79007857D01*
X113121142Y-79079285D01*
X113621142Y-78329285D02*
X113692571Y-78329285D01*
X113764000Y-78365000D01*
X113799714Y-78400714D01*
X113835428Y-78472142D01*
X113871142Y-78615000D01*
X113871142Y-78793571D01*
X113835428Y-78936428D01*
X113799714Y-79007857D01*
X113764000Y-79043571D01*
X113692571Y-79079285D01*
X113621142Y-79079285D01*
X113549714Y-79043571D01*
X113514000Y-79007857D01*
X113478285Y-78936428D01*
X113442571Y-78793571D01*
X113442571Y-78615000D01*
X113478285Y-78472142D01*
X113514000Y-78400714D01*
X113549714Y-78365000D01*
X113621142Y-78329285D01*
D10*
X139065000Y-72186800D02*
X141859000Y-72186800D01*
X131533900Y-80568800D02*
X134327900Y-80568800D01*
X110744000Y-99441000D02*
X109982000Y-98806000D01*
X111633000Y-100203000D02*
X112395000Y-100838000D01*
X112141000Y-99568000D02*
X110744000Y-99441000D01*
X111125000Y-100711000D02*
X112141000Y-99568000D01*
X110744000Y-99441000D02*
X111125000Y-100711000D01*
X110236000Y-100076000D02*
X111252000Y-98806000D01*
D12*
X107013742Y-76209614D02*
X105985171Y-77752471D01*
X107413742Y-76666757D02*
X107413742Y-77466757D01*
X107413742Y-76781042D02*
X107470885Y-76723900D01*
X107585171Y-76666757D01*
X107756600Y-76666757D01*
X107870885Y-76723900D01*
X107928028Y-76838185D01*
X107928028Y-77466757D01*
X108670885Y-77466757D02*
X108556600Y-77409614D01*
X108499457Y-77352471D01*
X108442314Y-77238185D01*
X108442314Y-76895328D01*
X108499457Y-76781042D01*
X108556600Y-76723900D01*
X108670885Y-76666757D01*
X108842314Y-76666757D01*
X108956600Y-76723900D01*
X109013742Y-76781042D01*
X109070885Y-76895328D01*
X109070885Y-77238185D01*
X109013742Y-77352471D01*
X108956600Y-77409614D01*
X108842314Y-77466757D01*
X108670885Y-77466757D01*
X110099457Y-76666757D02*
X110099457Y-77638185D01*
X110042314Y-77752471D01*
X109985171Y-77809614D01*
X109870885Y-77866757D01*
X109699457Y-77866757D01*
X109585171Y-77809614D01*
X110099457Y-77409614D02*
X109985171Y-77466757D01*
X109756600Y-77466757D01*
X109642314Y-77409614D01*
X109585171Y-77352471D01*
X109528028Y-77238185D01*
X109528028Y-76895328D01*
X109585171Y-76781042D01*
X109642314Y-76723900D01*
X109756600Y-76666757D01*
X109985171Y-76666757D01*
X110099457Y-76723900D01*
X111185171Y-77466757D02*
X111185171Y-76838185D01*
X111128028Y-76723900D01*
X111013742Y-76666757D01*
X110785171Y-76666757D01*
X110670885Y-76723900D01*
X111185171Y-77409614D02*
X111070885Y-77466757D01*
X110785171Y-77466757D01*
X110670885Y-77409614D01*
X110613742Y-77295328D01*
X110613742Y-77181042D01*
X110670885Y-77066757D01*
X110785171Y-77009614D01*
X111070885Y-77009614D01*
X111185171Y-76952471D01*
X111699457Y-77409614D02*
X111813742Y-77466757D01*
X112042314Y-77466757D01*
X112156600Y-77409614D01*
X112213742Y-77295328D01*
X112213742Y-77238185D01*
X112156600Y-77123900D01*
X112042314Y-77066757D01*
X111870885Y-77066757D01*
X111756600Y-77009614D01*
X111699457Y-76895328D01*
X111699457Y-76838185D01*
X111756600Y-76723900D01*
X111870885Y-76666757D01*
X112042314Y-76666757D01*
X112156600Y-76723900D01*
X112728028Y-77466757D02*
X112728028Y-76666757D01*
X112728028Y-76781042D02*
X112785171Y-76723900D01*
X112899457Y-76666757D01*
X113070885Y-76666757D01*
X113185171Y-76723900D01*
X113242314Y-76838185D01*
X113242314Y-77466757D01*
X113242314Y-76838185D02*
X113299457Y-76723900D01*
X113413742Y-76666757D01*
X113585171Y-76666757D01*
X113699457Y-76723900D01*
X113756600Y-76838185D01*
X113756600Y-77466757D01*
D13*
%TO.C,C19*%
X122928000Y-94146000D02*
X121928000Y-94146000D01*
X121928000Y-95846000D02*
X122928000Y-95846000D01*
%TO.C,C1*%
X120114000Y-54522000D02*
X119114000Y-54522000D01*
X119114000Y-56222000D02*
X120114000Y-56222000D01*
%TO.C,C2*%
X113156726Y-53764255D02*
X113498746Y-54703947D01*
X115096224Y-54122513D02*
X114754204Y-53182821D01*
%TO.C,C3*%
X100807742Y-61697349D02*
X100064598Y-62366479D01*
X101202120Y-63629825D02*
X101945264Y-62960695D01*
%TO.C,C4*%
X93769686Y-69897481D02*
X93331314Y-70796275D01*
X94859264Y-71541505D02*
X95297636Y-70642711D01*
%TO.C,C5*%
X89825825Y-79670569D02*
X89686652Y-80660837D01*
X91370107Y-80897431D02*
X91509280Y-79907163D01*
%TO.C,C6*%
X103580300Y-67169600D02*
X103580300Y-66169600D01*
X101880300Y-66169600D02*
X101880300Y-67169600D01*
%TO.C,C7*%
X125713019Y-50905457D02*
X125405662Y-51857051D01*
X127023373Y-52379557D02*
X127330730Y-51427963D01*
%TO.C,C8*%
X89990729Y-90412966D02*
X90198640Y-91391114D01*
X91861491Y-91037664D02*
X91653580Y-90059516D01*
%TO.C,C9*%
X93402598Y-100400467D02*
X93932518Y-101248515D01*
X95374200Y-100347653D02*
X94844280Y-99499605D01*
%TO.C,C10*%
X145732637Y-101129569D02*
X146232637Y-100263543D01*
X144760393Y-99413543D02*
X144260393Y-100279569D01*
%TO.C,C11*%
X148056797Y-89568985D02*
X147883149Y-90553793D01*
X149557323Y-90848995D02*
X149730971Y-89864187D01*
%TO.C,C12*%
X149767911Y-80862803D02*
X149594263Y-79877995D01*
X147920089Y-80173197D02*
X148093737Y-81158005D01*
%TO.C,C14*%
X146899122Y-71032629D02*
X146399122Y-70166603D01*
X144926878Y-71016603D02*
X145426878Y-71882629D01*
%TO.C,C15*%
X134327000Y-115034000D02*
X134327000Y-114034000D01*
X132627000Y-114034000D02*
X132627000Y-115034000D01*
%TO.C,C16*%
X145573305Y-62392736D02*
X144904175Y-63135880D01*
X146167521Y-64273402D02*
X146836651Y-63530258D01*
%TO.C,C17*%
X131914000Y-115074000D02*
X131914000Y-114074000D01*
X130214000Y-114074000D02*
X130214000Y-115074000D01*
%TO.C,C20*%
X116848000Y-95846000D02*
X117848000Y-95846000D01*
X117848000Y-94146000D02*
X116848000Y-94146000D01*
%TO.C,C21*%
X109486000Y-83224000D02*
X108486000Y-83224000D01*
X108486000Y-84924000D02*
X109486000Y-84924000D01*
%TO.C,Q1*%
X97284000Y-95636000D02*
X96184000Y-95636000D01*
X97284000Y-95906000D02*
X97284000Y-95636000D01*
X98784000Y-95906000D02*
X97284000Y-95906000D01*
X97284000Y-89276000D02*
X94454000Y-89276000D01*
X97284000Y-89006000D02*
X97284000Y-89276000D01*
X98784000Y-89006000D02*
X97284000Y-89006000D01*
%TO.C,Q2*%
X116733100Y-63622000D02*
X115273100Y-63622000D01*
X116733100Y-60462000D02*
X114573100Y-60462000D01*
X116733100Y-60462000D02*
X116733100Y-61392000D01*
X116733100Y-63622000D02*
X116733100Y-62692000D01*
%TO.C,Q3*%
X111735900Y-63556000D02*
X110275900Y-63556000D01*
X111735900Y-60396000D02*
X109575900Y-60396000D01*
X111735900Y-60396000D02*
X111735900Y-61326000D01*
X111735900Y-63556000D02*
X111735900Y-62626000D01*
%TO.C,Q4*%
X107081100Y-63571200D02*
X105621100Y-63571200D01*
X107081100Y-60411200D02*
X104921100Y-60411200D01*
X107081100Y-60411200D02*
X107081100Y-61341200D01*
X107081100Y-63571200D02*
X107081100Y-62641200D01*
%TO.C,R1*%
X94062000Y-80146000D02*
X95262000Y-80146000D01*
X95262000Y-81906000D02*
X94062000Y-81906000D01*
%TO.C,R2*%
X92592000Y-86118000D02*
X92592000Y-84918000D01*
X94352000Y-84918000D02*
X94352000Y-86118000D01*
%TO.C,R3*%
X122510000Y-105292000D02*
X123710000Y-105292000D01*
X123710000Y-107052000D02*
X122510000Y-107052000D01*
%TO.C,R4*%
X116767500Y-66078800D02*
X116767500Y-67278800D01*
X115007500Y-67278800D02*
X115007500Y-66078800D01*
%TO.C,R5*%
X111941500Y-66122000D02*
X111941500Y-67322000D01*
X110181500Y-67322000D02*
X110181500Y-66122000D01*
%TO.C,R6*%
X107013900Y-66078800D02*
X107013900Y-67278800D01*
X105253900Y-67278800D02*
X105253900Y-66078800D01*
%TO.C,R7*%
X121040000Y-69561000D02*
X121040000Y-68361000D01*
X122800000Y-68361000D02*
X122800000Y-69561000D01*
%TO.C,R8*%
X121040000Y-63893000D02*
X121040000Y-62693000D01*
X122800000Y-62693000D02*
X122800000Y-63893000D01*
%TO.C,RV1*%
X101076000Y-85598000D02*
G75*
G03*
X101076000Y-85598000I-1210000J0D01*
G01*
X97306000Y-83618000D02*
X97306000Y-83038000D01*
X97306000Y-85918000D02*
X97306000Y-85278000D01*
X97306000Y-88158000D02*
X97306000Y-87578000D01*
X102426000Y-84768000D02*
X102426000Y-83038000D01*
X102426000Y-88158000D02*
X102426000Y-86428000D01*
X102426000Y-83038000D02*
X97306000Y-83038000D01*
X102426000Y-88158000D02*
X97306000Y-88158000D01*
%TO.C,U17*%
X107544000Y-88000000D02*
X107544000Y-90450000D01*
X110764000Y-89800000D02*
X110764000Y-88000000D01*
D14*
%TO.C,G\u002A\u002A\u002A*%
G36*
X102738517Y-77703172D02*
G01*
X102749506Y-77718120D01*
X102749552Y-77718255D01*
X102745619Y-77725390D01*
X102732255Y-77728119D01*
X102716410Y-77726321D01*
X102705035Y-77719878D01*
X102704444Y-77719029D01*
X102704498Y-77705898D01*
X102708411Y-77700169D01*
X102722434Y-77696140D01*
X102738517Y-77703172D01*
G37*
X102738517Y-77703172D02*
X102749506Y-77718120D01*
X102749552Y-77718255D01*
X102745619Y-77725390D01*
X102732255Y-77728119D01*
X102716410Y-77726321D01*
X102705035Y-77719878D01*
X102704444Y-77719029D01*
X102704498Y-77705898D01*
X102708411Y-77700169D01*
X102722434Y-77696140D01*
X102738517Y-77703172D01*
G36*
X102804693Y-77761604D02*
G01*
X102810533Y-77766152D01*
X102825052Y-77784262D01*
X102825417Y-77797753D01*
X102811847Y-77804201D01*
X102807071Y-77804434D01*
X102787639Y-77797813D01*
X102780830Y-77786648D01*
X102779552Y-77766638D01*
X102788769Y-77757419D01*
X102804693Y-77761604D01*
G37*
X102804693Y-77761604D02*
X102810533Y-77766152D01*
X102825052Y-77784262D01*
X102825417Y-77797753D01*
X102811847Y-77804201D01*
X102807071Y-77804434D01*
X102787639Y-77797813D01*
X102780830Y-77786648D01*
X102779552Y-77766638D01*
X102788769Y-77757419D01*
X102804693Y-77761604D01*
G36*
X102882808Y-77855323D02*
G01*
X102893189Y-77870777D01*
X102895285Y-77888568D01*
X102889430Y-77902282D01*
X102880160Y-77906033D01*
X102861379Y-77900673D01*
X102854760Y-77895874D01*
X102845131Y-77878504D01*
X102846853Y-77862007D01*
X102856857Y-77850816D01*
X102872076Y-77849366D01*
X102882808Y-77855323D01*
G37*
X102882808Y-77855323D02*
X102893189Y-77870777D01*
X102895285Y-77888568D01*
X102889430Y-77902282D01*
X102880160Y-77906033D01*
X102861379Y-77900673D01*
X102854760Y-77895874D01*
X102845131Y-77878504D01*
X102846853Y-77862007D01*
X102856857Y-77850816D01*
X102872076Y-77849366D01*
X102882808Y-77855323D01*
G36*
X102969503Y-77954653D02*
G01*
X102985296Y-77969704D01*
X102992374Y-77987809D01*
X102991222Y-77995905D01*
X102979873Y-78005330D01*
X102961224Y-78006954D01*
X102943128Y-78000542D01*
X102939427Y-77997474D01*
X102931225Y-77981255D01*
X102929267Y-77967840D01*
X102933330Y-77952772D01*
X102948444Y-77948381D01*
X102949953Y-77948367D01*
X102969503Y-77954653D01*
G37*
X102969503Y-77954653D02*
X102985296Y-77969704D01*
X102992374Y-77987809D01*
X102991222Y-77995905D01*
X102979873Y-78005330D01*
X102961224Y-78006954D01*
X102943128Y-78000542D01*
X102939427Y-77997474D01*
X102931225Y-77981255D01*
X102929267Y-77967840D01*
X102933330Y-77952772D01*
X102948444Y-77948381D01*
X102949953Y-77948367D01*
X102969503Y-77954653D01*
G36*
X103098402Y-78029816D02*
G01*
X103114319Y-78042646D01*
X103119525Y-78058677D01*
X103118501Y-78062912D01*
X103107047Y-78072385D01*
X103087554Y-78074939D01*
X103067432Y-78070590D01*
X103056356Y-78062775D01*
X103049534Y-78044986D01*
X103056984Y-78030615D01*
X103076111Y-78024569D01*
X103076563Y-78024567D01*
X103098402Y-78029816D01*
G37*
X103098402Y-78029816D02*
X103114319Y-78042646D01*
X103119525Y-78058677D01*
X103118501Y-78062912D01*
X103107047Y-78072385D01*
X103087554Y-78074939D01*
X103067432Y-78070590D01*
X103056356Y-78062775D01*
X103049534Y-78044986D01*
X103056984Y-78030615D01*
X103076111Y-78024569D01*
X103076563Y-78024567D01*
X103098402Y-78029816D01*
G36*
X103390467Y-78037156D02*
G01*
X103401849Y-78047576D01*
X103400238Y-78062054D01*
X103390458Y-78072358D01*
X103364168Y-78083106D01*
X103338203Y-78077008D01*
X103335667Y-78075478D01*
X103327981Y-78063775D01*
X103333481Y-78050566D01*
X103349229Y-78039527D01*
X103368329Y-78034609D01*
X103390467Y-78037156D01*
G37*
X103390467Y-78037156D02*
X103401849Y-78047576D01*
X103400238Y-78062054D01*
X103390458Y-78072358D01*
X103364168Y-78083106D01*
X103338203Y-78077008D01*
X103335667Y-78075478D01*
X103327981Y-78063775D01*
X103333481Y-78050566D01*
X103349229Y-78039527D01*
X103368329Y-78034609D01*
X103390467Y-78037156D01*
G36*
X103251887Y-78054431D02*
G01*
X103264178Y-78065556D01*
X103263374Y-78079936D01*
X103254076Y-78089960D01*
X103229921Y-78100039D01*
X103208231Y-78095245D01*
X103200290Y-78088175D01*
X103192848Y-78070620D01*
X103200368Y-78057152D01*
X103220946Y-78050335D01*
X103228662Y-78049967D01*
X103251887Y-78054431D01*
G37*
X103251887Y-78054431D02*
X103264178Y-78065556D01*
X103263374Y-78079936D01*
X103254076Y-78089960D01*
X103229921Y-78100039D01*
X103208231Y-78095245D01*
X103200290Y-78088175D01*
X103192848Y-78070620D01*
X103200368Y-78057152D01*
X103220946Y-78050335D01*
X103228662Y-78049967D01*
X103251887Y-78054431D01*
G36*
X103955131Y-75192286D02*
G01*
X104124717Y-75209816D01*
X104291395Y-75243314D01*
X104453933Y-75292300D01*
X104611103Y-75356297D01*
X104761673Y-75434824D01*
X104904413Y-75527402D01*
X105038092Y-75633552D01*
X105122625Y-75712675D01*
X105236904Y-75838708D01*
X105337640Y-75974162D01*
X105424466Y-76117862D01*
X105497016Y-76268628D01*
X105554924Y-76425283D01*
X105597824Y-76586650D01*
X105625349Y-76751549D01*
X105637134Y-76918805D01*
X105632811Y-77087238D01*
X105612016Y-77255671D01*
X105608500Y-77275267D01*
X105569619Y-77439325D01*
X105515253Y-77597889D01*
X105446237Y-77749962D01*
X105363409Y-77894547D01*
X105267607Y-78030649D01*
X105159668Y-78157269D01*
X105040429Y-78273413D01*
X104910729Y-78378083D01*
X104771403Y-78470284D01*
X104623290Y-78549017D01*
X104491564Y-78604440D01*
X104438019Y-78622318D01*
X104396335Y-78631082D01*
X104364100Y-78630732D01*
X104338907Y-78621271D01*
X104319930Y-78604585D01*
X104314799Y-78598294D01*
X104310682Y-78591409D01*
X104307469Y-78582121D01*
X104305047Y-78568618D01*
X104303304Y-78549088D01*
X104302128Y-78521721D01*
X104301409Y-78484705D01*
X104301033Y-78436229D01*
X104300890Y-78374482D01*
X104300867Y-78297653D01*
X104300867Y-78295773D01*
X104300647Y-78207482D01*
X104299949Y-78134427D01*
X104298715Y-78074917D01*
X104296884Y-78027259D01*
X104294400Y-77989763D01*
X104291203Y-77960735D01*
X104288736Y-77945719D01*
X104268514Y-77873794D01*
X104237294Y-77806238D01*
X104209831Y-77764310D01*
X104199828Y-77750875D01*
X104195700Y-77741682D01*
X104199633Y-77735327D01*
X104213814Y-77730408D01*
X104240432Y-77725522D01*
X104279549Y-77719584D01*
X104407294Y-77694164D01*
X104521888Y-77658124D01*
X104623536Y-77611252D01*
X104712446Y-77553334D01*
X104788823Y-77484157D01*
X104852874Y-77403509D01*
X104904804Y-77311177D01*
X104944821Y-77206949D01*
X104973129Y-77090611D01*
X104987426Y-76989259D01*
X104993090Y-76869011D01*
X104984580Y-76757485D01*
X104961687Y-76653825D01*
X104924203Y-76557179D01*
X104871919Y-76466691D01*
X104853646Y-76441061D01*
X104812828Y-76386267D01*
X104827203Y-76331233D01*
X104837364Y-76274591D01*
X104841892Y-76208252D01*
X104840809Y-76138479D01*
X104834135Y-76071537D01*
X104826210Y-76029978D01*
X104814930Y-75984616D01*
X104805458Y-75953247D01*
X104796074Y-75933305D01*
X104785055Y-75922223D01*
X104770681Y-75917433D01*
X104751229Y-75916368D01*
X104750020Y-75916367D01*
X104696123Y-75921832D01*
X104632373Y-75937551D01*
X104561553Y-75962509D01*
X104486450Y-75995690D01*
X104409847Y-76036080D01*
X104390300Y-76047476D01*
X104302184Y-76099893D01*
X104210509Y-76080694D01*
X104059706Y-76055558D01*
X103910967Y-76044212D01*
X103856367Y-76043367D01*
X103706726Y-76049899D01*
X103557442Y-76069964D01*
X103502225Y-76080694D01*
X103410550Y-76099893D01*
X103322433Y-76047476D01*
X103245895Y-76005401D01*
X103170142Y-75970274D01*
X103097958Y-75943111D01*
X103032129Y-75924926D01*
X102975441Y-75916734D01*
X102962714Y-75916367D01*
X102942944Y-75917305D01*
X102928343Y-75921833D01*
X102917189Y-75932516D01*
X102907761Y-75951922D01*
X102898338Y-75982619D01*
X102887197Y-76027173D01*
X102886524Y-76029978D01*
X102875958Y-76091335D01*
X102870987Y-76159823D01*
X102871630Y-76229193D01*
X102877907Y-76293199D01*
X102885601Y-76331233D01*
X102900047Y-76386267D01*
X102864533Y-76433428D01*
X102804084Y-76527110D01*
X102759004Y-76627498D01*
X102746366Y-76665667D01*
X102737303Y-76697265D01*
X102730956Y-76724857D01*
X102726844Y-76752742D01*
X102724484Y-76785219D01*
X102723393Y-76826590D01*
X102723102Y-76873100D01*
X102726760Y-76989228D01*
X102738544Y-77092826D01*
X102758970Y-77186490D01*
X102788551Y-77272816D01*
X102812854Y-77326067D01*
X102867224Y-77416287D01*
X102934048Y-77495279D01*
X103013416Y-77563103D01*
X103105421Y-77619819D01*
X103210154Y-77665488D01*
X103327706Y-77700170D01*
X103405313Y-77715882D01*
X103452679Y-77723824D01*
X103485380Y-77729620D01*
X103505310Y-77734661D01*
X103514363Y-77740341D01*
X103514433Y-77748053D01*
X103507413Y-77759191D01*
X103495197Y-77775146D01*
X103491903Y-77779574D01*
X103473127Y-77809664D01*
X103454471Y-77847072D01*
X103438075Y-77886569D01*
X103426082Y-77922926D01*
X103420632Y-77950914D01*
X103420512Y-77953940D01*
X103412408Y-77969196D01*
X103390423Y-77983023D01*
X103357582Y-77994920D01*
X103316912Y-78004385D01*
X103271440Y-78010918D01*
X103224191Y-78014017D01*
X103178192Y-78013183D01*
X103136469Y-78007914D01*
X103119300Y-78003792D01*
X103055391Y-77978775D01*
X102998941Y-77941885D01*
X102947848Y-77891428D01*
X102901864Y-77828620D01*
X102862006Y-77775984D01*
X102815439Y-77730249D01*
X102764658Y-77692754D01*
X102712157Y-77664841D01*
X102660429Y-77647850D01*
X102611969Y-77643120D01*
X102571550Y-77651081D01*
X102553757Y-77661607D01*
X102548293Y-77675482D01*
X102555732Y-77693710D01*
X102576649Y-77717292D01*
X102611617Y-77747234D01*
X102638319Y-77767727D01*
X102681253Y-77804296D01*
X102719398Y-77847239D01*
X102755160Y-77899754D01*
X102790947Y-77965040D01*
X102799037Y-77981383D01*
X102832181Y-78043631D01*
X102865284Y-78092486D01*
X102901246Y-78131233D01*
X102942967Y-78163154D01*
X102977394Y-78183326D01*
X103027744Y-78206689D01*
X103078804Y-78222504D01*
X103134741Y-78231520D01*
X103199723Y-78234485D01*
X103255233Y-78233261D01*
X103298852Y-78231052D01*
X103338191Y-78228421D01*
X103369158Y-78225684D01*
X103387662Y-78223156D01*
X103388583Y-78222948D01*
X103411867Y-78217326D01*
X103411867Y-78399874D01*
X103411805Y-78460033D01*
X103411472Y-78505633D01*
X103410642Y-78539047D01*
X103409092Y-78562650D01*
X103406599Y-78578815D01*
X103402938Y-78589916D01*
X103397886Y-78598327D01*
X103392537Y-78604894D01*
X103370894Y-78622797D01*
X103343506Y-78631212D01*
X103308277Y-78630099D01*
X103263111Y-78619420D01*
X103212146Y-78601564D01*
X103055617Y-78532298D01*
X102907791Y-78449175D01*
X102769441Y-78353119D01*
X102641339Y-78245056D01*
X102524258Y-78125911D01*
X102418971Y-77996608D01*
X102326250Y-77858073D01*
X102246868Y-77711230D01*
X102181598Y-77557005D01*
X102131212Y-77396323D01*
X102104234Y-77275267D01*
X102081466Y-77106787D01*
X102075222Y-76938231D01*
X102085136Y-76770764D01*
X102110845Y-76605552D01*
X102151983Y-76443759D01*
X102208186Y-76286551D01*
X102279090Y-76135093D01*
X102364330Y-75990551D01*
X102463541Y-75854090D01*
X102576359Y-75726875D01*
X102594239Y-75708855D01*
X102723098Y-75592603D01*
X102861272Y-75490253D01*
X103007872Y-75402189D01*
X103162010Y-75328799D01*
X103322798Y-75270470D01*
X103489346Y-75227587D01*
X103660768Y-75200539D01*
X103783866Y-75191203D01*
X103955131Y-75192286D01*
G37*
X103955131Y-75192286D02*
X104124717Y-75209816D01*
X104291395Y-75243314D01*
X104453933Y-75292300D01*
X104611103Y-75356297D01*
X104761673Y-75434824D01*
X104904413Y-75527402D01*
X105038092Y-75633552D01*
X105122625Y-75712675D01*
X105236904Y-75838708D01*
X105337640Y-75974162D01*
X105424466Y-76117862D01*
X105497016Y-76268628D01*
X105554924Y-76425283D01*
X105597824Y-76586650D01*
X105625349Y-76751549D01*
X105637134Y-76918805D01*
X105632811Y-77087238D01*
X105612016Y-77255671D01*
X105608500Y-77275267D01*
X105569619Y-77439325D01*
X105515253Y-77597889D01*
X105446237Y-77749962D01*
X105363409Y-77894547D01*
X105267607Y-78030649D01*
X105159668Y-78157269D01*
X105040429Y-78273413D01*
X104910729Y-78378083D01*
X104771403Y-78470284D01*
X104623290Y-78549017D01*
X104491564Y-78604440D01*
X104438019Y-78622318D01*
X104396335Y-78631082D01*
X104364100Y-78630732D01*
X104338907Y-78621271D01*
X104319930Y-78604585D01*
X104314799Y-78598294D01*
X104310682Y-78591409D01*
X104307469Y-78582121D01*
X104305047Y-78568618D01*
X104303304Y-78549088D01*
X104302128Y-78521721D01*
X104301409Y-78484705D01*
X104301033Y-78436229D01*
X104300890Y-78374482D01*
X104300867Y-78297653D01*
X104300867Y-78295773D01*
X104300647Y-78207482D01*
X104299949Y-78134427D01*
X104298715Y-78074917D01*
X104296884Y-78027259D01*
X104294400Y-77989763D01*
X104291203Y-77960735D01*
X104288736Y-77945719D01*
X104268514Y-77873794D01*
X104237294Y-77806238D01*
X104209831Y-77764310D01*
X104199828Y-77750875D01*
X104195700Y-77741682D01*
X104199633Y-77735327D01*
X104213814Y-77730408D01*
X104240432Y-77725522D01*
X104279549Y-77719584D01*
X104407294Y-77694164D01*
X104521888Y-77658124D01*
X104623536Y-77611252D01*
X104712446Y-77553334D01*
X104788823Y-77484157D01*
X104852874Y-77403509D01*
X104904804Y-77311177D01*
X104944821Y-77206949D01*
X104973129Y-77090611D01*
X104987426Y-76989259D01*
X104993090Y-76869011D01*
X104984580Y-76757485D01*
X104961687Y-76653825D01*
X104924203Y-76557179D01*
X104871919Y-76466691D01*
X104853646Y-76441061D01*
X104812828Y-76386267D01*
X104827203Y-76331233D01*
X104837364Y-76274591D01*
X104841892Y-76208252D01*
X104840809Y-76138479D01*
X104834135Y-76071537D01*
X104826210Y-76029978D01*
X104814930Y-75984616D01*
X104805458Y-75953247D01*
X104796074Y-75933305D01*
X104785055Y-75922223D01*
X104770681Y-75917433D01*
X104751229Y-75916368D01*
X104750020Y-75916367D01*
X104696123Y-75921832D01*
X104632373Y-75937551D01*
X104561553Y-75962509D01*
X104486450Y-75995690D01*
X104409847Y-76036080D01*
X104390300Y-76047476D01*
X104302184Y-76099893D01*
X104210509Y-76080694D01*
X104059706Y-76055558D01*
X103910967Y-76044212D01*
X103856367Y-76043367D01*
X103706726Y-76049899D01*
X103557442Y-76069964D01*
X103502225Y-76080694D01*
X103410550Y-76099893D01*
X103322433Y-76047476D01*
X103245895Y-76005401D01*
X103170142Y-75970274D01*
X103097958Y-75943111D01*
X103032129Y-75924926D01*
X102975441Y-75916734D01*
X102962714Y-75916367D01*
X102942944Y-75917305D01*
X102928343Y-75921833D01*
X102917189Y-75932516D01*
X102907761Y-75951922D01*
X102898338Y-75982619D01*
X102887197Y-76027173D01*
X102886524Y-76029978D01*
X102875958Y-76091335D01*
X102870987Y-76159823D01*
X102871630Y-76229193D01*
X102877907Y-76293199D01*
X102885601Y-76331233D01*
X102900047Y-76386267D01*
X102864533Y-76433428D01*
X102804084Y-76527110D01*
X102759004Y-76627498D01*
X102746366Y-76665667D01*
X102737303Y-76697265D01*
X102730956Y-76724857D01*
X102726844Y-76752742D01*
X102724484Y-76785219D01*
X102723393Y-76826590D01*
X102723102Y-76873100D01*
X102726760Y-76989228D01*
X102738544Y-77092826D01*
X102758970Y-77186490D01*
X102788551Y-77272816D01*
X102812854Y-77326067D01*
X102867224Y-77416287D01*
X102934048Y-77495279D01*
X103013416Y-77563103D01*
X103105421Y-77619819D01*
X103210154Y-77665488D01*
X103327706Y-77700170D01*
X103405313Y-77715882D01*
X103452679Y-77723824D01*
X103485380Y-77729620D01*
X103505310Y-77734661D01*
X103514363Y-77740341D01*
X103514433Y-77748053D01*
X103507413Y-77759191D01*
X103495197Y-77775146D01*
X103491903Y-77779574D01*
X103473127Y-77809664D01*
X103454471Y-77847072D01*
X103438075Y-77886569D01*
X103426082Y-77922926D01*
X103420632Y-77950914D01*
X103420512Y-77953940D01*
X103412408Y-77969196D01*
X103390423Y-77983023D01*
X103357582Y-77994920D01*
X103316912Y-78004385D01*
X103271440Y-78010918D01*
X103224191Y-78014017D01*
X103178192Y-78013183D01*
X103136469Y-78007914D01*
X103119300Y-78003792D01*
X103055391Y-77978775D01*
X102998941Y-77941885D01*
X102947848Y-77891428D01*
X102901864Y-77828620D01*
X102862006Y-77775984D01*
X102815439Y-77730249D01*
X102764658Y-77692754D01*
X102712157Y-77664841D01*
X102660429Y-77647850D01*
X102611969Y-77643120D01*
X102571550Y-77651081D01*
X102553757Y-77661607D01*
X102548293Y-77675482D01*
X102555732Y-77693710D01*
X102576649Y-77717292D01*
X102611617Y-77747234D01*
X102638319Y-77767727D01*
X102681253Y-77804296D01*
X102719398Y-77847239D01*
X102755160Y-77899754D01*
X102790947Y-77965040D01*
X102799037Y-77981383D01*
X102832181Y-78043631D01*
X102865284Y-78092486D01*
X102901246Y-78131233D01*
X102942967Y-78163154D01*
X102977394Y-78183326D01*
X103027744Y-78206689D01*
X103078804Y-78222504D01*
X103134741Y-78231520D01*
X103199723Y-78234485D01*
X103255233Y-78233261D01*
X103298852Y-78231052D01*
X103338191Y-78228421D01*
X103369158Y-78225684D01*
X103387662Y-78223156D01*
X103388583Y-78222948D01*
X103411867Y-78217326D01*
X103411867Y-78399874D01*
X103411805Y-78460033D01*
X103411472Y-78505633D01*
X103410642Y-78539047D01*
X103409092Y-78562650D01*
X103406599Y-78578815D01*
X103402938Y-78589916D01*
X103397886Y-78598327D01*
X103392537Y-78604894D01*
X103370894Y-78622797D01*
X103343506Y-78631212D01*
X103308277Y-78630099D01*
X103263111Y-78619420D01*
X103212146Y-78601564D01*
X103055617Y-78532298D01*
X102907791Y-78449175D01*
X102769441Y-78353119D01*
X102641339Y-78245056D01*
X102524258Y-78125911D01*
X102418971Y-77996608D01*
X102326250Y-77858073D01*
X102246868Y-77711230D01*
X102181598Y-77557005D01*
X102131212Y-77396323D01*
X102104234Y-77275267D01*
X102081466Y-77106787D01*
X102075222Y-76938231D01*
X102085136Y-76770764D01*
X102110845Y-76605552D01*
X102151983Y-76443759D01*
X102208186Y-76286551D01*
X102279090Y-76135093D01*
X102364330Y-75990551D01*
X102463541Y-75854090D01*
X102576359Y-75726875D01*
X102594239Y-75708855D01*
X102723098Y-75592603D01*
X102861272Y-75490253D01*
X103007872Y-75402189D01*
X103162010Y-75328799D01*
X103322798Y-75270470D01*
X103489346Y-75227587D01*
X103660768Y-75200539D01*
X103783866Y-75191203D01*
X103955131Y-75192286D01*
D10*
%TO.C,U12*%
X153390157Y-93789900D02*
X152405350Y-93616252D01*
X150696206Y-91791744D02*
X151043503Y-89822129D01*
X154258398Y-88865862D02*
X153273591Y-88692214D01*
X155620245Y-92659985D02*
X155967542Y-90690370D01*
X154403506Y-90922301D02*
X154143034Y-92399513D01*
X153997926Y-90343073D02*
X154403506Y-90922301D01*
X152520714Y-90082601D02*
X153997926Y-90343073D01*
X152173418Y-92052217D02*
X152520714Y-90082601D01*
X154143034Y-92399513D02*
X152173418Y-92052217D01*
%TO.C,U8*%
X134023177Y-53817430D02*
X133681156Y-54757123D01*
X131587577Y-56123478D02*
X129708192Y-55439437D01*
X129324714Y-52107329D02*
X128982693Y-53047022D01*
X133297678Y-51425015D02*
X131418293Y-50740974D01*
X131375109Y-52321523D02*
X132784648Y-52834554D01*
X130734252Y-52620360D02*
X131375109Y-52321523D01*
X130221222Y-54029898D02*
X130734252Y-52620360D01*
X132100607Y-54713939D02*
X130221222Y-54029898D01*
X132784648Y-52834554D02*
X132100607Y-54713939D01*
%TO.C,U4*%
X91294937Y-65949036D02*
X92160963Y-66449036D01*
X93143014Y-68748075D02*
X92143014Y-70480125D01*
X88794937Y-70279164D02*
X89660963Y-70779164D01*
X88812886Y-66248075D02*
X87812886Y-67980125D01*
X89361925Y-68297113D02*
X90111925Y-66998075D01*
X89544937Y-68980125D02*
X89361925Y-68297113D01*
X90843975Y-69730125D02*
X89544937Y-68980125D01*
X91843975Y-67998075D02*
X90843975Y-69730125D01*
X90111925Y-66998075D02*
X91843975Y-67998075D01*
%TO.C,U11*%
X154258398Y-81822137D02*
X153273591Y-81995785D01*
X151043503Y-80865870D02*
X150696206Y-78896255D01*
X153390157Y-76898099D02*
X152405350Y-77071747D01*
X155967542Y-79997629D02*
X155620245Y-78028014D01*
X154229858Y-78780890D02*
X154490330Y-80258102D01*
X153650630Y-78375310D02*
X154229858Y-78780890D01*
X152173418Y-78635782D02*
X153650630Y-78375310D01*
X152520714Y-80605398D02*
X152173418Y-78635782D01*
X154490330Y-80258102D02*
X152520714Y-80605398D01*
%TO.C,U7*%
X122388000Y-50884200D02*
X122388000Y-51884200D01*
X120888000Y-53884200D02*
X118888000Y-53884200D01*
X117388000Y-50884200D02*
X117388000Y-51884200D01*
X120888000Y-48884200D02*
X118888000Y-48884200D01*
X119388000Y-50384200D02*
X120888000Y-50384200D01*
X118888000Y-50884200D02*
X119388000Y-50384200D01*
X118888000Y-52384200D02*
X118888000Y-50884200D01*
X120888000Y-52384200D02*
X118888000Y-52384200D01*
X120888000Y-50384200D02*
X120888000Y-52384200D01*
%TO.C,U3*%
X86385842Y-76898099D02*
X87370649Y-77071747D01*
X89079793Y-78896255D02*
X88732496Y-80865870D01*
X85517601Y-81822137D02*
X86502408Y-81995785D01*
X84155754Y-78028014D02*
X83808457Y-79997629D01*
X85372493Y-79765698D02*
X85632965Y-78288486D01*
X85778073Y-80344926D02*
X85372493Y-79765698D01*
X87255285Y-80605398D02*
X85778073Y-80344926D01*
X87602581Y-78635782D02*
X87255285Y-80605398D01*
X85632965Y-78288486D02*
X87602581Y-78635782D01*
%TO.C,U6*%
X110451285Y-52107329D02*
X110793306Y-53047022D01*
X110067807Y-55439437D02*
X108188422Y-56123478D01*
X105752822Y-53817430D02*
X106094843Y-54757123D01*
X108357706Y-50740974D02*
X106478321Y-51425015D01*
X107461198Y-52663543D02*
X108870736Y-52150513D01*
X107162361Y-53304400D02*
X107461198Y-52663543D01*
X107675392Y-54713939D02*
X107162361Y-53304400D01*
X109554777Y-54029898D02*
X107675392Y-54713939D01*
X108870736Y-52150513D02*
X109554777Y-54029898D01*
%TO.C,U2*%
X85517601Y-88865862D02*
X86502408Y-88692214D01*
X88732496Y-89822129D02*
X89079793Y-91791744D01*
X86385842Y-93789900D02*
X87370649Y-93616252D01*
X83808457Y-90690370D02*
X84155754Y-92659985D01*
X85546141Y-91907109D02*
X85285669Y-90429897D01*
X86125369Y-92312689D02*
X85546141Y-91907109D01*
X87602581Y-92052217D02*
X86125369Y-92312689D01*
X87255285Y-90082601D02*
X87602581Y-92052217D01*
X85285669Y-90429897D02*
X87255285Y-90082601D01*
%TO.C,U13*%
X148481062Y-104738964D02*
X147615036Y-104238964D01*
X146632985Y-101939925D02*
X147632985Y-100207875D01*
X150981062Y-100408836D02*
X150115036Y-99908836D01*
X150963113Y-104439925D02*
X151963113Y-102707875D01*
X150414074Y-102390887D02*
X149664074Y-103689925D01*
X150231062Y-101707875D02*
X150414074Y-102390887D01*
X148932024Y-100957875D02*
X150231062Y-101707875D01*
X147932024Y-102689925D02*
X148932024Y-100957875D01*
X149664074Y-103689925D02*
X147932024Y-102689925D01*
%TO.C,U9*%
X144461443Y-61061230D02*
X143818655Y-61827274D01*
X141384013Y-62395182D02*
X139851925Y-61109606D01*
X140631221Y-57847292D02*
X139988433Y-58613336D01*
X144597951Y-58564960D02*
X143065863Y-57279384D01*
X142484703Y-58749845D02*
X143633770Y-59714026D01*
X141780287Y-58811473D02*
X142484703Y-58749845D01*
X140816106Y-59960540D02*
X141780287Y-58811473D01*
X142348195Y-61246115D02*
X140816106Y-59960540D01*
X143633770Y-59714026D02*
X142348195Y-61246115D01*
%TO.C,U5*%
X99652778Y-57339292D02*
X100295566Y-58105336D01*
X100432074Y-60601606D02*
X98899986Y-61887182D01*
X95822556Y-60553230D02*
X96465344Y-61319274D01*
X97218136Y-56771384D02*
X95686048Y-58056960D01*
X97033251Y-58884632D02*
X98182318Y-57920451D01*
X96971623Y-59589048D02*
X97033251Y-58884632D01*
X97935804Y-60738115D02*
X96971623Y-59589048D01*
X99467893Y-59452540D02*
X97935804Y-60738115D01*
X98182318Y-57920451D02*
X99467893Y-59452540D01*
%TO.C,U1*%
X88906045Y-100463475D02*
X89772071Y-99963475D01*
X92254122Y-100262514D02*
X93254122Y-101994564D01*
X91406045Y-104793603D02*
X92272071Y-104293603D01*
X87923994Y-102762514D02*
X88923994Y-104494564D01*
X89973033Y-103311552D02*
X89223033Y-102012514D01*
X90656045Y-103494564D02*
X89973033Y-103311552D01*
X91955083Y-102744564D02*
X90656045Y-103494564D01*
X90955083Y-101012514D02*
X91955083Y-102744564D01*
X89223033Y-102012514D02*
X90955083Y-101012514D01*
%TO.C,U10*%
X150981062Y-70279163D02*
X150115036Y-70779163D01*
X147632985Y-70480124D02*
X146632985Y-68748074D01*
X148481062Y-65949035D02*
X147615036Y-66449035D01*
X151963113Y-67980124D02*
X150963113Y-66248074D01*
X149914074Y-67431086D02*
X150664074Y-68730124D01*
X149231062Y-67248074D02*
X149914074Y-67431086D01*
X147932024Y-67998074D02*
X149231062Y-67248074D01*
X148932024Y-69730124D02*
X147932024Y-67998074D01*
X150664074Y-68730124D02*
X148932024Y-69730124D01*
D13*
%TO.C,D1*%
X109699959Y-96388124D02*
X113836599Y-99859177D01*
X107578760Y-98916070D02*
X111715400Y-102387124D01*
X109699959Y-96388124D02*
X107578760Y-98916070D01*
%TO.C,U15*%
X137668000Y-80525000D02*
X137668000Y-77901000D01*
X140208000Y-80525000D02*
X140208000Y-77901000D01*
X142748000Y-80525000D02*
X142748000Y-77885000D01*
X135088000Y-96415000D02*
X135088000Y-80525000D01*
X145328000Y-96415000D02*
X145328000Y-80525000D01*
X145328000Y-96415000D02*
X135088000Y-96415000D01*
X145328000Y-80525000D02*
X135088000Y-80525000D01*
%TO.C,C13*%
X141942000Y-72850000D02*
X141942000Y-70850000D01*
X138982000Y-70850000D02*
X138982000Y-72850000D01*
%TO.C,C18*%
X131489000Y-79994000D02*
X131489000Y-81994000D01*
X134449000Y-81994000D02*
X134449000Y-79994000D01*
%TO.C,C19*%
D11*
X121785142Y-97103142D02*
X121737523Y-97150761D01*
X121594666Y-97198380D01*
X121499428Y-97198380D01*
X121356571Y-97150761D01*
X121261333Y-97055523D01*
X121213714Y-96960285D01*
X121166095Y-96769809D01*
X121166095Y-96626952D01*
X121213714Y-96436476D01*
X121261333Y-96341238D01*
X121356571Y-96246000D01*
X121499428Y-96198380D01*
X121594666Y-96198380D01*
X121737523Y-96246000D01*
X121785142Y-96293619D01*
X122737523Y-97198380D02*
X122166095Y-97198380D01*
X122451809Y-97198380D02*
X122451809Y-96198380D01*
X122356571Y-96341238D01*
X122261333Y-96436476D01*
X122166095Y-96484095D01*
X123213714Y-97198380D02*
X123404190Y-97198380D01*
X123499428Y-97150761D01*
X123547047Y-97103142D01*
X123642285Y-96960285D01*
X123689904Y-96769809D01*
X123689904Y-96388857D01*
X123642285Y-96293619D01*
X123594666Y-96246000D01*
X123499428Y-96198380D01*
X123308952Y-96198380D01*
X123213714Y-96246000D01*
X123166095Y-96293619D01*
X123118476Y-96388857D01*
X123118476Y-96626952D01*
X123166095Y-96722190D01*
X123213714Y-96769809D01*
X123308952Y-96817428D01*
X123499428Y-96817428D01*
X123594666Y-96769809D01*
X123642285Y-96722190D01*
X123689904Y-96626952D01*
%TO.C,C1*%
X119447333Y-57479142D02*
X119399714Y-57526761D01*
X119256857Y-57574380D01*
X119161619Y-57574380D01*
X119018761Y-57526761D01*
X118923523Y-57431523D01*
X118875904Y-57336285D01*
X118828285Y-57145809D01*
X118828285Y-57002952D01*
X118875904Y-56812476D01*
X118923523Y-56717238D01*
X119018761Y-56622000D01*
X119161619Y-56574380D01*
X119256857Y-56574380D01*
X119399714Y-56622000D01*
X119447333Y-56669619D01*
X120399714Y-57574380D02*
X119828285Y-57574380D01*
X120114000Y-57574380D02*
X120114000Y-56574380D01*
X120018761Y-56717238D01*
X119923523Y-56812476D01*
X119828285Y-56860095D01*
%TO.C,C2*%
X115892867Y-54512302D02*
X115831833Y-54483842D01*
X115738225Y-54365886D01*
X115705652Y-54276392D01*
X115701539Y-54125863D01*
X115758460Y-54003795D01*
X115831668Y-53926475D01*
X115994371Y-53816581D01*
X116128613Y-53767721D01*
X116323888Y-53747321D01*
X116429670Y-53759495D01*
X116551737Y-53816417D01*
X116645345Y-53934372D01*
X116677918Y-54023866D01*
X116682031Y-54174395D01*
X116653570Y-54235429D01*
X116783864Y-54593407D02*
X116844898Y-54621867D01*
X116922218Y-54695075D01*
X117003651Y-54918812D01*
X116991478Y-55024593D01*
X116963017Y-55085627D01*
X116889809Y-55162947D01*
X116800315Y-55195521D01*
X116649786Y-55199633D01*
X115917379Y-54858106D01*
X116129106Y-55439821D01*
%TO.C,C3*%
X102291027Y-64341020D02*
X102287503Y-64408271D01*
X102213203Y-64539249D01*
X102142427Y-64602976D01*
X102004400Y-64663178D01*
X101869898Y-64656129D01*
X101770783Y-64617217D01*
X101607942Y-64507529D01*
X101512352Y-64401365D01*
X101420286Y-64227951D01*
X101391947Y-64125312D01*
X101398996Y-63990809D01*
X101473296Y-63859831D01*
X101544072Y-63796104D01*
X101682099Y-63735902D01*
X101749350Y-63739427D01*
X101933338Y-63445607D02*
X102393380Y-63031384D01*
X102400572Y-63537530D01*
X102506736Y-63441940D01*
X102609375Y-63413601D01*
X102676626Y-63417126D01*
X102775741Y-63456038D01*
X102935057Y-63632977D01*
X102963396Y-63735616D01*
X102959872Y-63802867D01*
X102920960Y-63901982D01*
X102708632Y-64093162D01*
X102605993Y-64121501D01*
X102538742Y-64117977D01*
%TO.C,C4*%
X96135301Y-71793003D02*
X96157225Y-71856677D01*
X96137401Y-72005951D01*
X96095651Y-72091551D01*
X95990227Y-72199075D01*
X95862878Y-72242925D01*
X95756404Y-72243975D01*
X95564330Y-72203275D01*
X95435931Y-72140651D01*
X95285607Y-72014352D01*
X95220882Y-71929802D01*
X95177032Y-71802453D01*
X95196857Y-71653179D01*
X95238607Y-71567580D01*
X95344031Y-71460056D01*
X95407705Y-71438131D01*
X95997451Y-70772110D02*
X96596647Y-71064357D01*
X95550679Y-70819110D02*
X96088300Y-71346231D01*
X96359673Y-70789835D01*
%TO.C,C5*%
X90526735Y-84269540D02*
X90567263Y-84323323D01*
X90594537Y-84471417D01*
X90581283Y-84565728D01*
X90514245Y-84700568D01*
X90406679Y-84781624D01*
X90305741Y-84815525D01*
X90110491Y-84836172D01*
X89969024Y-84816290D01*
X89787029Y-84742625D01*
X89699345Y-84682215D01*
X89618288Y-84574649D01*
X89591015Y-84426555D01*
X89604269Y-84332244D01*
X89671307Y-84197404D01*
X89725090Y-84156876D01*
X89756697Y-83247665D02*
X89690424Y-83719221D01*
X90155353Y-83832649D01*
X90114825Y-83778866D01*
X90080924Y-83677928D01*
X90114060Y-83442150D01*
X90174470Y-83354466D01*
X90228253Y-83313937D01*
X90329192Y-83280036D01*
X90564970Y-83313173D01*
X90652654Y-83373583D01*
X90693182Y-83427366D01*
X90727083Y-83528304D01*
X90693947Y-83764083D01*
X90633536Y-83851767D01*
X90579753Y-83892295D01*
%TO.C,C6*%
X103036642Y-70118266D02*
X103084261Y-70165885D01*
X103131880Y-70308742D01*
X103131880Y-70403980D01*
X103084261Y-70546838D01*
X102989023Y-70642076D01*
X102893785Y-70689695D01*
X102703309Y-70737314D01*
X102560452Y-70737314D01*
X102369976Y-70689695D01*
X102274738Y-70642076D01*
X102179500Y-70546838D01*
X102131880Y-70403980D01*
X102131880Y-70308742D01*
X102179500Y-70165885D01*
X102227119Y-70118266D01*
X102131880Y-69261123D02*
X102131880Y-69451600D01*
X102179500Y-69546838D01*
X102227119Y-69594457D01*
X102369976Y-69689695D01*
X102560452Y-69737314D01*
X102941404Y-69737314D01*
X103036642Y-69689695D01*
X103084261Y-69642076D01*
X103131880Y-69546838D01*
X103131880Y-69356361D01*
X103084261Y-69261123D01*
X103036642Y-69213504D01*
X102941404Y-69165885D01*
X102703309Y-69165885D01*
X102608071Y-69213504D01*
X102560452Y-69261123D01*
X102512833Y-69356361D01*
X102512833Y-69546838D01*
X102560452Y-69642076D01*
X102608071Y-69689695D01*
X102703309Y-69737314D01*
%TO.C,C7*%
X125386825Y-49878876D02*
X125417503Y-49938826D01*
X125418908Y-50089404D01*
X125389636Y-50180032D01*
X125300414Y-50301338D01*
X125180514Y-50362694D01*
X125075250Y-50378736D01*
X124879358Y-50365506D01*
X124743416Y-50321598D01*
X124576796Y-50217740D01*
X124500804Y-50143154D01*
X124439448Y-50023253D01*
X124438042Y-49872675D01*
X124467314Y-49782047D01*
X124556536Y-49660741D01*
X124616486Y-49630063D01*
X124628310Y-49283593D02*
X124833215Y-48649197D01*
X125653085Y-49364380D01*
%TO.C,C8*%
X92253877Y-90272699D02*
X92197398Y-90236021D01*
X92121118Y-90106186D01*
X92101317Y-90013029D01*
X92118194Y-89863394D01*
X92191549Y-89750435D01*
X92274806Y-89684056D01*
X92451219Y-89597875D01*
X92590954Y-89568174D01*
X92787169Y-89575150D01*
X92890226Y-89601927D01*
X93003184Y-89675283D01*
X93079464Y-89805118D01*
X93099266Y-89898275D01*
X93082389Y-90047911D01*
X93045711Y-90104390D01*
X92838468Y-90732635D02*
X92865246Y-90629578D01*
X92901924Y-90573099D01*
X92985180Y-90506719D01*
X93031758Y-90496818D01*
X93134816Y-90523596D01*
X93191295Y-90560274D01*
X93257674Y-90643530D01*
X93297277Y-90829844D01*
X93270499Y-90932901D01*
X93233821Y-90989380D01*
X93150565Y-91055760D01*
X93103987Y-91065660D01*
X93000929Y-91038883D01*
X92944450Y-91002205D01*
X92878071Y-90918949D01*
X92838468Y-90732635D01*
X92772089Y-90649379D01*
X92715610Y-90612701D01*
X92612552Y-90585923D01*
X92426238Y-90625526D01*
X92342982Y-90691905D01*
X92306304Y-90748384D01*
X92279527Y-90851442D01*
X92319129Y-91037756D01*
X92385509Y-91121012D01*
X92441988Y-91157690D01*
X92545045Y-91184467D01*
X92731359Y-91144865D01*
X92814615Y-91078485D01*
X92851293Y-91022006D01*
X92878071Y-90918949D01*
%TO.C,C9*%
X95481288Y-99494616D02*
X95415671Y-99479467D01*
X95299585Y-99383552D01*
X95249116Y-99302785D01*
X95213797Y-99156401D01*
X95244095Y-99025166D01*
X95299627Y-98934314D01*
X95435926Y-98792994D01*
X95557075Y-98717291D01*
X95743843Y-98656738D01*
X95849843Y-98646652D01*
X95981078Y-98676950D01*
X96097164Y-98772866D01*
X96147633Y-98853632D01*
X96182952Y-99000016D01*
X96167803Y-99065634D01*
X95652864Y-99948917D02*
X95753801Y-100110450D01*
X95844653Y-100165982D01*
X95910271Y-100181131D01*
X96081889Y-100186195D01*
X96268656Y-100125641D01*
X96591722Y-99923767D01*
X96647254Y-99832915D01*
X96662403Y-99767298D01*
X96652318Y-99661297D01*
X96551381Y-99499764D01*
X96460529Y-99444232D01*
X96394912Y-99429083D01*
X96288911Y-99439168D01*
X96086995Y-99565339D01*
X96031463Y-99656191D01*
X96016314Y-99721809D01*
X96026399Y-99827809D01*
X96127336Y-99989342D01*
X96218188Y-100044875D01*
X96283805Y-100060024D01*
X96389806Y-100049938D01*
%TO.C,C10*%
X143718837Y-100131858D02*
X143736266Y-100196906D01*
X143706077Y-100344434D01*
X143658458Y-100426912D01*
X143545790Y-100526821D01*
X143415693Y-100561680D01*
X143309405Y-100555301D01*
X143120638Y-100501302D01*
X142996920Y-100429873D01*
X142855772Y-100293396D01*
X142797103Y-100204538D01*
X142762244Y-100074440D01*
X142792433Y-99926912D01*
X142840052Y-99844434D01*
X142952720Y-99744525D01*
X143017769Y-99727096D01*
X144277506Y-99354690D02*
X143991792Y-99849562D01*
X144134649Y-99602126D02*
X143268623Y-99102126D01*
X143344722Y-99256034D01*
X143379582Y-99386131D01*
X143373202Y-99492419D01*
X143721004Y-98318580D02*
X143768623Y-98236101D01*
X143857482Y-98177432D01*
X143922530Y-98160002D01*
X144028819Y-98166382D01*
X144217585Y-98220381D01*
X144423782Y-98339428D01*
X144564930Y-98475906D01*
X144623599Y-98564764D01*
X144641028Y-98629813D01*
X144634649Y-98736101D01*
X144587030Y-98818580D01*
X144498171Y-98877249D01*
X144433122Y-98894678D01*
X144326834Y-98888299D01*
X144138068Y-98834300D01*
X143931871Y-98715252D01*
X143790723Y-98578775D01*
X143732054Y-98489916D01*
X143714624Y-98424868D01*
X143721004Y-98318580D01*
%TO.C,C11*%
X147306086Y-89595107D02*
X147344712Y-89650272D01*
X147366801Y-89799228D01*
X147350263Y-89893019D01*
X147278561Y-90025437D01*
X147168231Y-90102690D01*
X147066171Y-90133048D01*
X146870320Y-90146868D01*
X146729633Y-90122061D01*
X146550320Y-90042089D01*
X146464797Y-89978656D01*
X146387544Y-89868327D01*
X146365455Y-89719371D01*
X146381993Y-89625580D01*
X146453696Y-89493162D01*
X146508860Y-89454535D01*
X147565256Y-88673733D02*
X147466028Y-89236480D01*
X147515642Y-88955107D02*
X146530834Y-88781459D01*
X146654983Y-88900057D01*
X146732237Y-89010386D01*
X146762594Y-89112446D01*
X147730635Y-87735821D02*
X147631408Y-88298568D01*
X147681021Y-88017195D02*
X146696214Y-87843547D01*
X146820363Y-87962145D01*
X146897616Y-88072474D01*
X146927974Y-88174534D01*
%TO.C,C12*%
X146657237Y-80250810D02*
X146602073Y-80212183D01*
X146530370Y-80079766D01*
X146513832Y-79985974D01*
X146535921Y-79837019D01*
X146613175Y-79726689D01*
X146698697Y-79663256D01*
X146878010Y-79583284D01*
X147018697Y-79558478D01*
X147214548Y-79572297D01*
X147316609Y-79602655D01*
X147426938Y-79679908D01*
X147498640Y-79812326D01*
X147515178Y-79906117D01*
X147493089Y-80055073D01*
X147454463Y-80110238D01*
X146728825Y-81205260D02*
X146629598Y-80642513D01*
X146679212Y-80923886D02*
X147664019Y-80750238D01*
X147506795Y-80681254D01*
X147396466Y-80604001D01*
X147333032Y-80518478D01*
X147685994Y-81423315D02*
X147741158Y-81461941D01*
X147804592Y-81547464D01*
X147845937Y-81781942D01*
X147815579Y-81884002D01*
X147776952Y-81939166D01*
X147691430Y-82002600D01*
X147597639Y-82019138D01*
X147448683Y-81997049D01*
X146786708Y-81533529D01*
X146894205Y-82143172D01*
%TO.C,C14*%
X143766732Y-71521456D02*
X143701683Y-71504027D01*
X143589015Y-71404118D01*
X143541396Y-71321640D01*
X143511207Y-71174112D01*
X143546067Y-71044014D01*
X143604736Y-70955156D01*
X143745883Y-70818679D01*
X143869601Y-70747250D01*
X144058368Y-70693251D01*
X144164656Y-70686872D01*
X144294754Y-70721731D01*
X144407422Y-70821640D01*
X144455041Y-70904118D01*
X144485230Y-71051646D01*
X144467800Y-71116694D01*
X144160444Y-72393861D02*
X143874730Y-71898990D01*
X144017587Y-72146426D02*
X144883612Y-71646426D01*
X144712275Y-71635376D01*
X144582178Y-71600516D01*
X144493319Y-71541847D01*
X145166366Y-72802836D02*
X144589015Y-73136169D01*
X145377233Y-72406163D02*
X144639595Y-72557109D01*
X144949119Y-73093220D01*
%TO.C,C15*%
X133961142Y-119006857D02*
X134008761Y-119054476D01*
X134056380Y-119197333D01*
X134056380Y-119292571D01*
X134008761Y-119435428D01*
X133913523Y-119530666D01*
X133818285Y-119578285D01*
X133627809Y-119625904D01*
X133484952Y-119625904D01*
X133294476Y-119578285D01*
X133199238Y-119530666D01*
X133104000Y-119435428D01*
X133056380Y-119292571D01*
X133056380Y-119197333D01*
X133104000Y-119054476D01*
X133151619Y-119006857D01*
X134056380Y-118054476D02*
X134056380Y-118625904D01*
X134056380Y-118340190D02*
X133056380Y-118340190D01*
X133199238Y-118435428D01*
X133294476Y-118530666D01*
X133342095Y-118625904D01*
X133056380Y-117149714D02*
X133056380Y-117625904D01*
X133532571Y-117673523D01*
X133484952Y-117625904D01*
X133437333Y-117530666D01*
X133437333Y-117292571D01*
X133484952Y-117197333D01*
X133532571Y-117149714D01*
X133627809Y-117102095D01*
X133865904Y-117102095D01*
X133961142Y-117149714D01*
X134008761Y-117197333D01*
X134056380Y-117292571D01*
X134056380Y-117530666D01*
X134008761Y-117625904D01*
X133961142Y-117673523D01*
%TO.C,C16*%
X147006169Y-65220759D02*
X147009693Y-65288010D01*
X146949491Y-65426037D01*
X146885765Y-65496812D01*
X146754787Y-65571113D01*
X146620284Y-65578162D01*
X146517645Y-65549823D01*
X146344230Y-65457757D01*
X146238067Y-65362167D01*
X146128379Y-65199326D01*
X146089466Y-65100211D01*
X146082417Y-64965709D01*
X146142620Y-64827682D01*
X146206346Y-64756906D01*
X146337324Y-64682606D01*
X146404576Y-64679082D01*
X147714212Y-64576728D02*
X147331852Y-65001383D01*
X147523032Y-64789056D02*
X146779887Y-64119925D01*
X146822324Y-64286291D01*
X146829373Y-64420793D01*
X146801034Y-64523432D01*
X147544608Y-63270617D02*
X147417154Y-63412168D01*
X147388815Y-63514807D01*
X147392340Y-63582058D01*
X147434777Y-63748424D01*
X147544465Y-63911265D01*
X147827567Y-64166172D01*
X147930206Y-64194511D01*
X147997458Y-64190987D01*
X148096572Y-64152074D01*
X148224026Y-64010523D01*
X148252365Y-63907884D01*
X148248840Y-63840633D01*
X148209928Y-63741518D01*
X148032989Y-63582201D01*
X147930349Y-63553862D01*
X147863098Y-63557387D01*
X147763984Y-63596299D01*
X147636530Y-63737851D01*
X147608191Y-63840490D01*
X147611716Y-63907741D01*
X147650628Y-64006855D01*
%TO.C,C17*%
X131421142Y-119006857D02*
X131468761Y-119054476D01*
X131516380Y-119197333D01*
X131516380Y-119292571D01*
X131468761Y-119435428D01*
X131373523Y-119530666D01*
X131278285Y-119578285D01*
X131087809Y-119625904D01*
X130944952Y-119625904D01*
X130754476Y-119578285D01*
X130659238Y-119530666D01*
X130564000Y-119435428D01*
X130516380Y-119292571D01*
X130516380Y-119197333D01*
X130564000Y-119054476D01*
X130611619Y-119006857D01*
X131516380Y-118054476D02*
X131516380Y-118625904D01*
X131516380Y-118340190D02*
X130516380Y-118340190D01*
X130659238Y-118435428D01*
X130754476Y-118530666D01*
X130802095Y-118625904D01*
X130516380Y-117721142D02*
X130516380Y-117054476D01*
X131516380Y-117483047D01*
%TO.C,C20*%
X116705142Y-97131142D02*
X116657523Y-97178761D01*
X116514666Y-97226380D01*
X116419428Y-97226380D01*
X116276571Y-97178761D01*
X116181333Y-97083523D01*
X116133714Y-96988285D01*
X116086095Y-96797809D01*
X116086095Y-96654952D01*
X116133714Y-96464476D01*
X116181333Y-96369238D01*
X116276571Y-96274000D01*
X116419428Y-96226380D01*
X116514666Y-96226380D01*
X116657523Y-96274000D01*
X116705142Y-96321619D01*
X117086095Y-96321619D02*
X117133714Y-96274000D01*
X117228952Y-96226380D01*
X117467047Y-96226380D01*
X117562285Y-96274000D01*
X117609904Y-96321619D01*
X117657523Y-96416857D01*
X117657523Y-96512095D01*
X117609904Y-96654952D01*
X117038476Y-97226380D01*
X117657523Y-97226380D01*
X118276571Y-96226380D02*
X118371809Y-96226380D01*
X118467047Y-96274000D01*
X118514666Y-96321619D01*
X118562285Y-96416857D01*
X118609904Y-96607333D01*
X118609904Y-96845428D01*
X118562285Y-97035904D01*
X118514666Y-97131142D01*
X118467047Y-97178761D01*
X118371809Y-97226380D01*
X118276571Y-97226380D01*
X118181333Y-97178761D01*
X118133714Y-97131142D01*
X118086095Y-97035904D01*
X118038476Y-96845428D01*
X118038476Y-96607333D01*
X118086095Y-96416857D01*
X118133714Y-96321619D01*
X118181333Y-96274000D01*
X118276571Y-96226380D01*
%TO.C,C21*%
X106275142Y-85224857D02*
X106322761Y-85272476D01*
X106370380Y-85415333D01*
X106370380Y-85510571D01*
X106322761Y-85653428D01*
X106227523Y-85748666D01*
X106132285Y-85796285D01*
X105941809Y-85843904D01*
X105798952Y-85843904D01*
X105608476Y-85796285D01*
X105513238Y-85748666D01*
X105418000Y-85653428D01*
X105370380Y-85510571D01*
X105370380Y-85415333D01*
X105418000Y-85272476D01*
X105465619Y-85224857D01*
X105465619Y-84843904D02*
X105418000Y-84796285D01*
X105370380Y-84701047D01*
X105370380Y-84462952D01*
X105418000Y-84367714D01*
X105465619Y-84320095D01*
X105560857Y-84272476D01*
X105656095Y-84272476D01*
X105798952Y-84320095D01*
X106370380Y-84891523D01*
X106370380Y-84272476D01*
X106370380Y-83320095D02*
X106370380Y-83891523D01*
X106370380Y-83605809D02*
X105370380Y-83605809D01*
X105513238Y-83701047D01*
X105608476Y-83796285D01*
X105656095Y-83891523D01*
%TO.C,Q1*%
X106380761Y-95803619D02*
X106285523Y-95756000D01*
X106190285Y-95660761D01*
X106047428Y-95517904D01*
X105952190Y-95470285D01*
X105856952Y-95470285D01*
X105904571Y-95708380D02*
X105809333Y-95660761D01*
X105714095Y-95565523D01*
X105666476Y-95375047D01*
X105666476Y-95041714D01*
X105714095Y-94851238D01*
X105809333Y-94756000D01*
X105904571Y-94708380D01*
X106095047Y-94708380D01*
X106190285Y-94756000D01*
X106285523Y-94851238D01*
X106333142Y-95041714D01*
X106333142Y-95375047D01*
X106285523Y-95565523D01*
X106190285Y-95660761D01*
X106095047Y-95708380D01*
X105904571Y-95708380D01*
X107285523Y-95708380D02*
X106714095Y-95708380D01*
X106999809Y-95708380D02*
X106999809Y-94708380D01*
X106904571Y-94851238D01*
X106809333Y-94946476D01*
X106714095Y-94994095D01*
%TO.C,Q2*%
X117274861Y-60684619D02*
X117179623Y-60637000D01*
X117084385Y-60541761D01*
X116941528Y-60398904D01*
X116846290Y-60351285D01*
X116751052Y-60351285D01*
X116798671Y-60589380D02*
X116703433Y-60541761D01*
X116608195Y-60446523D01*
X116560576Y-60256047D01*
X116560576Y-59922714D01*
X116608195Y-59732238D01*
X116703433Y-59637000D01*
X116798671Y-59589380D01*
X116989147Y-59589380D01*
X117084385Y-59637000D01*
X117179623Y-59732238D01*
X117227242Y-59922714D01*
X117227242Y-60256047D01*
X117179623Y-60446523D01*
X117084385Y-60541761D01*
X116989147Y-60589380D01*
X116798671Y-60589380D01*
X117608195Y-59684619D02*
X117655814Y-59637000D01*
X117751052Y-59589380D01*
X117989147Y-59589380D01*
X118084385Y-59637000D01*
X118132004Y-59684619D01*
X118179623Y-59779857D01*
X118179623Y-59875095D01*
X118132004Y-60017952D01*
X117560576Y-60589380D01*
X118179623Y-60589380D01*
%TO.C,Q3*%
X111896661Y-60872619D02*
X111801423Y-60825000D01*
X111706185Y-60729761D01*
X111563328Y-60586904D01*
X111468090Y-60539285D01*
X111372852Y-60539285D01*
X111420471Y-60777380D02*
X111325233Y-60729761D01*
X111229995Y-60634523D01*
X111182376Y-60444047D01*
X111182376Y-60110714D01*
X111229995Y-59920238D01*
X111325233Y-59825000D01*
X111420471Y-59777380D01*
X111610947Y-59777380D01*
X111706185Y-59825000D01*
X111801423Y-59920238D01*
X111849042Y-60110714D01*
X111849042Y-60444047D01*
X111801423Y-60634523D01*
X111706185Y-60729761D01*
X111610947Y-60777380D01*
X111420471Y-60777380D01*
X112182376Y-59777380D02*
X112801423Y-59777380D01*
X112468090Y-60158333D01*
X112610947Y-60158333D01*
X112706185Y-60205952D01*
X112753804Y-60253571D01*
X112801423Y-60348809D01*
X112801423Y-60586904D01*
X112753804Y-60682142D01*
X112706185Y-60729761D01*
X112610947Y-60777380D01*
X112325233Y-60777380D01*
X112229995Y-60729761D01*
X112182376Y-60682142D01*
%TO.C,Q4*%
X106225861Y-60038819D02*
X106130623Y-59991200D01*
X106035385Y-59895961D01*
X105892528Y-59753104D01*
X105797290Y-59705485D01*
X105702052Y-59705485D01*
X105749671Y-59943580D02*
X105654433Y-59895961D01*
X105559195Y-59800723D01*
X105511576Y-59610247D01*
X105511576Y-59276914D01*
X105559195Y-59086438D01*
X105654433Y-58991200D01*
X105749671Y-58943580D01*
X105940147Y-58943580D01*
X106035385Y-58991200D01*
X106130623Y-59086438D01*
X106178242Y-59276914D01*
X106178242Y-59610247D01*
X106130623Y-59800723D01*
X106035385Y-59895961D01*
X105940147Y-59943580D01*
X105749671Y-59943580D01*
X107035385Y-59276914D02*
X107035385Y-59943580D01*
X106797290Y-58895961D02*
X106559195Y-59610247D01*
X107178242Y-59610247D01*
%TO.C,R1*%
X92797333Y-79700380D02*
X92464000Y-79224190D01*
X92225904Y-79700380D02*
X92225904Y-78700380D01*
X92606857Y-78700380D01*
X92702095Y-78748000D01*
X92749714Y-78795619D01*
X92797333Y-78890857D01*
X92797333Y-79033714D01*
X92749714Y-79128952D01*
X92702095Y-79176571D01*
X92606857Y-79224190D01*
X92225904Y-79224190D01*
X93749714Y-79700380D02*
X93178285Y-79700380D01*
X93464000Y-79700380D02*
X93464000Y-78700380D01*
X93368761Y-78843238D01*
X93273523Y-78938476D01*
X93178285Y-78986095D01*
%TO.C,R2*%
X92146380Y-84240666D02*
X91670190Y-84574000D01*
X92146380Y-84812095D02*
X91146380Y-84812095D01*
X91146380Y-84431142D01*
X91194000Y-84335904D01*
X91241619Y-84288285D01*
X91336857Y-84240666D01*
X91479714Y-84240666D01*
X91574952Y-84288285D01*
X91622571Y-84335904D01*
X91670190Y-84431142D01*
X91670190Y-84812095D01*
X91241619Y-83859714D02*
X91194000Y-83812095D01*
X91146380Y-83716857D01*
X91146380Y-83478761D01*
X91194000Y-83383523D01*
X91241619Y-83335904D01*
X91336857Y-83288285D01*
X91432095Y-83288285D01*
X91574952Y-83335904D01*
X92146380Y-83907333D01*
X92146380Y-83288285D01*
%TO.C,R3*%
X122943333Y-104924380D02*
X122610000Y-104448190D01*
X122371904Y-104924380D02*
X122371904Y-103924380D01*
X122752857Y-103924380D01*
X122848095Y-103972000D01*
X122895714Y-104019619D01*
X122943333Y-104114857D01*
X122943333Y-104257714D01*
X122895714Y-104352952D01*
X122848095Y-104400571D01*
X122752857Y-104448190D01*
X122371904Y-104448190D01*
X123276666Y-103924380D02*
X123895714Y-103924380D01*
X123562380Y-104305333D01*
X123705238Y-104305333D01*
X123800476Y-104352952D01*
X123848095Y-104400571D01*
X123895714Y-104495809D01*
X123895714Y-104733904D01*
X123848095Y-104829142D01*
X123800476Y-104876761D01*
X123705238Y-104924380D01*
X123419523Y-104924380D01*
X123324285Y-104876761D01*
X123276666Y-104829142D01*
%TO.C,R4*%
X118039880Y-66845466D02*
X117563690Y-67178800D01*
X118039880Y-67416895D02*
X117039880Y-67416895D01*
X117039880Y-67035942D01*
X117087500Y-66940704D01*
X117135119Y-66893085D01*
X117230357Y-66845466D01*
X117373214Y-66845466D01*
X117468452Y-66893085D01*
X117516071Y-66940704D01*
X117563690Y-67035942D01*
X117563690Y-67416895D01*
X117373214Y-65988323D02*
X118039880Y-65988323D01*
X116992261Y-66226419D02*
X117706547Y-66464514D01*
X117706547Y-65845466D01*
%TO.C,R5*%
X113213880Y-66888666D02*
X112737690Y-67222000D01*
X113213880Y-67460095D02*
X112213880Y-67460095D01*
X112213880Y-67079142D01*
X112261500Y-66983904D01*
X112309119Y-66936285D01*
X112404357Y-66888666D01*
X112547214Y-66888666D01*
X112642452Y-66936285D01*
X112690071Y-66983904D01*
X112737690Y-67079142D01*
X112737690Y-67460095D01*
X112213880Y-65983904D02*
X112213880Y-66460095D01*
X112690071Y-66507714D01*
X112642452Y-66460095D01*
X112594833Y-66364857D01*
X112594833Y-66126761D01*
X112642452Y-66031523D01*
X112690071Y-65983904D01*
X112785309Y-65936285D01*
X113023404Y-65936285D01*
X113118642Y-65983904D01*
X113166261Y-66031523D01*
X113213880Y-66126761D01*
X113213880Y-66364857D01*
X113166261Y-66460095D01*
X113118642Y-66507714D01*
%TO.C,R6*%
X108364280Y-66816266D02*
X107888090Y-67149600D01*
X108364280Y-67387695D02*
X107364280Y-67387695D01*
X107364280Y-67006742D01*
X107411900Y-66911504D01*
X107459519Y-66863885D01*
X107554757Y-66816266D01*
X107697614Y-66816266D01*
X107792852Y-66863885D01*
X107840471Y-66911504D01*
X107888090Y-67006742D01*
X107888090Y-67387695D01*
X107364280Y-65959123D02*
X107364280Y-66149600D01*
X107411900Y-66244838D01*
X107459519Y-66292457D01*
X107602376Y-66387695D01*
X107792852Y-66435314D01*
X108173804Y-66435314D01*
X108269042Y-66387695D01*
X108316661Y-66340076D01*
X108364280Y-66244838D01*
X108364280Y-66054361D01*
X108316661Y-65959123D01*
X108269042Y-65911504D01*
X108173804Y-65863885D01*
X107935709Y-65863885D01*
X107840471Y-65911504D01*
X107792852Y-65959123D01*
X107745233Y-66054361D01*
X107745233Y-66244838D01*
X107792852Y-66340076D01*
X107840471Y-66387695D01*
X107935709Y-66435314D01*
%TO.C,R7*%
X124150380Y-71477166D02*
X123674190Y-71810500D01*
X124150380Y-72048595D02*
X123150380Y-72048595D01*
X123150380Y-71667642D01*
X123198000Y-71572404D01*
X123245619Y-71524785D01*
X123340857Y-71477166D01*
X123483714Y-71477166D01*
X123578952Y-71524785D01*
X123626571Y-71572404D01*
X123674190Y-71667642D01*
X123674190Y-72048595D01*
X123150380Y-71143833D02*
X123150380Y-70477166D01*
X124150380Y-70905738D01*
%TO.C,R8*%
X124086880Y-65254166D02*
X123610690Y-65587500D01*
X124086880Y-65825595D02*
X123086880Y-65825595D01*
X123086880Y-65444642D01*
X123134500Y-65349404D01*
X123182119Y-65301785D01*
X123277357Y-65254166D01*
X123420214Y-65254166D01*
X123515452Y-65301785D01*
X123563071Y-65349404D01*
X123610690Y-65444642D01*
X123610690Y-65825595D01*
X123515452Y-64682738D02*
X123467833Y-64777976D01*
X123420214Y-64825595D01*
X123324976Y-64873214D01*
X123277357Y-64873214D01*
X123182119Y-64825595D01*
X123134500Y-64777976D01*
X123086880Y-64682738D01*
X123086880Y-64492261D01*
X123134500Y-64397023D01*
X123182119Y-64349404D01*
X123277357Y-64301785D01*
X123324976Y-64301785D01*
X123420214Y-64349404D01*
X123467833Y-64397023D01*
X123515452Y-64492261D01*
X123515452Y-64682738D01*
X123563071Y-64777976D01*
X123610690Y-64825595D01*
X123705928Y-64873214D01*
X123896404Y-64873214D01*
X123991642Y-64825595D01*
X124039261Y-64777976D01*
X124086880Y-64682738D01*
X124086880Y-64492261D01*
X124039261Y-64397023D01*
X123991642Y-64349404D01*
X123896404Y-64301785D01*
X123705928Y-64301785D01*
X123610690Y-64349404D01*
X123563071Y-64397023D01*
X123515452Y-64492261D01*
%TO.C,RV1*%
X104084380Y-83399238D02*
X103608190Y-83732571D01*
X104084380Y-83970666D02*
X103084380Y-83970666D01*
X103084380Y-83589714D01*
X103132000Y-83494476D01*
X103179619Y-83446857D01*
X103274857Y-83399238D01*
X103417714Y-83399238D01*
X103512952Y-83446857D01*
X103560571Y-83494476D01*
X103608190Y-83589714D01*
X103608190Y-83970666D01*
X103084380Y-83113523D02*
X104084380Y-82780190D01*
X103084380Y-82446857D01*
X104084380Y-81589714D02*
X104084380Y-82161142D01*
X104084380Y-81875428D02*
X103084380Y-81875428D01*
X103227238Y-81970666D01*
X103322476Y-82065904D01*
X103370095Y-82161142D01*
%TO.C,U17*%
X105706380Y-90138095D02*
X106515904Y-90138095D01*
X106611142Y-90090476D01*
X106658761Y-90042857D01*
X106706380Y-89947619D01*
X106706380Y-89757142D01*
X106658761Y-89661904D01*
X106611142Y-89614285D01*
X106515904Y-89566666D01*
X105706380Y-89566666D01*
X106706380Y-88566666D02*
X106706380Y-89138095D01*
X106706380Y-88852380D02*
X105706380Y-88852380D01*
X105849238Y-88947619D01*
X105944476Y-89042857D01*
X105992095Y-89138095D01*
X105706380Y-88233333D02*
X105706380Y-87566666D01*
X106706380Y-87995238D01*
%TO.C,D1*%
X111994681Y-97794569D02*
X112637468Y-97028524D01*
X112819860Y-97181569D01*
X112898686Y-97309874D01*
X112910425Y-97444049D01*
X112885685Y-97547614D01*
X112799728Y-97724136D01*
X112707901Y-97833571D01*
X112548987Y-97948876D01*
X112451291Y-97991223D01*
X112317116Y-98002962D01*
X112177072Y-97947614D01*
X111994681Y-97794569D01*
X113161987Y-98774055D02*
X112724247Y-98406748D01*
X112943117Y-98590401D02*
X113585904Y-97824357D01*
X113421121Y-97872574D01*
X113286947Y-97884313D01*
X113183381Y-97859573D01*
%TO.C,U16*%
X114077904Y-108672380D02*
X114077904Y-109481904D01*
X114125523Y-109577142D01*
X114173142Y-109624761D01*
X114268380Y-109672380D01*
X114458857Y-109672380D01*
X114554095Y-109624761D01*
X114601714Y-109577142D01*
X114649333Y-109481904D01*
X114649333Y-108672380D01*
X115649333Y-109672380D02*
X115077904Y-109672380D01*
X115363619Y-109672380D02*
X115363619Y-108672380D01*
X115268380Y-108815238D01*
X115173142Y-108910476D01*
X115077904Y-108958095D01*
X116506476Y-108672380D02*
X116316000Y-108672380D01*
X116220761Y-108720000D01*
X116173142Y-108767619D01*
X116077904Y-108910476D01*
X116030285Y-109100952D01*
X116030285Y-109481904D01*
X116077904Y-109577142D01*
X116125523Y-109624761D01*
X116220761Y-109672380D01*
X116411238Y-109672380D01*
X116506476Y-109624761D01*
X116554095Y-109577142D01*
X116601714Y-109481904D01*
X116601714Y-109243809D01*
X116554095Y-109148571D01*
X116506476Y-109100952D01*
X116411238Y-109053333D01*
X116220761Y-109053333D01*
X116125523Y-109100952D01*
X116077904Y-109148571D01*
X116030285Y-109243809D01*
%TO.C,SW1*%
X128524166Y-63650761D02*
X128667023Y-63698380D01*
X128905119Y-63698380D01*
X129000357Y-63650761D01*
X129047976Y-63603142D01*
X129095595Y-63507904D01*
X129095595Y-63412666D01*
X129047976Y-63317428D01*
X129000357Y-63269809D01*
X128905119Y-63222190D01*
X128714642Y-63174571D01*
X128619404Y-63126952D01*
X128571785Y-63079333D01*
X128524166Y-62984095D01*
X128524166Y-62888857D01*
X128571785Y-62793619D01*
X128619404Y-62746000D01*
X128714642Y-62698380D01*
X128952738Y-62698380D01*
X129095595Y-62746000D01*
X129428928Y-62698380D02*
X129667023Y-63698380D01*
X129857500Y-62984095D01*
X130047976Y-63698380D01*
X130286071Y-62698380D01*
X131190833Y-63698380D02*
X130619404Y-63698380D01*
X130905119Y-63698380D02*
X130905119Y-62698380D01*
X130809880Y-62841238D01*
X130714642Y-62936476D01*
X130619404Y-62984095D01*
%TO.C,U15*%
X138969904Y-96867380D02*
X138969904Y-97676904D01*
X139017523Y-97772142D01*
X139065142Y-97819761D01*
X139160380Y-97867380D01*
X139350857Y-97867380D01*
X139446095Y-97819761D01*
X139493714Y-97772142D01*
X139541333Y-97676904D01*
X139541333Y-96867380D01*
X140541333Y-97867380D02*
X139969904Y-97867380D01*
X140255619Y-97867380D02*
X140255619Y-96867380D01*
X140160380Y-97010238D01*
X140065142Y-97105476D01*
X139969904Y-97153095D01*
X141446095Y-96867380D02*
X140969904Y-96867380D01*
X140922285Y-97343571D01*
X140969904Y-97295952D01*
X141065142Y-97248333D01*
X141303238Y-97248333D01*
X141398476Y-97295952D01*
X141446095Y-97343571D01*
X141493714Y-97438809D01*
X141493714Y-97676904D01*
X141446095Y-97772142D01*
X141398476Y-97819761D01*
X141303238Y-97867380D01*
X141065142Y-97867380D01*
X140969904Y-97819761D01*
X140922285Y-97772142D01*
%TO.C,Encoder*%
X117264704Y-85797971D02*
X117598038Y-85797971D01*
X117740895Y-86321780D02*
X117264704Y-86321780D01*
X117264704Y-85321780D01*
X117740895Y-85321780D01*
X118169466Y-85655114D02*
X118169466Y-86321780D01*
X118169466Y-85750352D02*
X118217085Y-85702733D01*
X118312323Y-85655114D01*
X118455180Y-85655114D01*
X118550419Y-85702733D01*
X118598038Y-85797971D01*
X118598038Y-86321780D01*
X119502800Y-86274161D02*
X119407561Y-86321780D01*
X119217085Y-86321780D01*
X119121847Y-86274161D01*
X119074228Y-86226542D01*
X119026609Y-86131304D01*
X119026609Y-85845590D01*
X119074228Y-85750352D01*
X119121847Y-85702733D01*
X119217085Y-85655114D01*
X119407561Y-85655114D01*
X119502800Y-85702733D01*
X120074228Y-86321780D02*
X119978990Y-86274161D01*
X119931371Y-86226542D01*
X119883752Y-86131304D01*
X119883752Y-85845590D01*
X119931371Y-85750352D01*
X119978990Y-85702733D01*
X120074228Y-85655114D01*
X120217085Y-85655114D01*
X120312323Y-85702733D01*
X120359942Y-85750352D01*
X120407561Y-85845590D01*
X120407561Y-86131304D01*
X120359942Y-86226542D01*
X120312323Y-86274161D01*
X120217085Y-86321780D01*
X120074228Y-86321780D01*
X121264704Y-86321780D02*
X121264704Y-85321780D01*
X121264704Y-86274161D02*
X121169466Y-86321780D01*
X120978990Y-86321780D01*
X120883752Y-86274161D01*
X120836133Y-86226542D01*
X120788514Y-86131304D01*
X120788514Y-85845590D01*
X120836133Y-85750352D01*
X120883752Y-85702733D01*
X120978990Y-85655114D01*
X121169466Y-85655114D01*
X121264704Y-85702733D01*
X122121847Y-86274161D02*
X122026609Y-86321780D01*
X121836133Y-86321780D01*
X121740895Y-86274161D01*
X121693276Y-86178923D01*
X121693276Y-85797971D01*
X121740895Y-85702733D01*
X121836133Y-85655114D01*
X122026609Y-85655114D01*
X122121847Y-85702733D01*
X122169466Y-85797971D01*
X122169466Y-85893209D01*
X121693276Y-85988447D01*
X122598038Y-86321780D02*
X122598038Y-85655114D01*
X122598038Y-85845590D02*
X122645657Y-85750352D01*
X122693276Y-85702733D01*
X122788514Y-85655114D01*
X122883752Y-85655114D01*
%TO.C,J1*%
X98448574Y-105826677D02*
X98995749Y-106285811D01*
X99074575Y-106414116D01*
X99086314Y-106548291D01*
X99030965Y-106688334D01*
X98969747Y-106761291D01*
X99857406Y-105703420D02*
X99490099Y-106141160D01*
X99673753Y-105922290D02*
X98907708Y-105279502D01*
X98955925Y-105444286D01*
X98967664Y-105578460D01*
X98942925Y-105682026D01*
%TO.C,J2*%
X138584650Y-109776762D02*
X139043784Y-110323936D01*
X139099132Y-110463980D01*
X139087393Y-110598154D01*
X139008567Y-110726460D01*
X138935611Y-110787677D01*
X138974172Y-109574238D02*
X138980042Y-109507150D01*
X139022389Y-109409454D01*
X139204781Y-109256410D01*
X139308346Y-109231670D01*
X139375434Y-109237539D01*
X139473130Y-109279887D01*
X139534348Y-109352844D01*
X139589696Y-109492888D01*
X139519264Y-110297934D01*
X139993482Y-109900018D01*
%TO.C,C13*%
X139819142Y-68302142D02*
X139771523Y-68349761D01*
X139628666Y-68397380D01*
X139533428Y-68397380D01*
X139390571Y-68349761D01*
X139295333Y-68254523D01*
X139247714Y-68159285D01*
X139200095Y-67968809D01*
X139200095Y-67825952D01*
X139247714Y-67635476D01*
X139295333Y-67540238D01*
X139390571Y-67445000D01*
X139533428Y-67397380D01*
X139628666Y-67397380D01*
X139771523Y-67445000D01*
X139819142Y-67492619D01*
X140771523Y-68397380D02*
X140200095Y-68397380D01*
X140485809Y-68397380D02*
X140485809Y-67397380D01*
X140390571Y-67540238D01*
X140295333Y-67635476D01*
X140200095Y-67683095D01*
X141104857Y-67397380D02*
X141723904Y-67397380D01*
X141390571Y-67778333D01*
X141533428Y-67778333D01*
X141628666Y-67825952D01*
X141676285Y-67873571D01*
X141723904Y-67968809D01*
X141723904Y-68206904D01*
X141676285Y-68302142D01*
X141628666Y-68349761D01*
X141533428Y-68397380D01*
X141247714Y-68397380D01*
X141152476Y-68349761D01*
X141104857Y-68302142D01*
%TO.C,C18*%
X132199142Y-77192142D02*
X132151523Y-77239761D01*
X132008666Y-77287380D01*
X131913428Y-77287380D01*
X131770571Y-77239761D01*
X131675333Y-77144523D01*
X131627714Y-77049285D01*
X131580095Y-76858809D01*
X131580095Y-76715952D01*
X131627714Y-76525476D01*
X131675333Y-76430238D01*
X131770571Y-76335000D01*
X131913428Y-76287380D01*
X132008666Y-76287380D01*
X132151523Y-76335000D01*
X132199142Y-76382619D01*
X133151523Y-77287380D02*
X132580095Y-77287380D01*
X132865809Y-77287380D02*
X132865809Y-76287380D01*
X132770571Y-76430238D01*
X132675333Y-76525476D01*
X132580095Y-76573095D01*
X133722952Y-76715952D02*
X133627714Y-76668333D01*
X133580095Y-76620714D01*
X133532476Y-76525476D01*
X133532476Y-76477857D01*
X133580095Y-76382619D01*
X133627714Y-76335000D01*
X133722952Y-76287380D01*
X133913428Y-76287380D01*
X134008666Y-76335000D01*
X134056285Y-76382619D01*
X134103904Y-76477857D01*
X134103904Y-76525476D01*
X134056285Y-76620714D01*
X134008666Y-76668333D01*
X133913428Y-76715952D01*
X133722952Y-76715952D01*
X133627714Y-76763571D01*
X133580095Y-76811190D01*
X133532476Y-76906428D01*
X133532476Y-77096904D01*
X133580095Y-77192142D01*
X133627714Y-77239761D01*
X133722952Y-77287380D01*
X133913428Y-77287380D01*
X134008666Y-77239761D01*
X134056285Y-77192142D01*
X134103904Y-77096904D01*
X134103904Y-76906428D01*
X134056285Y-76811190D01*
X134008666Y-76763571D01*
X133913428Y-76715952D01*
%TD*%
M02*
