%TF.GenerationSoftware,KiCad,Pcbnew,(5.1.9)-1*%
%TF.CreationDate,2021-03-28T17:18:04-04:00*%
%TF.ProjectId,nogasm,6e6f6761-736d-42e6-9b69-6361645f7063,rev?*%
%TF.SameCoordinates,Original*%
%TF.FileFunction,Copper,L2,Bot*%
%TF.FilePolarity,Positive*%
%FSLAX46Y46*%
G04 Gerber Fmt 4.6, Leading zero omitted, Abs format (unit mm)*
G04 Created by KiCad (PCBNEW (5.1.9)-1) date 2021-03-28 17:18:04*
%MOMM*%
%LPD*%
G01*
G04 APERTURE LIST*
%TA.AperFunction,ComponentPad*%
%ADD10C,1.600000*%
%TD*%
%TA.AperFunction,ComponentPad*%
%ADD11R,1.600000X1.600000*%
%TD*%
%TA.AperFunction,ComponentPad*%
%ADD12R,1.800000X1.800000*%
%TD*%
%TA.AperFunction,ComponentPad*%
%ADD13O,1.800000X1.800000*%
%TD*%
%TA.AperFunction,ComponentPad*%
%ADD14C,1.525000*%
%TD*%
%TA.AperFunction,ComponentPad*%
%ADD15C,2.800000*%
%TD*%
%TA.AperFunction,ViaPad*%
%ADD16C,0.600000*%
%TD*%
%TA.AperFunction,Conductor*%
%ADD17C,0.400000*%
%TD*%
%TA.AperFunction,Conductor*%
%ADD18C,0.250000*%
%TD*%
%TA.AperFunction,Conductor*%
%ADD19C,0.254000*%
%TD*%
%TA.AperFunction,Conductor*%
%ADD20C,0.100000*%
%TD*%
G04 APERTURE END LIST*
D10*
%TO.P,U14,17*%
%TO.N,Net-(U14-Pad17)*%
X136906000Y-66040000D03*
%TO.P,U14,18*%
%TO.N,Net-(U14-Pad18)*%
X136906000Y-68580000D03*
%TO.P,U14,19*%
%TO.N,Net-(U14-Pad19)*%
X136906000Y-71120000D03*
%TO.P,U14,20*%
%TO.N,Net-(U14-Pad20)*%
X136906000Y-73660000D03*
%TO.P,U14,16*%
%TO.N,Net-(U14-Pad16)*%
X136906000Y-63500000D03*
%TO.P,U14,15*%
%TO.N,/5VIO*%
X136906000Y-60960000D03*
%TO.P,U14,14*%
%TO.N,Net-(SW1-Pad5)*%
X136906000Y-58420000D03*
%TO.P,U14,21*%
%TO.N,Net-(U14-Pad21)*%
X134366000Y-73660000D03*
%TO.P,U14,22*%
%TO.N,/V_PRES*%
X131826000Y-73660000D03*
%TO.P,U14,23*%
%TO.N,Net-(U14-Pad23)*%
X129286000Y-73660000D03*
%TO.P,U14,24*%
%TO.N,Net-(U14-Pad24)*%
X126746000Y-73660000D03*
%TO.P,U14,25*%
%TO.N,Net-(U14-Pad25)*%
X124206000Y-73660000D03*
%TO.P,U14,26*%
%TO.N,Net-(U14-Pad26)*%
X121666000Y-73660000D03*
%TO.P,U14,27*%
%TO.N,Net-(U14-Pad27)*%
X119126000Y-73660000D03*
%TO.P,U14,28*%
%TO.N,Net-(U14-Pad28)*%
X116586000Y-73660000D03*
%TO.P,U14,29*%
%TO.N,Net-(U14-Pad29)*%
X114046000Y-73660000D03*
%TO.P,U14,30*%
%TO.N,Net-(R1-Pad2)*%
X111506000Y-73660000D03*
%TO.P,U14,31*%
%TO.N,+3V3*%
X108966000Y-73660000D03*
%TO.P,U14,32*%
%TO.N,GND*%
X106426000Y-73660000D03*
%TO.P,U14,33*%
%TO.N,+5V*%
X103886000Y-73660000D03*
%TO.P,U14,34*%
%TO.N,Net-(U14-Pad34)*%
X106426000Y-71120000D03*
%TO.P,U14,35*%
%TO.N,Net-(U14-Pad35)*%
X111506000Y-71120000D03*
%TO.P,U14,36*%
%TO.N,Net-(U14-Pad36)*%
X114046000Y-71120000D03*
%TO.P,U14,37*%
%TO.N,Net-(U14-Pad37)*%
X116586000Y-71120000D03*
%TO.P,U14,13*%
%TO.N,Net-(SW1-Pad6)*%
X134366000Y-58420000D03*
%TO.P,U14,12*%
%TO.N,Net-(SW1-Pad7)*%
X131826000Y-58420000D03*
%TO.P,U14,11*%
%TO.N,Net-(SW1-Pad8)*%
X129286000Y-58420000D03*
%TO.P,U14,10*%
%TO.N,/ENC_B*%
X126746000Y-58420000D03*
%TO.P,U14,9*%
%TO.N,/ENC_A*%
X124206000Y-58420000D03*
%TO.P,U14,8*%
%TO.N,/ENC_SW*%
X121666000Y-58420000D03*
%TO.P,U14,7*%
%TO.N,/ENC_Rd*%
X119126000Y-58420000D03*
%TO.P,U14,6*%
%TO.N,/ENC_Gr*%
X116586000Y-58420000D03*
%TO.P,U14,5*%
%TO.N,/ENC_Bl*%
X114046000Y-58420000D03*
%TO.P,U14,4*%
%TO.N,Net-(U14-Pad4)*%
X111506000Y-58420000D03*
%TO.P,U14,3*%
%TO.N,Net-(U14-Pad3)*%
X108966000Y-58420000D03*
%TO.P,U14,2*%
%TO.N,Net-(U14-Pad2)*%
X106426000Y-58420000D03*
D11*
%TO.P,U14,1*%
%TO.N,Net-(U14-Pad1)*%
X103886000Y-58420000D03*
%TD*%
D12*
%TO.P,U15,1*%
%TO.N,+12V*%
X142748000Y-76835000D03*
D13*
%TO.P,U15,2*%
%TO.N,GND*%
X140208000Y-76835000D03*
%TO.P,U15,3*%
%TO.N,+5V*%
X137668000Y-76835000D03*
%TD*%
D14*
%TO.P,Encoder,3*%
%TO.N,Net-(R7-Pad1)*%
X120002800Y-77876400D03*
%TO.P,Encoder,4*%
%TO.N,Net-(Q4-Pad3)*%
X122002800Y-77876400D03*
%TO.P,Encoder,2*%
%TO.N,Net-(Q3-Pad3)*%
X118002800Y-77876400D03*
%TO.P,Encoder,1*%
%TO.N,Net-(Q2-Pad3)*%
X116002800Y-77876400D03*
%TO.P,Encoder,5*%
%TO.N,+5V*%
X124002800Y-77876400D03*
D10*
%TO.P,Encoder,C*%
%TO.N,GND*%
X120002800Y-92376400D03*
%TO.P,Encoder,B*%
%TO.N,/ENC_B*%
X122502800Y-92376400D03*
%TO.P,Encoder,A*%
%TO.N,/ENC_A*%
X117502800Y-92376400D03*
D15*
%TO.P,Encoder,~*%
%TO.N,N/C*%
X125590800Y-84988400D03*
X114414800Y-84988400D03*
%TD*%
%TO.P,J1,1*%
%TO.N,+12V*%
%TA.AperFunction,ComponentPad*%
G36*
G01*
X103099614Y-106310066D02*
X103099614Y-106310066D01*
G75*
G02*
X105212862Y-106125180I1149067J-964181D01*
G01*
X105212862Y-106125180D01*
G75*
G02*
X105397748Y-108238428I-964181J-1149067D01*
G01*
X105397748Y-108238428D01*
G75*
G02*
X103284500Y-108423314I-1149067J964181D01*
G01*
X103284500Y-108423314D01*
G75*
G02*
X103099614Y-106310066I964181J1149067D01*
G01*
G37*
%TD.AperFunction*%
%TO.P,J1,2*%
%TO.N,Net-(D1-Pad2)*%
%TA.AperFunction,ComponentPad*%
G36*
G01*
X99834252Y-110201572D02*
X99834252Y-110201572D01*
G75*
G02*
X101947500Y-110016686I1149067J-964181D01*
G01*
X101947500Y-110016686D01*
G75*
G02*
X102132386Y-112129934I-964181J-1149067D01*
G01*
X102132386Y-112129934D01*
G75*
G02*
X100019138Y-112314820I-1149067J964181D01*
G01*
X100019138Y-112314820D01*
G75*
G02*
X99834252Y-110201572I964181J1149067D01*
G01*
G37*
%TD.AperFunction*%
%TO.P,J1,3*%
%TA.AperFunction,ComponentPad*%
G36*
G01*
X103412686Y-109888500D02*
X103412686Y-109888500D01*
G75*
G02*
X105525934Y-109703614I1149067J-964181D01*
G01*
X105525934Y-109703614D01*
G75*
G02*
X105710820Y-111816862I-964181J-1149067D01*
G01*
X105710820Y-111816862D01*
G75*
G02*
X103597572Y-112001748I-1149067J964181D01*
G01*
X103597572Y-112001748D01*
G75*
G02*
X103412686Y-109888500I964181J1149067D01*
G01*
G37*
%TD.AperFunction*%
%TD*%
%TO.P,J2,1*%
%TO.N,+12V*%
%TA.AperFunction,ComponentPad*%
G36*
G01*
X132763105Y-105162121D02*
X132763105Y-105162121D01*
G75*
G02*
X132994211Y-102520561I1436333J1205227D01*
G01*
X132994211Y-102520561D01*
G75*
G02*
X135635771Y-102751667I1205227J-1436333D01*
G01*
X135635771Y-102751667D01*
G75*
G02*
X135404665Y-105393227I-1436333J-1205227D01*
G01*
X135404665Y-105393227D01*
G75*
G02*
X132763105Y-105162121I-1205227J1436333D01*
G01*
G37*
%TD.AperFunction*%
%TO.P,J2,2*%
%TO.N,GND*%
%TA.AperFunction,ComponentPad*%
G36*
G01*
X136028467Y-109053627D02*
X136028467Y-109053627D01*
G75*
G02*
X136259573Y-106412067I1436333J1205227D01*
G01*
X136259573Y-106412067D01*
G75*
G02*
X138901133Y-106643173I1205227J-1436333D01*
G01*
X138901133Y-106643173D01*
G75*
G02*
X138670027Y-109284733I-1436333J-1205227D01*
G01*
X138670027Y-109284733D01*
G75*
G02*
X136028467Y-109053627I-1205227J1436333D01*
G01*
G37*
%TD.AperFunction*%
%TO.P,J2,3*%
%TA.AperFunction,ComponentPad*%
G36*
G01*
X140928852Y-104073619D02*
X140928852Y-104073619D01*
G75*
G02*
X138287292Y-103842513I-1205227J1436333D01*
G01*
X138287292Y-103842513D01*
G75*
G02*
X138518398Y-101200953I1436333J1205227D01*
G01*
X138518398Y-101200953D01*
G75*
G02*
X141159958Y-101432059I1205227J-1436333D01*
G01*
X141159958Y-101432059D01*
G75*
G02*
X140928852Y-104073619I-1436333J-1205227D01*
G01*
G37*
%TD.AperFunction*%
%TD*%
D16*
%TO.N,+5V*%
X108204000Y-53340000D03*
X96782405Y-57987897D03*
X135382000Y-56642000D03*
X139192000Y-61976000D03*
%TO.N,GND*%
X153670000Y-73914000D03*
X86360000Y-91186000D03*
X86360000Y-79248000D03*
X153162000Y-91186000D03*
X150876000Y-67564000D03*
X146558000Y-65024000D03*
X119634000Y-49276000D03*
X142240000Y-59944000D03*
X131318000Y-53340000D03*
X124714000Y-54356000D03*
X90424000Y-68326000D03*
X93726000Y-62484000D03*
X140081000Y-66802000D03*
%TO.N,+3V3*%
X114554000Y-99568000D03*
X109220002Y-93472000D03*
%TO.N,Net-(C21-Pad1)*%
X115854346Y-99653083D03*
X111315182Y-93844209D03*
%TO.N,Net-(Q2-Pad3)*%
X117963641Y-67087194D03*
%TO.N,Net-(Q4-Pad3)*%
X108458000Y-63754000D03*
%TO.N,/ENC_SW*%
X120053650Y-64612146D03*
%TO.N,/5VIO*%
X95994618Y-103595418D03*
%TO.N,Net-(U6-Pad2)*%
X115824000Y-53340000D03*
X114554000Y-50038000D03*
%TO.N,/V_PRES*%
X106172000Y-90170000D03*
%TO.N,Net-(U7-Pad2)*%
X128016000Y-52070000D03*
X120142000Y-51054000D03*
%TD*%
D17*
%TO.N,+5V*%
X96782405Y-57987897D02*
X101430302Y-53340000D01*
X101430302Y-53340000D02*
X108204000Y-53340000D01*
X139192000Y-61976000D02*
X139192000Y-58781998D01*
X137052002Y-56642000D02*
X135382000Y-56642000D01*
X139192000Y-58781998D02*
X137052002Y-56642000D01*
D18*
%TO.N,GND*%
X153670000Y-73914000D02*
X150876000Y-71120000D01*
X150876000Y-71120000D02*
X150876000Y-67564000D01*
X86360000Y-91186000D02*
X86360000Y-79248000D01*
X86360000Y-79248000D02*
X86360000Y-72390000D01*
X86360000Y-72390000D02*
X90424000Y-68326000D01*
X153162000Y-91186000D02*
X151174911Y-91186000D01*
X151174911Y-91186000D02*
X139723625Y-102637286D01*
X150876000Y-67564000D02*
X149098000Y-67564000D01*
X149098000Y-67564000D02*
X146558000Y-65024000D01*
X146558000Y-65024000D02*
X142240000Y-60706000D01*
X142240000Y-60706000D02*
X142240000Y-59944000D01*
X119634000Y-49276000D02*
X119334001Y-49575999D01*
X119334001Y-49575999D02*
X119334001Y-51171003D01*
X119334001Y-51171003D02*
X122518998Y-54356000D01*
X122518998Y-54356000D02*
X124714000Y-54356000D01*
X101854000Y-54356000D02*
X93726000Y-62484000D01*
X124714000Y-54356000D02*
X101854000Y-54356000D01*
X142240000Y-59944000D02*
X135636000Y-53340000D01*
X135636000Y-53340000D02*
X131318000Y-53340000D01*
X131318000Y-53340000D02*
X125730000Y-53340000D01*
X125730000Y-53340000D02*
X124714000Y-54356000D01*
X90424000Y-68326000D02*
X101092000Y-68326000D01*
X101092000Y-68326000D02*
X106426000Y-73660000D01*
X93726000Y-62484000D02*
X95250000Y-62484000D01*
X95250000Y-62484000D02*
X106426000Y-73660000D01*
X106390742Y-73695258D02*
X106426000Y-73660000D01*
X140081000Y-66802000D02*
X140081000Y-76708000D01*
X140081000Y-76708000D02*
X140208000Y-76835000D01*
D17*
%TO.N,+12V*%
X142875000Y-76708000D02*
X142748000Y-76835000D01*
%TO.N,+3V3*%
X109220002Y-93472000D02*
X109220002Y-94234002D01*
X109220002Y-94234002D02*
X114554000Y-99568000D01*
X109220002Y-93472000D02*
X107364833Y-93472000D01*
X105343277Y-91450444D02*
X105343277Y-82321286D01*
X107364833Y-93472000D02*
X105343277Y-91450444D01*
X109770035Y-77894528D02*
X109770035Y-74464035D01*
X109770035Y-74464035D02*
X108966000Y-73660000D01*
X105343277Y-82321286D02*
X109770035Y-77894528D01*
D18*
X108712000Y-73914000D02*
X108966000Y-73660000D01*
%TO.N,/ENC_B*%
X132969000Y-59753500D02*
X128079500Y-59753500D01*
X135609441Y-62393941D02*
X132969000Y-59753500D01*
X128079500Y-59753500D02*
X126746000Y-58420000D01*
X135609441Y-79278559D02*
X135609441Y-62393941D01*
X122500000Y-92388000D02*
X135609441Y-79278559D01*
%TO.N,/ENC_A*%
X117500000Y-92388000D02*
X119361989Y-90526011D01*
X119361989Y-90526011D02*
X123652775Y-90526011D01*
X123652775Y-90526011D02*
X133032500Y-81146286D01*
X133032500Y-81146286D02*
X133032500Y-61016094D01*
X133032500Y-61016094D02*
X132219915Y-60203509D01*
X132219915Y-60203509D02*
X127893099Y-60203509D01*
X127893099Y-60203509D02*
X127234591Y-59545001D01*
X127234591Y-59545001D02*
X126205999Y-59545001D01*
X126205999Y-59545001D02*
X125880997Y-59219999D01*
X125880997Y-59219999D02*
X125005999Y-59219999D01*
X125005999Y-59219999D02*
X124206000Y-58420000D01*
%TO.N,Net-(C21-Pad1)*%
X115854346Y-98383373D02*
X115854346Y-99653083D01*
X111315182Y-93844209D02*
X115854346Y-98383373D01*
%TO.N,Net-(Q2-Pad3)*%
X116002800Y-77876400D02*
X117971172Y-75908028D01*
X117971172Y-75908028D02*
X117971172Y-67518989D01*
X117971172Y-67518989D02*
X117963641Y-67511458D01*
X117963641Y-67511458D02*
X117963641Y-67087194D01*
%TO.N,Net-(Q4-Pad3)*%
X120251001Y-67566381D02*
X116438620Y-63754000D01*
X120251001Y-76124601D02*
X120251001Y-67566381D01*
X116438620Y-63754000D02*
X108458000Y-63754000D01*
X122002800Y-77876400D02*
X120251001Y-76124601D01*
%TO.N,Net-(R1-Pad2)*%
X111934000Y-74088000D02*
X111506000Y-73660000D01*
%TO.N,/ENC_SW*%
X120053650Y-60032350D02*
X120053650Y-64612146D01*
X121666000Y-58420000D02*
X120053650Y-60032350D01*
%TO.N,/5VIO*%
X112948784Y-103595418D02*
X95994618Y-103595418D01*
X136342999Y-75888003D02*
X136342999Y-80201203D01*
X136906000Y-60960000D02*
X138031001Y-62085001D01*
X136342999Y-80201203D02*
X112948784Y-103595418D01*
X138031001Y-74200001D02*
X136342999Y-75888003D01*
X138031001Y-62085001D02*
X138031001Y-74200001D01*
%TO.N,Net-(U6-Pad2)*%
X114554000Y-50038000D02*
X114554000Y-52070000D01*
X114554000Y-52070000D02*
X115824000Y-53340000D01*
%TO.N,/ENC_Bl*%
X114046000Y-58420000D02*
X114808000Y-58420000D01*
%TO.N,/V_PRES*%
X109442084Y-79232608D02*
X124338048Y-79232608D01*
X124338048Y-79232608D02*
X128785655Y-74785001D01*
X130411001Y-73660000D02*
X131826000Y-73660000D01*
X106172000Y-90170000D02*
X106247384Y-90094616D01*
X106247384Y-90094616D02*
X106247384Y-82427308D01*
X106247384Y-82427308D02*
X109442084Y-79232608D01*
X128785655Y-74785001D02*
X129826001Y-74785001D01*
X129826001Y-74785001D02*
X130411001Y-74200001D01*
X130411001Y-74200001D02*
X130411001Y-73660000D01*
%TO.N,Net-(U7-Pad2)*%
X120142000Y-51054000D02*
X127000000Y-51054000D01*
X127000000Y-51054000D02*
X128016000Y-52070000D01*
%TD*%
D19*
%TO.N,GND*%
X121703914Y-47994561D02*
X124117728Y-48190434D01*
X126513801Y-48542141D01*
X128882084Y-49048207D01*
X131212642Y-49706511D01*
X133495700Y-50514291D01*
X135721683Y-51468159D01*
X137881254Y-52564114D01*
X139965355Y-53797559D01*
X141965245Y-55163321D01*
X143872535Y-56655671D01*
X145679225Y-58268350D01*
X147377739Y-59994594D01*
X148960950Y-61827162D01*
X150422220Y-63758368D01*
X151755418Y-65780111D01*
X152954954Y-67883912D01*
X154015795Y-70060947D01*
X154933492Y-72302084D01*
X155704197Y-74597924D01*
X156324675Y-76938836D01*
X156792326Y-79315002D01*
X157105187Y-81716457D01*
X157261947Y-84133126D01*
X157261947Y-86554874D01*
X157105187Y-88971543D01*
X156792326Y-91372998D01*
X156324675Y-93749164D01*
X155704197Y-96090076D01*
X154933492Y-98385916D01*
X154015795Y-100627053D01*
X152954954Y-102804088D01*
X151755418Y-104907889D01*
X150422220Y-106929632D01*
X148960950Y-108860838D01*
X147377739Y-110693406D01*
X145679225Y-112419650D01*
X143872535Y-114032329D01*
X141965245Y-115524679D01*
X139965355Y-116890441D01*
X137881254Y-118123886D01*
X135721683Y-119219841D01*
X133495700Y-120173709D01*
X131212642Y-120981489D01*
X128882084Y-121639793D01*
X126513801Y-122145859D01*
X124117728Y-122497566D01*
X121703914Y-122693439D01*
X119282484Y-122732654D01*
X116863593Y-122615049D01*
X114457387Y-122341115D01*
X112073960Y-121912003D01*
X109723307Y-121329513D01*
X107415288Y-120596086D01*
X105159584Y-119714800D01*
X102965657Y-118689351D01*
X100842707Y-117524039D01*
X98799641Y-116223754D01*
X96845026Y-114793948D01*
X94987061Y-113240619D01*
X93233540Y-111570282D01*
X92666601Y-110955474D01*
X98848319Y-110955474D01*
X98848319Y-111376032D01*
X98930366Y-111788509D01*
X99091307Y-112177055D01*
X99324956Y-112526736D01*
X99622336Y-112824116D01*
X99972017Y-113057765D01*
X100360563Y-113218706D01*
X100773040Y-113300753D01*
X101193598Y-113300753D01*
X101606075Y-113218706D01*
X101994621Y-113057765D01*
X102344302Y-112824116D01*
X102641682Y-112526736D01*
X102875331Y-112177055D01*
X102876708Y-112173731D01*
X102903390Y-112213664D01*
X103200770Y-112511044D01*
X103550451Y-112744693D01*
X103938997Y-112905634D01*
X104351474Y-112987681D01*
X104772032Y-112987681D01*
X105184509Y-112905634D01*
X105573055Y-112744693D01*
X105922736Y-112511044D01*
X106220116Y-112213664D01*
X106453765Y-111863983D01*
X106614706Y-111475437D01*
X106696753Y-111062960D01*
X106696753Y-110642402D01*
X106614706Y-110229925D01*
X106453765Y-109841379D01*
X106220116Y-109491698D01*
X106183254Y-109454836D01*
X135747901Y-109454836D01*
X135916049Y-109823614D01*
X136280618Y-110061502D01*
X136735126Y-110250001D01*
X137217676Y-110346207D01*
X137709722Y-110346425D01*
X138192357Y-110250644D01*
X138647031Y-110062546D01*
X138876802Y-109728735D01*
X137449146Y-108027322D01*
X135747901Y-109454836D01*
X106183254Y-109454836D01*
X105922736Y-109194318D01*
X105573055Y-108960669D01*
X105569731Y-108959292D01*
X105609664Y-108932610D01*
X105907044Y-108635230D01*
X106140693Y-108285549D01*
X106301634Y-107897003D01*
X106349168Y-107658030D01*
X134962027Y-107658030D01*
X134972978Y-108149955D01*
X135079689Y-108630291D01*
X135250656Y-109030629D01*
X135584633Y-109260261D01*
X137248566Y-107864054D01*
X137643722Y-107864054D01*
X139071377Y-109565467D01*
X139440016Y-109397153D01*
X139704210Y-108982049D01*
X139882344Y-108523379D01*
X139967573Y-108038770D01*
X139956622Y-107546845D01*
X139849911Y-107066509D01*
X139678944Y-106666171D01*
X139344967Y-106436539D01*
X137643722Y-107864054D01*
X137248566Y-107864054D01*
X137285878Y-107832746D01*
X135858223Y-106131333D01*
X135489584Y-106299647D01*
X135225390Y-106714751D01*
X135047256Y-107173421D01*
X134962027Y-107658030D01*
X106349168Y-107658030D01*
X106383681Y-107484526D01*
X106383681Y-107063968D01*
X106301634Y-106651491D01*
X106140693Y-106262945D01*
X105907044Y-105913264D01*
X105609664Y-105615884D01*
X105259983Y-105382235D01*
X104871437Y-105221294D01*
X104458960Y-105139247D01*
X104038402Y-105139247D01*
X103625925Y-105221294D01*
X103237379Y-105382235D01*
X102887698Y-105615884D01*
X102590318Y-105913264D01*
X102356669Y-106262945D01*
X102195728Y-106651491D01*
X102113681Y-107063968D01*
X102113681Y-107484526D01*
X102195728Y-107897003D01*
X102356669Y-108285549D01*
X102590318Y-108635230D01*
X102887698Y-108932610D01*
X103237379Y-109166259D01*
X103240703Y-109167636D01*
X103200770Y-109194318D01*
X102903390Y-109491698D01*
X102669741Y-109841379D01*
X102668364Y-109844703D01*
X102641682Y-109804770D01*
X102344302Y-109507390D01*
X101994621Y-109273741D01*
X101606075Y-109112800D01*
X101193598Y-109030753D01*
X100773040Y-109030753D01*
X100360563Y-109112800D01*
X99972017Y-109273741D01*
X99622336Y-109507390D01*
X99324956Y-109804770D01*
X99091307Y-110154451D01*
X98930366Y-110542997D01*
X98848319Y-110955474D01*
X92666601Y-110955474D01*
X91591816Y-109789942D01*
X90068777Y-107907068D01*
X88670810Y-105929556D01*
X87403778Y-103865702D01*
X87212438Y-103503329D01*
X95059618Y-103503329D01*
X95059618Y-103687507D01*
X95095550Y-103868147D01*
X95166032Y-104038307D01*
X95268356Y-104191446D01*
X95398590Y-104321680D01*
X95551729Y-104424004D01*
X95721889Y-104494486D01*
X95902529Y-104530418D01*
X96086707Y-104530418D01*
X96267347Y-104494486D01*
X96437507Y-104424004D01*
X96540153Y-104355418D01*
X112911462Y-104355418D01*
X112948784Y-104359094D01*
X112986106Y-104355418D01*
X112986117Y-104355418D01*
X113097770Y-104344421D01*
X113241031Y-104300964D01*
X113373060Y-104230392D01*
X113488785Y-104135419D01*
X113512588Y-104106415D01*
X115985131Y-101633872D01*
X125273000Y-101633872D01*
X125273000Y-102074128D01*
X125358890Y-102505925D01*
X125527369Y-102912669D01*
X125771962Y-103278729D01*
X126083271Y-103590038D01*
X126449331Y-103834631D01*
X126856075Y-104003110D01*
X127287872Y-104089000D01*
X127728128Y-104089000D01*
X128159925Y-104003110D01*
X128566669Y-103834631D01*
X128753670Y-103709681D01*
X131689438Y-103709681D01*
X131689438Y-104204107D01*
X131785896Y-104689034D01*
X131975105Y-105145825D01*
X132249794Y-105556926D01*
X132599406Y-105906538D01*
X133010507Y-106181227D01*
X133467298Y-106370436D01*
X133952225Y-106466894D01*
X134446651Y-106466894D01*
X134931578Y-106370436D01*
X135388369Y-106181227D01*
X135707388Y-105968065D01*
X136052798Y-105968065D01*
X137480454Y-107669478D01*
X139181699Y-106241964D01*
X139013551Y-105873186D01*
X138648982Y-105635298D01*
X138194474Y-105446799D01*
X137711924Y-105350593D01*
X137219878Y-105350375D01*
X136737243Y-105446156D01*
X136282569Y-105634254D01*
X136052798Y-105968065D01*
X135707388Y-105968065D01*
X135799470Y-105906538D01*
X136149082Y-105556926D01*
X136423771Y-105145825D01*
X136612980Y-104689034D01*
X136701530Y-104243863D01*
X138006558Y-104243863D01*
X138174872Y-104612502D01*
X138589976Y-104876696D01*
X139048646Y-105054830D01*
X139533255Y-105140059D01*
X140025180Y-105129108D01*
X140505516Y-105022397D01*
X140905854Y-104851430D01*
X141135486Y-104517453D01*
X139707971Y-102816208D01*
X138006558Y-104243863D01*
X136701530Y-104243863D01*
X136709438Y-104204107D01*
X136709438Y-103709681D01*
X136612980Y-103224754D01*
X136471093Y-102882208D01*
X137225600Y-102882208D01*
X137321381Y-103364843D01*
X137509479Y-103819517D01*
X137843290Y-104049288D01*
X139507391Y-102652940D01*
X139902547Y-102652940D01*
X141330061Y-104354185D01*
X141698839Y-104186037D01*
X141936727Y-103821468D01*
X142125226Y-103366960D01*
X142221432Y-102884410D01*
X142221650Y-102392364D01*
X142125869Y-101909729D01*
X141937771Y-101455055D01*
X141603960Y-101225284D01*
X139902547Y-102652940D01*
X139507391Y-102652940D01*
X139544703Y-102621632D01*
X138117189Y-100920387D01*
X137748411Y-101088535D01*
X137510523Y-101453104D01*
X137322024Y-101907612D01*
X137225818Y-102390162D01*
X137225600Y-102882208D01*
X136471093Y-102882208D01*
X136423771Y-102767963D01*
X136149082Y-102356862D01*
X135799470Y-102007250D01*
X135388369Y-101732561D01*
X134931578Y-101543352D01*
X134446651Y-101446894D01*
X133952225Y-101446894D01*
X133467298Y-101543352D01*
X133010507Y-101732561D01*
X132599406Y-102007250D01*
X132249794Y-102356862D01*
X131975105Y-102767963D01*
X131785896Y-103224754D01*
X131689438Y-103709681D01*
X128753670Y-103709681D01*
X128932729Y-103590038D01*
X129244038Y-103278729D01*
X129488631Y-102912669D01*
X129657110Y-102505925D01*
X129743000Y-102074128D01*
X129743000Y-101633872D01*
X129657110Y-101202075D01*
X129488631Y-100795331D01*
X129463099Y-100757119D01*
X138311764Y-100757119D01*
X139739279Y-102458364D01*
X141440692Y-101030709D01*
X141272378Y-100662070D01*
X140857274Y-100397876D01*
X140398604Y-100219742D01*
X139913995Y-100134513D01*
X139422070Y-100145464D01*
X138941734Y-100252175D01*
X138541396Y-100423142D01*
X138311764Y-100757119D01*
X129463099Y-100757119D01*
X129244038Y-100429271D01*
X128932729Y-100117962D01*
X128566669Y-99873369D01*
X128159925Y-99704890D01*
X127728128Y-99619000D01*
X127287872Y-99619000D01*
X126856075Y-99704890D01*
X126449331Y-99873369D01*
X126083271Y-100117962D01*
X125771962Y-100429271D01*
X125527369Y-100795331D01*
X125358890Y-101202075D01*
X125273000Y-101633872D01*
X115985131Y-101633872D01*
X124358905Y-93260098D01*
X137823000Y-93260098D01*
X137823000Y-93729902D01*
X137914654Y-94190679D01*
X138094440Y-94624721D01*
X138355450Y-95015349D01*
X138687651Y-95347550D01*
X139078279Y-95608560D01*
X139512321Y-95788346D01*
X139973098Y-95880000D01*
X140442902Y-95880000D01*
X140903679Y-95788346D01*
X141337721Y-95608560D01*
X141728349Y-95347550D01*
X142060550Y-95015349D01*
X142321560Y-94624721D01*
X142501346Y-94190679D01*
X142593000Y-93729902D01*
X142593000Y-93260098D01*
X142501346Y-92799321D01*
X142321560Y-92365279D01*
X142060550Y-91974651D01*
X141728349Y-91642450D01*
X141337721Y-91381440D01*
X140903679Y-91201654D01*
X140442902Y-91110000D01*
X139973098Y-91110000D01*
X139512321Y-91201654D01*
X139078279Y-91381440D01*
X138687651Y-91642450D01*
X138355450Y-91974651D01*
X138094440Y-92365279D01*
X137914654Y-92799321D01*
X137823000Y-93260098D01*
X124358905Y-93260098D01*
X136854002Y-80765002D01*
X136883000Y-80741204D01*
X136909331Y-80709120D01*
X136977973Y-80625480D01*
X137048545Y-80493450D01*
X137082167Y-80382610D01*
X137092002Y-80350189D01*
X137102999Y-80238536D01*
X137102999Y-80238527D01*
X137106675Y-80201204D01*
X137102999Y-80163881D01*
X137102999Y-78262441D01*
X137220257Y-78311011D01*
X137516816Y-78370000D01*
X137819184Y-78370000D01*
X138115743Y-78311011D01*
X138395095Y-78195299D01*
X138646505Y-78027312D01*
X138860312Y-77813505D01*
X138941367Y-77692198D01*
X139076351Y-77872116D01*
X139300427Y-78072962D01*
X139559380Y-78226234D01*
X139843259Y-78326041D01*
X140081000Y-78205992D01*
X140081000Y-76962000D01*
X140061000Y-76962000D01*
X140061000Y-76708000D01*
X140081000Y-76708000D01*
X140081000Y-75464008D01*
X140335000Y-75464008D01*
X140335000Y-76708000D01*
X140355000Y-76708000D01*
X140355000Y-76962000D01*
X140335000Y-76962000D01*
X140335000Y-78205992D01*
X140572741Y-78326041D01*
X140856620Y-78226234D01*
X141115573Y-78072962D01*
X141250311Y-77952192D01*
X141258498Y-77979180D01*
X141317463Y-78089494D01*
X141396815Y-78186185D01*
X141493506Y-78265537D01*
X141603820Y-78324502D01*
X141723518Y-78360812D01*
X141848000Y-78373072D01*
X143648000Y-78373072D01*
X143772482Y-78360812D01*
X143892180Y-78324502D01*
X144002494Y-78265537D01*
X144099185Y-78186185D01*
X144178537Y-78089494D01*
X144237502Y-77979180D01*
X144273812Y-77859482D01*
X144286072Y-77735000D01*
X144286072Y-75935000D01*
X144273812Y-75810518D01*
X144237502Y-75690820D01*
X144178537Y-75580506D01*
X144099185Y-75483815D01*
X144002494Y-75404463D01*
X143892180Y-75345498D01*
X143772482Y-75309188D01*
X143648000Y-75296928D01*
X141848000Y-75296928D01*
X141723518Y-75309188D01*
X141603820Y-75345498D01*
X141493506Y-75404463D01*
X141396815Y-75483815D01*
X141317463Y-75580506D01*
X141258498Y-75690820D01*
X141250311Y-75717808D01*
X141115573Y-75597038D01*
X140856620Y-75443766D01*
X140572741Y-75343959D01*
X140335000Y-75464008D01*
X140081000Y-75464008D01*
X139843259Y-75343959D01*
X139559380Y-75443766D01*
X139300427Y-75597038D01*
X139076351Y-75797884D01*
X138941367Y-75977802D01*
X138860312Y-75856495D01*
X138646505Y-75642688D01*
X138395095Y-75474701D01*
X138115743Y-75358989D01*
X137974842Y-75330962D01*
X138542004Y-74763800D01*
X138571002Y-74740002D01*
X138665975Y-74624277D01*
X138736547Y-74492248D01*
X138780004Y-74348987D01*
X138791001Y-74237334D01*
X138791001Y-74237325D01*
X138794677Y-74200002D01*
X138791001Y-74162679D01*
X138791001Y-62821937D01*
X138919271Y-62875068D01*
X139099911Y-62911000D01*
X139284089Y-62911000D01*
X139464729Y-62875068D01*
X139634889Y-62804586D01*
X139788028Y-62702262D01*
X139918262Y-62572028D01*
X140020586Y-62418889D01*
X140091068Y-62248729D01*
X140127000Y-62068089D01*
X140127000Y-61883911D01*
X140091068Y-61703271D01*
X140027000Y-61548596D01*
X140027000Y-58823016D01*
X140031040Y-58781997D01*
X140014918Y-58618309D01*
X139967172Y-58460911D01*
X139889636Y-58315852D01*
X139844313Y-58260626D01*
X139785291Y-58188707D01*
X139753427Y-58162557D01*
X137671448Y-56080579D01*
X137645293Y-56048709D01*
X137518148Y-55944364D01*
X137373089Y-55866828D01*
X137215691Y-55819082D01*
X137093021Y-55807000D01*
X137093020Y-55807000D01*
X137052002Y-55802960D01*
X137010984Y-55807000D01*
X135809404Y-55807000D01*
X135654729Y-55742932D01*
X135474089Y-55707000D01*
X135289911Y-55707000D01*
X135109271Y-55742932D01*
X134939111Y-55813414D01*
X134785972Y-55915738D01*
X134655738Y-56045972D01*
X134553414Y-56199111D01*
X134482932Y-56369271D01*
X134447000Y-56549911D01*
X134447000Y-56734089D01*
X134482932Y-56914729D01*
X134512461Y-56986020D01*
X134507335Y-56985000D01*
X134224665Y-56985000D01*
X133947426Y-57040147D01*
X133686273Y-57148320D01*
X133451241Y-57305363D01*
X133251363Y-57505241D01*
X133096000Y-57737759D01*
X132940637Y-57505241D01*
X132740759Y-57305363D01*
X132505727Y-57148320D01*
X132244574Y-57040147D01*
X131967335Y-56985000D01*
X131684665Y-56985000D01*
X131407426Y-57040147D01*
X131146273Y-57148320D01*
X130911241Y-57305363D01*
X130711363Y-57505241D01*
X130556000Y-57737759D01*
X130400637Y-57505241D01*
X130200759Y-57305363D01*
X129965727Y-57148320D01*
X129704574Y-57040147D01*
X129427335Y-56985000D01*
X129144665Y-56985000D01*
X128867426Y-57040147D01*
X128606273Y-57148320D01*
X128371241Y-57305363D01*
X128171363Y-57505241D01*
X128016000Y-57737759D01*
X127860637Y-57505241D01*
X127660759Y-57305363D01*
X127425727Y-57148320D01*
X127164574Y-57040147D01*
X126887335Y-56985000D01*
X126604665Y-56985000D01*
X126327426Y-57040147D01*
X126066273Y-57148320D01*
X125831241Y-57305363D01*
X125631363Y-57505241D01*
X125476000Y-57737759D01*
X125320637Y-57505241D01*
X125120759Y-57305363D01*
X124885727Y-57148320D01*
X124624574Y-57040147D01*
X124347335Y-56985000D01*
X124064665Y-56985000D01*
X123787426Y-57040147D01*
X123526273Y-57148320D01*
X123291241Y-57305363D01*
X123091363Y-57505241D01*
X122936000Y-57737759D01*
X122780637Y-57505241D01*
X122580759Y-57305363D01*
X122345727Y-57148320D01*
X122084574Y-57040147D01*
X121807335Y-56985000D01*
X121524665Y-56985000D01*
X121247426Y-57040147D01*
X120986273Y-57148320D01*
X120751241Y-57305363D01*
X120551363Y-57505241D01*
X120396000Y-57737759D01*
X120240637Y-57505241D01*
X120040759Y-57305363D01*
X119805727Y-57148320D01*
X119544574Y-57040147D01*
X119267335Y-56985000D01*
X118984665Y-56985000D01*
X118707426Y-57040147D01*
X118446273Y-57148320D01*
X118211241Y-57305363D01*
X118011363Y-57505241D01*
X117856000Y-57737759D01*
X117700637Y-57505241D01*
X117500759Y-57305363D01*
X117265727Y-57148320D01*
X117004574Y-57040147D01*
X116727335Y-56985000D01*
X116444665Y-56985000D01*
X116167426Y-57040147D01*
X115906273Y-57148320D01*
X115671241Y-57305363D01*
X115471363Y-57505241D01*
X115316000Y-57737759D01*
X115160637Y-57505241D01*
X114960759Y-57305363D01*
X114725727Y-57148320D01*
X114464574Y-57040147D01*
X114187335Y-56985000D01*
X113904665Y-56985000D01*
X113627426Y-57040147D01*
X113366273Y-57148320D01*
X113131241Y-57305363D01*
X112931363Y-57505241D01*
X112776000Y-57737759D01*
X112620637Y-57505241D01*
X112420759Y-57305363D01*
X112185727Y-57148320D01*
X111924574Y-57040147D01*
X111647335Y-56985000D01*
X111364665Y-56985000D01*
X111087426Y-57040147D01*
X110826273Y-57148320D01*
X110591241Y-57305363D01*
X110391363Y-57505241D01*
X110236000Y-57737759D01*
X110080637Y-57505241D01*
X109880759Y-57305363D01*
X109645727Y-57148320D01*
X109384574Y-57040147D01*
X109107335Y-56985000D01*
X108824665Y-56985000D01*
X108547426Y-57040147D01*
X108286273Y-57148320D01*
X108051241Y-57305363D01*
X107851363Y-57505241D01*
X107696000Y-57737759D01*
X107540637Y-57505241D01*
X107340759Y-57305363D01*
X107105727Y-57148320D01*
X106844574Y-57040147D01*
X106567335Y-56985000D01*
X106284665Y-56985000D01*
X106007426Y-57040147D01*
X105746273Y-57148320D01*
X105511241Y-57305363D01*
X105312643Y-57503961D01*
X105311812Y-57495518D01*
X105275502Y-57375820D01*
X105216537Y-57265506D01*
X105137185Y-57168815D01*
X105040494Y-57089463D01*
X104930180Y-57030498D01*
X104810482Y-56994188D01*
X104686000Y-56981928D01*
X103086000Y-56981928D01*
X102961518Y-56994188D01*
X102841820Y-57030498D01*
X102731506Y-57089463D01*
X102634815Y-57168815D01*
X102555463Y-57265506D01*
X102496498Y-57375820D01*
X102460188Y-57495518D01*
X102447928Y-57620000D01*
X102447928Y-59220000D01*
X102460188Y-59344482D01*
X102496498Y-59464180D01*
X102555463Y-59574494D01*
X102634815Y-59671185D01*
X102731506Y-59750537D01*
X102841820Y-59809502D01*
X102961518Y-59845812D01*
X103086000Y-59858072D01*
X104686000Y-59858072D01*
X104810482Y-59845812D01*
X104930180Y-59809502D01*
X105040494Y-59750537D01*
X105137185Y-59671185D01*
X105216537Y-59574494D01*
X105275502Y-59464180D01*
X105311812Y-59344482D01*
X105312643Y-59336039D01*
X105511241Y-59534637D01*
X105746273Y-59691680D01*
X106007426Y-59799853D01*
X106284665Y-59855000D01*
X106567335Y-59855000D01*
X106844574Y-59799853D01*
X107105727Y-59691680D01*
X107340759Y-59534637D01*
X107540637Y-59334759D01*
X107696000Y-59102241D01*
X107851363Y-59334759D01*
X108051241Y-59534637D01*
X108286273Y-59691680D01*
X108547426Y-59799853D01*
X108824665Y-59855000D01*
X109107335Y-59855000D01*
X109384574Y-59799853D01*
X109645727Y-59691680D01*
X109880759Y-59534637D01*
X110080637Y-59334759D01*
X110236000Y-59102241D01*
X110391363Y-59334759D01*
X110591241Y-59534637D01*
X110826273Y-59691680D01*
X111087426Y-59799853D01*
X111364665Y-59855000D01*
X111647335Y-59855000D01*
X111924574Y-59799853D01*
X112185727Y-59691680D01*
X112420759Y-59534637D01*
X112620637Y-59334759D01*
X112776000Y-59102241D01*
X112931363Y-59334759D01*
X113131241Y-59534637D01*
X113366273Y-59691680D01*
X113627426Y-59799853D01*
X113904665Y-59855000D01*
X114187335Y-59855000D01*
X114464574Y-59799853D01*
X114725727Y-59691680D01*
X114960759Y-59534637D01*
X115160637Y-59334759D01*
X115316000Y-59102241D01*
X115471363Y-59334759D01*
X115671241Y-59534637D01*
X115906273Y-59691680D01*
X116167426Y-59799853D01*
X116444665Y-59855000D01*
X116727335Y-59855000D01*
X117004574Y-59799853D01*
X117265727Y-59691680D01*
X117500759Y-59534637D01*
X117700637Y-59334759D01*
X117856000Y-59102241D01*
X118011363Y-59334759D01*
X118211241Y-59534637D01*
X118446273Y-59691680D01*
X118707426Y-59799853D01*
X118984665Y-59855000D01*
X119267335Y-59855000D01*
X119316200Y-59845280D01*
X119304647Y-59883365D01*
X119293650Y-59995018D01*
X119293650Y-59995028D01*
X119289974Y-60032350D01*
X119293650Y-60069673D01*
X119293651Y-64066609D01*
X119225064Y-64169257D01*
X119154582Y-64339417D01*
X119118650Y-64520057D01*
X119118650Y-64704235D01*
X119154582Y-64884875D01*
X119225064Y-65055035D01*
X119327388Y-65208174D01*
X119457622Y-65338408D01*
X119610761Y-65440732D01*
X119780921Y-65511214D01*
X119961561Y-65547146D01*
X120145739Y-65547146D01*
X120326379Y-65511214D01*
X120496539Y-65440732D01*
X120649678Y-65338408D01*
X120779912Y-65208174D01*
X120882236Y-65055035D01*
X120952718Y-64884875D01*
X120988650Y-64704235D01*
X120988650Y-64520057D01*
X120952718Y-64339417D01*
X120882236Y-64169257D01*
X120813650Y-64066611D01*
X120813650Y-60347151D01*
X121342114Y-59818688D01*
X121524665Y-59855000D01*
X121807335Y-59855000D01*
X122084574Y-59799853D01*
X122345727Y-59691680D01*
X122580759Y-59534637D01*
X122780637Y-59334759D01*
X122936000Y-59102241D01*
X123091363Y-59334759D01*
X123291241Y-59534637D01*
X123526273Y-59691680D01*
X123787426Y-59799853D01*
X124064665Y-59855000D01*
X124347335Y-59855000D01*
X124536022Y-59817467D01*
X124581723Y-59854973D01*
X124713752Y-59925545D01*
X124857013Y-59969002D01*
X124968666Y-59979999D01*
X124968675Y-59979999D01*
X125005998Y-59983675D01*
X125043321Y-59979999D01*
X125566196Y-59979999D01*
X125642195Y-60055998D01*
X125665998Y-60085002D01*
X125781723Y-60179975D01*
X125913752Y-60250547D01*
X126057013Y-60294004D01*
X126168666Y-60305001D01*
X126168675Y-60305001D01*
X126205998Y-60308677D01*
X126243321Y-60305001D01*
X126919790Y-60305001D01*
X127329299Y-60714511D01*
X127353098Y-60743510D01*
X127382096Y-60767308D01*
X127468822Y-60838483D01*
X127580278Y-60898058D01*
X127600852Y-60909055D01*
X127744113Y-60952512D01*
X127855766Y-60963509D01*
X127855776Y-60963509D01*
X127893099Y-60967185D01*
X127930422Y-60963509D01*
X131905114Y-60963509D01*
X132272501Y-61330897D01*
X132272500Y-72291714D01*
X132244574Y-72280147D01*
X131967335Y-72225000D01*
X131684665Y-72225000D01*
X131407426Y-72280147D01*
X131146273Y-72388320D01*
X130911241Y-72545363D01*
X130711363Y-72745241D01*
X130607957Y-72900000D01*
X130504043Y-72900000D01*
X130400637Y-72745241D01*
X130200759Y-72545363D01*
X129965727Y-72388320D01*
X129704574Y-72280147D01*
X129427335Y-72225000D01*
X129144665Y-72225000D01*
X128867426Y-72280147D01*
X128606273Y-72388320D01*
X128371241Y-72545363D01*
X128171363Y-72745241D01*
X128016000Y-72977759D01*
X127860637Y-72745241D01*
X127660759Y-72545363D01*
X127425727Y-72388320D01*
X127164574Y-72280147D01*
X126887335Y-72225000D01*
X126604665Y-72225000D01*
X126327426Y-72280147D01*
X126066273Y-72388320D01*
X125831241Y-72545363D01*
X125631363Y-72745241D01*
X125476000Y-72977759D01*
X125320637Y-72745241D01*
X125120759Y-72545363D01*
X124885727Y-72388320D01*
X124624574Y-72280147D01*
X124347335Y-72225000D01*
X124064665Y-72225000D01*
X123787426Y-72280147D01*
X123526273Y-72388320D01*
X123291241Y-72545363D01*
X123091363Y-72745241D01*
X122936000Y-72977759D01*
X122780637Y-72745241D01*
X122580759Y-72545363D01*
X122345727Y-72388320D01*
X122084574Y-72280147D01*
X121807335Y-72225000D01*
X121524665Y-72225000D01*
X121247426Y-72280147D01*
X121011001Y-72378077D01*
X121011001Y-67603704D01*
X121014677Y-67566381D01*
X121011001Y-67529058D01*
X121011001Y-67529048D01*
X121000004Y-67417395D01*
X120956547Y-67274134D01*
X120917000Y-67200147D01*
X120885975Y-67142104D01*
X120814800Y-67055378D01*
X120791002Y-67026380D01*
X120762004Y-67002582D01*
X117002424Y-63243003D01*
X116978621Y-63213999D01*
X116862896Y-63119026D01*
X116730867Y-63048454D01*
X116587606Y-63004997D01*
X116475953Y-62994000D01*
X116475942Y-62994000D01*
X116438620Y-62990324D01*
X116401298Y-62994000D01*
X109003535Y-62994000D01*
X108900889Y-62925414D01*
X108730729Y-62854932D01*
X108550089Y-62819000D01*
X108365911Y-62819000D01*
X108185271Y-62854932D01*
X108015111Y-62925414D01*
X107861972Y-63027738D01*
X107731738Y-63157972D01*
X107629414Y-63311111D01*
X107558932Y-63481271D01*
X107523000Y-63661911D01*
X107523000Y-63846089D01*
X107558932Y-64026729D01*
X107629414Y-64196889D01*
X107731738Y-64350028D01*
X107861972Y-64480262D01*
X108015111Y-64582586D01*
X108185271Y-64653068D01*
X108365911Y-64689000D01*
X108550089Y-64689000D01*
X108730729Y-64653068D01*
X108900889Y-64582586D01*
X109003535Y-64514000D01*
X116123819Y-64514000D01*
X117780186Y-66170368D01*
X117690912Y-66188126D01*
X117520752Y-66258608D01*
X117367613Y-66360932D01*
X117237379Y-66491166D01*
X117135055Y-66644305D01*
X117064573Y-66814465D01*
X117028641Y-66995105D01*
X117028641Y-67179283D01*
X117064573Y-67359923D01*
X117135055Y-67530083D01*
X117211173Y-67644002D01*
X117211173Y-69825723D01*
X117004574Y-69740147D01*
X116727335Y-69685000D01*
X116444665Y-69685000D01*
X116167426Y-69740147D01*
X115906273Y-69848320D01*
X115671241Y-70005363D01*
X115471363Y-70205241D01*
X115316000Y-70437759D01*
X115160637Y-70205241D01*
X114960759Y-70005363D01*
X114725727Y-69848320D01*
X114464574Y-69740147D01*
X114187335Y-69685000D01*
X113904665Y-69685000D01*
X113627426Y-69740147D01*
X113366273Y-69848320D01*
X113131241Y-70005363D01*
X112931363Y-70205241D01*
X112776000Y-70437759D01*
X112620637Y-70205241D01*
X112420759Y-70005363D01*
X112185727Y-69848320D01*
X111924574Y-69740147D01*
X111647335Y-69685000D01*
X111364665Y-69685000D01*
X111087426Y-69740147D01*
X110826273Y-69848320D01*
X110591241Y-70005363D01*
X110391363Y-70205241D01*
X110234320Y-70440273D01*
X110126147Y-70701426D01*
X110071000Y-70978665D01*
X110071000Y-71261335D01*
X110126147Y-71538574D01*
X110234320Y-71799727D01*
X110391363Y-72034759D01*
X110591241Y-72234637D01*
X110823759Y-72390000D01*
X110591241Y-72545363D01*
X110391363Y-72745241D01*
X110236000Y-72977759D01*
X110080637Y-72745241D01*
X109880759Y-72545363D01*
X109645727Y-72388320D01*
X109384574Y-72280147D01*
X109107335Y-72225000D01*
X108824665Y-72225000D01*
X108547426Y-72280147D01*
X108286273Y-72388320D01*
X108051241Y-72545363D01*
X107851363Y-72745241D01*
X107695085Y-72979128D01*
X107662671Y-72918486D01*
X107418702Y-72846903D01*
X106605605Y-73660000D01*
X107418702Y-74473097D01*
X107662671Y-74401514D01*
X107693194Y-74337008D01*
X107694320Y-74339727D01*
X107851363Y-74574759D01*
X108051241Y-74774637D01*
X108286273Y-74931680D01*
X108547426Y-75039853D01*
X108824665Y-75095000D01*
X108935036Y-75095000D01*
X108935035Y-77548660D01*
X104781851Y-81701845D01*
X104749987Y-81727995D01*
X104669184Y-81826454D01*
X104645641Y-81855141D01*
X104568105Y-82000200D01*
X104520359Y-82157598D01*
X104504237Y-82321286D01*
X104508278Y-82362315D01*
X104508277Y-91409425D01*
X104504237Y-91450444D01*
X104508277Y-91491462D01*
X104520359Y-91614132D01*
X104568105Y-91771530D01*
X104645641Y-91916589D01*
X104749986Y-92043735D01*
X104781856Y-92069890D01*
X106745396Y-94033432D01*
X106771542Y-94065291D01*
X106803401Y-94091437D01*
X106803403Y-94091439D01*
X106898687Y-94169636D01*
X107043746Y-94247172D01*
X107201144Y-94294918D01*
X107364833Y-94311040D01*
X107405851Y-94307000D01*
X108388152Y-94307000D01*
X108397084Y-94397690D01*
X108444830Y-94555088D01*
X108482050Y-94624721D01*
X108522367Y-94700148D01*
X108626712Y-94827293D01*
X108658576Y-94853443D01*
X113661346Y-99856214D01*
X113725414Y-100010889D01*
X113827738Y-100164028D01*
X113957972Y-100294262D01*
X114111111Y-100396586D01*
X114281271Y-100467068D01*
X114461911Y-100503000D01*
X114646089Y-100503000D01*
X114826729Y-100467068D01*
X114996889Y-100396586D01*
X115150028Y-100294262D01*
X115161632Y-100282659D01*
X115174187Y-100295214D01*
X112633983Y-102835418D01*
X96540153Y-102835418D01*
X96437507Y-102766832D01*
X96267347Y-102696350D01*
X96086707Y-102660418D01*
X95902529Y-102660418D01*
X95721889Y-102696350D01*
X95551729Y-102766832D01*
X95398590Y-102869156D01*
X95268356Y-102999390D01*
X95166032Y-103152529D01*
X95095550Y-103322689D01*
X95059618Y-103503329D01*
X87212438Y-103503329D01*
X86272997Y-101724161D01*
X85436344Y-99855872D01*
X99111000Y-99855872D01*
X99111000Y-100296128D01*
X99196890Y-100727925D01*
X99365369Y-101134669D01*
X99609962Y-101500729D01*
X99921271Y-101812038D01*
X100287331Y-102056631D01*
X100694075Y-102225110D01*
X101125872Y-102311000D01*
X101566128Y-102311000D01*
X101997925Y-102225110D01*
X102404669Y-102056631D01*
X102770729Y-101812038D01*
X103082038Y-101500729D01*
X103326631Y-101134669D01*
X103495110Y-100727925D01*
X103581000Y-100296128D01*
X103581000Y-99855872D01*
X103495110Y-99424075D01*
X103326631Y-99017331D01*
X103082038Y-98651271D01*
X102770729Y-98339962D01*
X102404669Y-98095369D01*
X101997925Y-97926890D01*
X101566128Y-97841000D01*
X101125872Y-97841000D01*
X100694075Y-97926890D01*
X100287331Y-98095369D01*
X99921271Y-98339962D01*
X99609962Y-98651271D01*
X99365369Y-99017331D01*
X99196890Y-99424075D01*
X99111000Y-99855872D01*
X85436344Y-99855872D01*
X85283209Y-99513916D01*
X84438565Y-97244237D01*
X83742608Y-94924645D01*
X83198258Y-92564868D01*
X82807797Y-90174804D01*
X82572864Y-87764478D01*
X82494443Y-85344000D01*
X82572864Y-82923522D01*
X82807797Y-80513196D01*
X83198258Y-78123132D01*
X83742608Y-75763355D01*
X83753854Y-75725872D01*
X96317000Y-75725872D01*
X96317000Y-76166128D01*
X96402890Y-76597925D01*
X96571369Y-77004669D01*
X96815962Y-77370729D01*
X97127271Y-77682038D01*
X97493331Y-77926631D01*
X97900075Y-78095110D01*
X98331872Y-78181000D01*
X98772128Y-78181000D01*
X99203925Y-78095110D01*
X99610669Y-77926631D01*
X99976729Y-77682038D01*
X100288038Y-77370729D01*
X100532631Y-77004669D01*
X100701110Y-76597925D01*
X100787000Y-76166128D01*
X100787000Y-75725872D01*
X100701110Y-75294075D01*
X100532631Y-74887331D01*
X100288038Y-74521271D01*
X99976729Y-74209962D01*
X99610669Y-73965369D01*
X99203925Y-73796890D01*
X98772128Y-73711000D01*
X98331872Y-73711000D01*
X97900075Y-73796890D01*
X97493331Y-73965369D01*
X97127271Y-74209962D01*
X96815962Y-74521271D01*
X96571369Y-74887331D01*
X96402890Y-75294075D01*
X96317000Y-75725872D01*
X83753854Y-75725872D01*
X84416091Y-73518665D01*
X102451000Y-73518665D01*
X102451000Y-73801335D01*
X102506147Y-74078574D01*
X102614320Y-74339727D01*
X102771363Y-74574759D01*
X102971241Y-74774637D01*
X103206273Y-74931680D01*
X103467426Y-75039853D01*
X103744665Y-75095000D01*
X104027335Y-75095000D01*
X104304574Y-75039853D01*
X104565727Y-74931680D01*
X104800759Y-74774637D01*
X104922694Y-74652702D01*
X105612903Y-74652702D01*
X105684486Y-74896671D01*
X105939996Y-75017571D01*
X106214184Y-75086300D01*
X106496512Y-75100217D01*
X106776130Y-75058787D01*
X107042292Y-74963603D01*
X107167514Y-74896671D01*
X107239097Y-74652702D01*
X106426000Y-73839605D01*
X105612903Y-74652702D01*
X104922694Y-74652702D01*
X105000637Y-74574759D01*
X105156915Y-74340872D01*
X105189329Y-74401514D01*
X105433298Y-74473097D01*
X106246395Y-73660000D01*
X105433298Y-72846903D01*
X105189329Y-72918486D01*
X105158806Y-72982992D01*
X105157680Y-72980273D01*
X105000637Y-72745241D01*
X104800759Y-72545363D01*
X104565727Y-72388320D01*
X104304574Y-72280147D01*
X104027335Y-72225000D01*
X103744665Y-72225000D01*
X103467426Y-72280147D01*
X103206273Y-72388320D01*
X102971241Y-72545363D01*
X102771363Y-72745241D01*
X102614320Y-72980273D01*
X102506147Y-73241426D01*
X102451000Y-73518665D01*
X84416091Y-73518665D01*
X84438565Y-73443763D01*
X85283209Y-71174084D01*
X85370721Y-70978665D01*
X104991000Y-70978665D01*
X104991000Y-71261335D01*
X105046147Y-71538574D01*
X105154320Y-71799727D01*
X105311363Y-72034759D01*
X105511241Y-72234637D01*
X105745128Y-72390915D01*
X105684486Y-72423329D01*
X105612903Y-72667298D01*
X106426000Y-73480395D01*
X107239097Y-72667298D01*
X107167514Y-72423329D01*
X107103008Y-72392806D01*
X107105727Y-72391680D01*
X107340759Y-72234637D01*
X107540637Y-72034759D01*
X107697680Y-71799727D01*
X107805853Y-71538574D01*
X107861000Y-71261335D01*
X107861000Y-70978665D01*
X107805853Y-70701426D01*
X107697680Y-70440273D01*
X107540637Y-70205241D01*
X107340759Y-70005363D01*
X107105727Y-69848320D01*
X106844574Y-69740147D01*
X106567335Y-69685000D01*
X106284665Y-69685000D01*
X106007426Y-69740147D01*
X105746273Y-69848320D01*
X105511241Y-70005363D01*
X105311363Y-70205241D01*
X105154320Y-70440273D01*
X105046147Y-70701426D01*
X104991000Y-70978665D01*
X85370721Y-70978665D01*
X86272997Y-68963839D01*
X87403778Y-66822298D01*
X88670810Y-64758444D01*
X90068777Y-62780932D01*
X91591816Y-60898058D01*
X93233540Y-59117718D01*
X94987061Y-57447381D01*
X96845026Y-55894052D01*
X98799641Y-54464246D01*
X99695079Y-53894355D01*
X96494193Y-57095242D01*
X96339516Y-57159311D01*
X96186377Y-57261635D01*
X96056143Y-57391869D01*
X95953819Y-57545008D01*
X95883337Y-57715168D01*
X95847405Y-57895808D01*
X95847405Y-58079986D01*
X95883337Y-58260626D01*
X95953819Y-58430786D01*
X96056143Y-58583925D01*
X96186377Y-58714159D01*
X96339516Y-58816483D01*
X96509676Y-58886965D01*
X96690316Y-58922897D01*
X96874494Y-58922897D01*
X97055134Y-58886965D01*
X97225294Y-58816483D01*
X97378433Y-58714159D01*
X97508667Y-58583925D01*
X97610991Y-58430786D01*
X97675060Y-58276109D01*
X101776170Y-54175000D01*
X107776596Y-54175000D01*
X107931271Y-54239068D01*
X108111911Y-54275000D01*
X108296089Y-54275000D01*
X108476729Y-54239068D01*
X108646889Y-54168586D01*
X108800028Y-54066262D01*
X108930262Y-53936028D01*
X109032586Y-53782889D01*
X109103068Y-53612729D01*
X109139000Y-53432089D01*
X109139000Y-53247911D01*
X109103068Y-53067271D01*
X109032586Y-52897111D01*
X108930262Y-52743972D01*
X108800028Y-52613738D01*
X108646889Y-52511414D01*
X108476729Y-52440932D01*
X108296089Y-52405000D01*
X108111911Y-52405000D01*
X107931271Y-52440932D01*
X107776596Y-52505000D01*
X102043193Y-52505000D01*
X102965657Y-51998649D01*
X105159584Y-50973200D01*
X107415288Y-50091914D01*
X107874744Y-49945911D01*
X113619000Y-49945911D01*
X113619000Y-50130089D01*
X113654932Y-50310729D01*
X113725414Y-50480889D01*
X113794000Y-50583536D01*
X113794001Y-52032668D01*
X113790324Y-52070000D01*
X113804998Y-52218985D01*
X113848454Y-52362246D01*
X113919026Y-52494276D01*
X113976927Y-52564828D01*
X114014000Y-52610001D01*
X114042998Y-52633799D01*
X114900847Y-53491649D01*
X114924932Y-53612729D01*
X114995414Y-53782889D01*
X115097738Y-53936028D01*
X115227972Y-54066262D01*
X115381111Y-54168586D01*
X115551271Y-54239068D01*
X115731911Y-54275000D01*
X115916089Y-54275000D01*
X116096729Y-54239068D01*
X116266889Y-54168586D01*
X116420028Y-54066262D01*
X116550262Y-53936028D01*
X116652586Y-53782889D01*
X116723068Y-53612729D01*
X116759000Y-53432089D01*
X116759000Y-53247911D01*
X116723068Y-53067271D01*
X116652586Y-52897111D01*
X116550262Y-52743972D01*
X116420028Y-52613738D01*
X116266889Y-52511414D01*
X116096729Y-52440932D01*
X115975649Y-52416847D01*
X115314000Y-51755199D01*
X115314000Y-50961911D01*
X119207000Y-50961911D01*
X119207000Y-51146089D01*
X119242932Y-51326729D01*
X119313414Y-51496889D01*
X119415738Y-51650028D01*
X119545972Y-51780262D01*
X119699111Y-51882586D01*
X119869271Y-51953068D01*
X120049911Y-51989000D01*
X120234089Y-51989000D01*
X120414729Y-51953068D01*
X120584889Y-51882586D01*
X120687535Y-51814000D01*
X126685199Y-51814000D01*
X127092847Y-52221649D01*
X127116932Y-52342729D01*
X127187414Y-52512889D01*
X127289738Y-52666028D01*
X127419972Y-52796262D01*
X127573111Y-52898586D01*
X127743271Y-52969068D01*
X127923911Y-53005000D01*
X128108089Y-53005000D01*
X128288729Y-52969068D01*
X128458889Y-52898586D01*
X128612028Y-52796262D01*
X128742262Y-52666028D01*
X128844586Y-52512889D01*
X128915068Y-52342729D01*
X128951000Y-52162089D01*
X128951000Y-51977911D01*
X128915068Y-51797271D01*
X128844586Y-51627111D01*
X128742262Y-51473972D01*
X128612028Y-51343738D01*
X128458889Y-51241414D01*
X128288729Y-51170932D01*
X128167649Y-51146847D01*
X127563804Y-50543002D01*
X127540001Y-50513999D01*
X127424276Y-50419026D01*
X127292247Y-50348454D01*
X127148986Y-50304997D01*
X127037333Y-50294000D01*
X127037322Y-50294000D01*
X127000000Y-50290324D01*
X126962678Y-50294000D01*
X120687535Y-50294000D01*
X120584889Y-50225414D01*
X120414729Y-50154932D01*
X120234089Y-50119000D01*
X120049911Y-50119000D01*
X119869271Y-50154932D01*
X119699111Y-50225414D01*
X119545972Y-50327738D01*
X119415738Y-50457972D01*
X119313414Y-50611111D01*
X119242932Y-50781271D01*
X119207000Y-50961911D01*
X115314000Y-50961911D01*
X115314000Y-50583535D01*
X115382586Y-50480889D01*
X115453068Y-50310729D01*
X115489000Y-50130089D01*
X115489000Y-49945911D01*
X115453068Y-49765271D01*
X115382586Y-49595111D01*
X115280262Y-49441972D01*
X115150028Y-49311738D01*
X114996889Y-49209414D01*
X114826729Y-49138932D01*
X114646089Y-49103000D01*
X114461911Y-49103000D01*
X114281271Y-49138932D01*
X114111111Y-49209414D01*
X113957972Y-49311738D01*
X113827738Y-49441972D01*
X113725414Y-49595111D01*
X113654932Y-49765271D01*
X113619000Y-49945911D01*
X107874744Y-49945911D01*
X109723307Y-49358487D01*
X112073960Y-48775997D01*
X114457387Y-48346885D01*
X116863593Y-48072951D01*
X119282484Y-47955346D01*
X121703914Y-47994561D01*
%TA.AperFunction,Conductor*%
D20*
G36*
X121703914Y-47994561D02*
G01*
X124117728Y-48190434D01*
X126513801Y-48542141D01*
X128882084Y-49048207D01*
X131212642Y-49706511D01*
X133495700Y-50514291D01*
X135721683Y-51468159D01*
X137881254Y-52564114D01*
X139965355Y-53797559D01*
X141965245Y-55163321D01*
X143872535Y-56655671D01*
X145679225Y-58268350D01*
X147377739Y-59994594D01*
X148960950Y-61827162D01*
X150422220Y-63758368D01*
X151755418Y-65780111D01*
X152954954Y-67883912D01*
X154015795Y-70060947D01*
X154933492Y-72302084D01*
X155704197Y-74597924D01*
X156324675Y-76938836D01*
X156792326Y-79315002D01*
X157105187Y-81716457D01*
X157261947Y-84133126D01*
X157261947Y-86554874D01*
X157105187Y-88971543D01*
X156792326Y-91372998D01*
X156324675Y-93749164D01*
X155704197Y-96090076D01*
X154933492Y-98385916D01*
X154015795Y-100627053D01*
X152954954Y-102804088D01*
X151755418Y-104907889D01*
X150422220Y-106929632D01*
X148960950Y-108860838D01*
X147377739Y-110693406D01*
X145679225Y-112419650D01*
X143872535Y-114032329D01*
X141965245Y-115524679D01*
X139965355Y-116890441D01*
X137881254Y-118123886D01*
X135721683Y-119219841D01*
X133495700Y-120173709D01*
X131212642Y-120981489D01*
X128882084Y-121639793D01*
X126513801Y-122145859D01*
X124117728Y-122497566D01*
X121703914Y-122693439D01*
X119282484Y-122732654D01*
X116863593Y-122615049D01*
X114457387Y-122341115D01*
X112073960Y-121912003D01*
X109723307Y-121329513D01*
X107415288Y-120596086D01*
X105159584Y-119714800D01*
X102965657Y-118689351D01*
X100842707Y-117524039D01*
X98799641Y-116223754D01*
X96845026Y-114793948D01*
X94987061Y-113240619D01*
X93233540Y-111570282D01*
X92666601Y-110955474D01*
X98848319Y-110955474D01*
X98848319Y-111376032D01*
X98930366Y-111788509D01*
X99091307Y-112177055D01*
X99324956Y-112526736D01*
X99622336Y-112824116D01*
X99972017Y-113057765D01*
X100360563Y-113218706D01*
X100773040Y-113300753D01*
X101193598Y-113300753D01*
X101606075Y-113218706D01*
X101994621Y-113057765D01*
X102344302Y-112824116D01*
X102641682Y-112526736D01*
X102875331Y-112177055D01*
X102876708Y-112173731D01*
X102903390Y-112213664D01*
X103200770Y-112511044D01*
X103550451Y-112744693D01*
X103938997Y-112905634D01*
X104351474Y-112987681D01*
X104772032Y-112987681D01*
X105184509Y-112905634D01*
X105573055Y-112744693D01*
X105922736Y-112511044D01*
X106220116Y-112213664D01*
X106453765Y-111863983D01*
X106614706Y-111475437D01*
X106696753Y-111062960D01*
X106696753Y-110642402D01*
X106614706Y-110229925D01*
X106453765Y-109841379D01*
X106220116Y-109491698D01*
X106183254Y-109454836D01*
X135747901Y-109454836D01*
X135916049Y-109823614D01*
X136280618Y-110061502D01*
X136735126Y-110250001D01*
X137217676Y-110346207D01*
X137709722Y-110346425D01*
X138192357Y-110250644D01*
X138647031Y-110062546D01*
X138876802Y-109728735D01*
X137449146Y-108027322D01*
X135747901Y-109454836D01*
X106183254Y-109454836D01*
X105922736Y-109194318D01*
X105573055Y-108960669D01*
X105569731Y-108959292D01*
X105609664Y-108932610D01*
X105907044Y-108635230D01*
X106140693Y-108285549D01*
X106301634Y-107897003D01*
X106349168Y-107658030D01*
X134962027Y-107658030D01*
X134972978Y-108149955D01*
X135079689Y-108630291D01*
X135250656Y-109030629D01*
X135584633Y-109260261D01*
X137248566Y-107864054D01*
X137643722Y-107864054D01*
X139071377Y-109565467D01*
X139440016Y-109397153D01*
X139704210Y-108982049D01*
X139882344Y-108523379D01*
X139967573Y-108038770D01*
X139956622Y-107546845D01*
X139849911Y-107066509D01*
X139678944Y-106666171D01*
X139344967Y-106436539D01*
X137643722Y-107864054D01*
X137248566Y-107864054D01*
X137285878Y-107832746D01*
X135858223Y-106131333D01*
X135489584Y-106299647D01*
X135225390Y-106714751D01*
X135047256Y-107173421D01*
X134962027Y-107658030D01*
X106349168Y-107658030D01*
X106383681Y-107484526D01*
X106383681Y-107063968D01*
X106301634Y-106651491D01*
X106140693Y-106262945D01*
X105907044Y-105913264D01*
X105609664Y-105615884D01*
X105259983Y-105382235D01*
X104871437Y-105221294D01*
X104458960Y-105139247D01*
X104038402Y-105139247D01*
X103625925Y-105221294D01*
X103237379Y-105382235D01*
X102887698Y-105615884D01*
X102590318Y-105913264D01*
X102356669Y-106262945D01*
X102195728Y-106651491D01*
X102113681Y-107063968D01*
X102113681Y-107484526D01*
X102195728Y-107897003D01*
X102356669Y-108285549D01*
X102590318Y-108635230D01*
X102887698Y-108932610D01*
X103237379Y-109166259D01*
X103240703Y-109167636D01*
X103200770Y-109194318D01*
X102903390Y-109491698D01*
X102669741Y-109841379D01*
X102668364Y-109844703D01*
X102641682Y-109804770D01*
X102344302Y-109507390D01*
X101994621Y-109273741D01*
X101606075Y-109112800D01*
X101193598Y-109030753D01*
X100773040Y-109030753D01*
X100360563Y-109112800D01*
X99972017Y-109273741D01*
X99622336Y-109507390D01*
X99324956Y-109804770D01*
X99091307Y-110154451D01*
X98930366Y-110542997D01*
X98848319Y-110955474D01*
X92666601Y-110955474D01*
X91591816Y-109789942D01*
X90068777Y-107907068D01*
X88670810Y-105929556D01*
X87403778Y-103865702D01*
X87212438Y-103503329D01*
X95059618Y-103503329D01*
X95059618Y-103687507D01*
X95095550Y-103868147D01*
X95166032Y-104038307D01*
X95268356Y-104191446D01*
X95398590Y-104321680D01*
X95551729Y-104424004D01*
X95721889Y-104494486D01*
X95902529Y-104530418D01*
X96086707Y-104530418D01*
X96267347Y-104494486D01*
X96437507Y-104424004D01*
X96540153Y-104355418D01*
X112911462Y-104355418D01*
X112948784Y-104359094D01*
X112986106Y-104355418D01*
X112986117Y-104355418D01*
X113097770Y-104344421D01*
X113241031Y-104300964D01*
X113373060Y-104230392D01*
X113488785Y-104135419D01*
X113512588Y-104106415D01*
X115985131Y-101633872D01*
X125273000Y-101633872D01*
X125273000Y-102074128D01*
X125358890Y-102505925D01*
X125527369Y-102912669D01*
X125771962Y-103278729D01*
X126083271Y-103590038D01*
X126449331Y-103834631D01*
X126856075Y-104003110D01*
X127287872Y-104089000D01*
X127728128Y-104089000D01*
X128159925Y-104003110D01*
X128566669Y-103834631D01*
X128753670Y-103709681D01*
X131689438Y-103709681D01*
X131689438Y-104204107D01*
X131785896Y-104689034D01*
X131975105Y-105145825D01*
X132249794Y-105556926D01*
X132599406Y-105906538D01*
X133010507Y-106181227D01*
X133467298Y-106370436D01*
X133952225Y-106466894D01*
X134446651Y-106466894D01*
X134931578Y-106370436D01*
X135388369Y-106181227D01*
X135707388Y-105968065D01*
X136052798Y-105968065D01*
X137480454Y-107669478D01*
X139181699Y-106241964D01*
X139013551Y-105873186D01*
X138648982Y-105635298D01*
X138194474Y-105446799D01*
X137711924Y-105350593D01*
X137219878Y-105350375D01*
X136737243Y-105446156D01*
X136282569Y-105634254D01*
X136052798Y-105968065D01*
X135707388Y-105968065D01*
X135799470Y-105906538D01*
X136149082Y-105556926D01*
X136423771Y-105145825D01*
X136612980Y-104689034D01*
X136701530Y-104243863D01*
X138006558Y-104243863D01*
X138174872Y-104612502D01*
X138589976Y-104876696D01*
X139048646Y-105054830D01*
X139533255Y-105140059D01*
X140025180Y-105129108D01*
X140505516Y-105022397D01*
X140905854Y-104851430D01*
X141135486Y-104517453D01*
X139707971Y-102816208D01*
X138006558Y-104243863D01*
X136701530Y-104243863D01*
X136709438Y-104204107D01*
X136709438Y-103709681D01*
X136612980Y-103224754D01*
X136471093Y-102882208D01*
X137225600Y-102882208D01*
X137321381Y-103364843D01*
X137509479Y-103819517D01*
X137843290Y-104049288D01*
X139507391Y-102652940D01*
X139902547Y-102652940D01*
X141330061Y-104354185D01*
X141698839Y-104186037D01*
X141936727Y-103821468D01*
X142125226Y-103366960D01*
X142221432Y-102884410D01*
X142221650Y-102392364D01*
X142125869Y-101909729D01*
X141937771Y-101455055D01*
X141603960Y-101225284D01*
X139902547Y-102652940D01*
X139507391Y-102652940D01*
X139544703Y-102621632D01*
X138117189Y-100920387D01*
X137748411Y-101088535D01*
X137510523Y-101453104D01*
X137322024Y-101907612D01*
X137225818Y-102390162D01*
X137225600Y-102882208D01*
X136471093Y-102882208D01*
X136423771Y-102767963D01*
X136149082Y-102356862D01*
X135799470Y-102007250D01*
X135388369Y-101732561D01*
X134931578Y-101543352D01*
X134446651Y-101446894D01*
X133952225Y-101446894D01*
X133467298Y-101543352D01*
X133010507Y-101732561D01*
X132599406Y-102007250D01*
X132249794Y-102356862D01*
X131975105Y-102767963D01*
X131785896Y-103224754D01*
X131689438Y-103709681D01*
X128753670Y-103709681D01*
X128932729Y-103590038D01*
X129244038Y-103278729D01*
X129488631Y-102912669D01*
X129657110Y-102505925D01*
X129743000Y-102074128D01*
X129743000Y-101633872D01*
X129657110Y-101202075D01*
X129488631Y-100795331D01*
X129463099Y-100757119D01*
X138311764Y-100757119D01*
X139739279Y-102458364D01*
X141440692Y-101030709D01*
X141272378Y-100662070D01*
X140857274Y-100397876D01*
X140398604Y-100219742D01*
X139913995Y-100134513D01*
X139422070Y-100145464D01*
X138941734Y-100252175D01*
X138541396Y-100423142D01*
X138311764Y-100757119D01*
X129463099Y-100757119D01*
X129244038Y-100429271D01*
X128932729Y-100117962D01*
X128566669Y-99873369D01*
X128159925Y-99704890D01*
X127728128Y-99619000D01*
X127287872Y-99619000D01*
X126856075Y-99704890D01*
X126449331Y-99873369D01*
X126083271Y-100117962D01*
X125771962Y-100429271D01*
X125527369Y-100795331D01*
X125358890Y-101202075D01*
X125273000Y-101633872D01*
X115985131Y-101633872D01*
X124358905Y-93260098D01*
X137823000Y-93260098D01*
X137823000Y-93729902D01*
X137914654Y-94190679D01*
X138094440Y-94624721D01*
X138355450Y-95015349D01*
X138687651Y-95347550D01*
X139078279Y-95608560D01*
X139512321Y-95788346D01*
X139973098Y-95880000D01*
X140442902Y-95880000D01*
X140903679Y-95788346D01*
X141337721Y-95608560D01*
X141728349Y-95347550D01*
X142060550Y-95015349D01*
X142321560Y-94624721D01*
X142501346Y-94190679D01*
X142593000Y-93729902D01*
X142593000Y-93260098D01*
X142501346Y-92799321D01*
X142321560Y-92365279D01*
X142060550Y-91974651D01*
X141728349Y-91642450D01*
X141337721Y-91381440D01*
X140903679Y-91201654D01*
X140442902Y-91110000D01*
X139973098Y-91110000D01*
X139512321Y-91201654D01*
X139078279Y-91381440D01*
X138687651Y-91642450D01*
X138355450Y-91974651D01*
X138094440Y-92365279D01*
X137914654Y-92799321D01*
X137823000Y-93260098D01*
X124358905Y-93260098D01*
X136854002Y-80765002D01*
X136883000Y-80741204D01*
X136909331Y-80709120D01*
X136977973Y-80625480D01*
X137048545Y-80493450D01*
X137082167Y-80382610D01*
X137092002Y-80350189D01*
X137102999Y-80238536D01*
X137102999Y-80238527D01*
X137106675Y-80201204D01*
X137102999Y-80163881D01*
X137102999Y-78262441D01*
X137220257Y-78311011D01*
X137516816Y-78370000D01*
X137819184Y-78370000D01*
X138115743Y-78311011D01*
X138395095Y-78195299D01*
X138646505Y-78027312D01*
X138860312Y-77813505D01*
X138941367Y-77692198D01*
X139076351Y-77872116D01*
X139300427Y-78072962D01*
X139559380Y-78226234D01*
X139843259Y-78326041D01*
X140081000Y-78205992D01*
X140081000Y-76962000D01*
X140061000Y-76962000D01*
X140061000Y-76708000D01*
X140081000Y-76708000D01*
X140081000Y-75464008D01*
X140335000Y-75464008D01*
X140335000Y-76708000D01*
X140355000Y-76708000D01*
X140355000Y-76962000D01*
X140335000Y-76962000D01*
X140335000Y-78205992D01*
X140572741Y-78326041D01*
X140856620Y-78226234D01*
X141115573Y-78072962D01*
X141250311Y-77952192D01*
X141258498Y-77979180D01*
X141317463Y-78089494D01*
X141396815Y-78186185D01*
X141493506Y-78265537D01*
X141603820Y-78324502D01*
X141723518Y-78360812D01*
X141848000Y-78373072D01*
X143648000Y-78373072D01*
X143772482Y-78360812D01*
X143892180Y-78324502D01*
X144002494Y-78265537D01*
X144099185Y-78186185D01*
X144178537Y-78089494D01*
X144237502Y-77979180D01*
X144273812Y-77859482D01*
X144286072Y-77735000D01*
X144286072Y-75935000D01*
X144273812Y-75810518D01*
X144237502Y-75690820D01*
X144178537Y-75580506D01*
X144099185Y-75483815D01*
X144002494Y-75404463D01*
X143892180Y-75345498D01*
X143772482Y-75309188D01*
X143648000Y-75296928D01*
X141848000Y-75296928D01*
X141723518Y-75309188D01*
X141603820Y-75345498D01*
X141493506Y-75404463D01*
X141396815Y-75483815D01*
X141317463Y-75580506D01*
X141258498Y-75690820D01*
X141250311Y-75717808D01*
X141115573Y-75597038D01*
X140856620Y-75443766D01*
X140572741Y-75343959D01*
X140335000Y-75464008D01*
X140081000Y-75464008D01*
X139843259Y-75343959D01*
X139559380Y-75443766D01*
X139300427Y-75597038D01*
X139076351Y-75797884D01*
X138941367Y-75977802D01*
X138860312Y-75856495D01*
X138646505Y-75642688D01*
X138395095Y-75474701D01*
X138115743Y-75358989D01*
X137974842Y-75330962D01*
X138542004Y-74763800D01*
X138571002Y-74740002D01*
X138665975Y-74624277D01*
X138736547Y-74492248D01*
X138780004Y-74348987D01*
X138791001Y-74237334D01*
X138791001Y-74237325D01*
X138794677Y-74200002D01*
X138791001Y-74162679D01*
X138791001Y-62821937D01*
X138919271Y-62875068D01*
X139099911Y-62911000D01*
X139284089Y-62911000D01*
X139464729Y-62875068D01*
X139634889Y-62804586D01*
X139788028Y-62702262D01*
X139918262Y-62572028D01*
X140020586Y-62418889D01*
X140091068Y-62248729D01*
X140127000Y-62068089D01*
X140127000Y-61883911D01*
X140091068Y-61703271D01*
X140027000Y-61548596D01*
X140027000Y-58823016D01*
X140031040Y-58781997D01*
X140014918Y-58618309D01*
X139967172Y-58460911D01*
X139889636Y-58315852D01*
X139844313Y-58260626D01*
X139785291Y-58188707D01*
X139753427Y-58162557D01*
X137671448Y-56080579D01*
X137645293Y-56048709D01*
X137518148Y-55944364D01*
X137373089Y-55866828D01*
X137215691Y-55819082D01*
X137093021Y-55807000D01*
X137093020Y-55807000D01*
X137052002Y-55802960D01*
X137010984Y-55807000D01*
X135809404Y-55807000D01*
X135654729Y-55742932D01*
X135474089Y-55707000D01*
X135289911Y-55707000D01*
X135109271Y-55742932D01*
X134939111Y-55813414D01*
X134785972Y-55915738D01*
X134655738Y-56045972D01*
X134553414Y-56199111D01*
X134482932Y-56369271D01*
X134447000Y-56549911D01*
X134447000Y-56734089D01*
X134482932Y-56914729D01*
X134512461Y-56986020D01*
X134507335Y-56985000D01*
X134224665Y-56985000D01*
X133947426Y-57040147D01*
X133686273Y-57148320D01*
X133451241Y-57305363D01*
X133251363Y-57505241D01*
X133096000Y-57737759D01*
X132940637Y-57505241D01*
X132740759Y-57305363D01*
X132505727Y-57148320D01*
X132244574Y-57040147D01*
X131967335Y-56985000D01*
X131684665Y-56985000D01*
X131407426Y-57040147D01*
X131146273Y-57148320D01*
X130911241Y-57305363D01*
X130711363Y-57505241D01*
X130556000Y-57737759D01*
X130400637Y-57505241D01*
X130200759Y-57305363D01*
X129965727Y-57148320D01*
X129704574Y-57040147D01*
X129427335Y-56985000D01*
X129144665Y-56985000D01*
X128867426Y-57040147D01*
X128606273Y-57148320D01*
X128371241Y-57305363D01*
X128171363Y-57505241D01*
X128016000Y-57737759D01*
X127860637Y-57505241D01*
X127660759Y-57305363D01*
X127425727Y-57148320D01*
X127164574Y-57040147D01*
X126887335Y-56985000D01*
X126604665Y-56985000D01*
X126327426Y-57040147D01*
X126066273Y-57148320D01*
X125831241Y-57305363D01*
X125631363Y-57505241D01*
X125476000Y-57737759D01*
X125320637Y-57505241D01*
X125120759Y-57305363D01*
X124885727Y-57148320D01*
X124624574Y-57040147D01*
X124347335Y-56985000D01*
X124064665Y-56985000D01*
X123787426Y-57040147D01*
X123526273Y-57148320D01*
X123291241Y-57305363D01*
X123091363Y-57505241D01*
X122936000Y-57737759D01*
X122780637Y-57505241D01*
X122580759Y-57305363D01*
X122345727Y-57148320D01*
X122084574Y-57040147D01*
X121807335Y-56985000D01*
X121524665Y-56985000D01*
X121247426Y-57040147D01*
X120986273Y-57148320D01*
X120751241Y-57305363D01*
X120551363Y-57505241D01*
X120396000Y-57737759D01*
X120240637Y-57505241D01*
X120040759Y-57305363D01*
X119805727Y-57148320D01*
X119544574Y-57040147D01*
X119267335Y-56985000D01*
X118984665Y-56985000D01*
X118707426Y-57040147D01*
X118446273Y-57148320D01*
X118211241Y-57305363D01*
X118011363Y-57505241D01*
X117856000Y-57737759D01*
X117700637Y-57505241D01*
X117500759Y-57305363D01*
X117265727Y-57148320D01*
X117004574Y-57040147D01*
X116727335Y-56985000D01*
X116444665Y-56985000D01*
X116167426Y-57040147D01*
X115906273Y-57148320D01*
X115671241Y-57305363D01*
X115471363Y-57505241D01*
X115316000Y-57737759D01*
X115160637Y-57505241D01*
X114960759Y-57305363D01*
X114725727Y-57148320D01*
X114464574Y-57040147D01*
X114187335Y-56985000D01*
X113904665Y-56985000D01*
X113627426Y-57040147D01*
X113366273Y-57148320D01*
X113131241Y-57305363D01*
X112931363Y-57505241D01*
X112776000Y-57737759D01*
X112620637Y-57505241D01*
X112420759Y-57305363D01*
X112185727Y-57148320D01*
X111924574Y-57040147D01*
X111647335Y-56985000D01*
X111364665Y-56985000D01*
X111087426Y-57040147D01*
X110826273Y-57148320D01*
X110591241Y-57305363D01*
X110391363Y-57505241D01*
X110236000Y-57737759D01*
X110080637Y-57505241D01*
X109880759Y-57305363D01*
X109645727Y-57148320D01*
X109384574Y-57040147D01*
X109107335Y-56985000D01*
X108824665Y-56985000D01*
X108547426Y-57040147D01*
X108286273Y-57148320D01*
X108051241Y-57305363D01*
X107851363Y-57505241D01*
X107696000Y-57737759D01*
X107540637Y-57505241D01*
X107340759Y-57305363D01*
X107105727Y-57148320D01*
X106844574Y-57040147D01*
X106567335Y-56985000D01*
X106284665Y-56985000D01*
X106007426Y-57040147D01*
X105746273Y-57148320D01*
X105511241Y-57305363D01*
X105312643Y-57503961D01*
X105311812Y-57495518D01*
X105275502Y-57375820D01*
X105216537Y-57265506D01*
X105137185Y-57168815D01*
X105040494Y-57089463D01*
X104930180Y-57030498D01*
X104810482Y-56994188D01*
X104686000Y-56981928D01*
X103086000Y-56981928D01*
X102961518Y-56994188D01*
X102841820Y-57030498D01*
X102731506Y-57089463D01*
X102634815Y-57168815D01*
X102555463Y-57265506D01*
X102496498Y-57375820D01*
X102460188Y-57495518D01*
X102447928Y-57620000D01*
X102447928Y-59220000D01*
X102460188Y-59344482D01*
X102496498Y-59464180D01*
X102555463Y-59574494D01*
X102634815Y-59671185D01*
X102731506Y-59750537D01*
X102841820Y-59809502D01*
X102961518Y-59845812D01*
X103086000Y-59858072D01*
X104686000Y-59858072D01*
X104810482Y-59845812D01*
X104930180Y-59809502D01*
X105040494Y-59750537D01*
X105137185Y-59671185D01*
X105216537Y-59574494D01*
X105275502Y-59464180D01*
X105311812Y-59344482D01*
X105312643Y-59336039D01*
X105511241Y-59534637D01*
X105746273Y-59691680D01*
X106007426Y-59799853D01*
X106284665Y-59855000D01*
X106567335Y-59855000D01*
X106844574Y-59799853D01*
X107105727Y-59691680D01*
X107340759Y-59534637D01*
X107540637Y-59334759D01*
X107696000Y-59102241D01*
X107851363Y-59334759D01*
X108051241Y-59534637D01*
X108286273Y-59691680D01*
X108547426Y-59799853D01*
X108824665Y-59855000D01*
X109107335Y-59855000D01*
X109384574Y-59799853D01*
X109645727Y-59691680D01*
X109880759Y-59534637D01*
X110080637Y-59334759D01*
X110236000Y-59102241D01*
X110391363Y-59334759D01*
X110591241Y-59534637D01*
X110826273Y-59691680D01*
X111087426Y-59799853D01*
X111364665Y-59855000D01*
X111647335Y-59855000D01*
X111924574Y-59799853D01*
X112185727Y-59691680D01*
X112420759Y-59534637D01*
X112620637Y-59334759D01*
X112776000Y-59102241D01*
X112931363Y-59334759D01*
X113131241Y-59534637D01*
X113366273Y-59691680D01*
X113627426Y-59799853D01*
X113904665Y-59855000D01*
X114187335Y-59855000D01*
X114464574Y-59799853D01*
X114725727Y-59691680D01*
X114960759Y-59534637D01*
X115160637Y-59334759D01*
X115316000Y-59102241D01*
X115471363Y-59334759D01*
X115671241Y-59534637D01*
X115906273Y-59691680D01*
X116167426Y-59799853D01*
X116444665Y-59855000D01*
X116727335Y-59855000D01*
X117004574Y-59799853D01*
X117265727Y-59691680D01*
X117500759Y-59534637D01*
X117700637Y-59334759D01*
X117856000Y-59102241D01*
X118011363Y-59334759D01*
X118211241Y-59534637D01*
X118446273Y-59691680D01*
X118707426Y-59799853D01*
X118984665Y-59855000D01*
X119267335Y-59855000D01*
X119316200Y-59845280D01*
X119304647Y-59883365D01*
X119293650Y-59995018D01*
X119293650Y-59995028D01*
X119289974Y-60032350D01*
X119293650Y-60069673D01*
X119293651Y-64066609D01*
X119225064Y-64169257D01*
X119154582Y-64339417D01*
X119118650Y-64520057D01*
X119118650Y-64704235D01*
X119154582Y-64884875D01*
X119225064Y-65055035D01*
X119327388Y-65208174D01*
X119457622Y-65338408D01*
X119610761Y-65440732D01*
X119780921Y-65511214D01*
X119961561Y-65547146D01*
X120145739Y-65547146D01*
X120326379Y-65511214D01*
X120496539Y-65440732D01*
X120649678Y-65338408D01*
X120779912Y-65208174D01*
X120882236Y-65055035D01*
X120952718Y-64884875D01*
X120988650Y-64704235D01*
X120988650Y-64520057D01*
X120952718Y-64339417D01*
X120882236Y-64169257D01*
X120813650Y-64066611D01*
X120813650Y-60347151D01*
X121342114Y-59818688D01*
X121524665Y-59855000D01*
X121807335Y-59855000D01*
X122084574Y-59799853D01*
X122345727Y-59691680D01*
X122580759Y-59534637D01*
X122780637Y-59334759D01*
X122936000Y-59102241D01*
X123091363Y-59334759D01*
X123291241Y-59534637D01*
X123526273Y-59691680D01*
X123787426Y-59799853D01*
X124064665Y-59855000D01*
X124347335Y-59855000D01*
X124536022Y-59817467D01*
X124581723Y-59854973D01*
X124713752Y-59925545D01*
X124857013Y-59969002D01*
X124968666Y-59979999D01*
X124968675Y-59979999D01*
X125005998Y-59983675D01*
X125043321Y-59979999D01*
X125566196Y-59979999D01*
X125642195Y-60055998D01*
X125665998Y-60085002D01*
X125781723Y-60179975D01*
X125913752Y-60250547D01*
X126057013Y-60294004D01*
X126168666Y-60305001D01*
X126168675Y-60305001D01*
X126205998Y-60308677D01*
X126243321Y-60305001D01*
X126919790Y-60305001D01*
X127329299Y-60714511D01*
X127353098Y-60743510D01*
X127382096Y-60767308D01*
X127468822Y-60838483D01*
X127580278Y-60898058D01*
X127600852Y-60909055D01*
X127744113Y-60952512D01*
X127855766Y-60963509D01*
X127855776Y-60963509D01*
X127893099Y-60967185D01*
X127930422Y-60963509D01*
X131905114Y-60963509D01*
X132272501Y-61330897D01*
X132272500Y-72291714D01*
X132244574Y-72280147D01*
X131967335Y-72225000D01*
X131684665Y-72225000D01*
X131407426Y-72280147D01*
X131146273Y-72388320D01*
X130911241Y-72545363D01*
X130711363Y-72745241D01*
X130607957Y-72900000D01*
X130504043Y-72900000D01*
X130400637Y-72745241D01*
X130200759Y-72545363D01*
X129965727Y-72388320D01*
X129704574Y-72280147D01*
X129427335Y-72225000D01*
X129144665Y-72225000D01*
X128867426Y-72280147D01*
X128606273Y-72388320D01*
X128371241Y-72545363D01*
X128171363Y-72745241D01*
X128016000Y-72977759D01*
X127860637Y-72745241D01*
X127660759Y-72545363D01*
X127425727Y-72388320D01*
X127164574Y-72280147D01*
X126887335Y-72225000D01*
X126604665Y-72225000D01*
X126327426Y-72280147D01*
X126066273Y-72388320D01*
X125831241Y-72545363D01*
X125631363Y-72745241D01*
X125476000Y-72977759D01*
X125320637Y-72745241D01*
X125120759Y-72545363D01*
X124885727Y-72388320D01*
X124624574Y-72280147D01*
X124347335Y-72225000D01*
X124064665Y-72225000D01*
X123787426Y-72280147D01*
X123526273Y-72388320D01*
X123291241Y-72545363D01*
X123091363Y-72745241D01*
X122936000Y-72977759D01*
X122780637Y-72745241D01*
X122580759Y-72545363D01*
X122345727Y-72388320D01*
X122084574Y-72280147D01*
X121807335Y-72225000D01*
X121524665Y-72225000D01*
X121247426Y-72280147D01*
X121011001Y-72378077D01*
X121011001Y-67603704D01*
X121014677Y-67566381D01*
X121011001Y-67529058D01*
X121011001Y-67529048D01*
X121000004Y-67417395D01*
X120956547Y-67274134D01*
X120917000Y-67200147D01*
X120885975Y-67142104D01*
X120814800Y-67055378D01*
X120791002Y-67026380D01*
X120762004Y-67002582D01*
X117002424Y-63243003D01*
X116978621Y-63213999D01*
X116862896Y-63119026D01*
X116730867Y-63048454D01*
X116587606Y-63004997D01*
X116475953Y-62994000D01*
X116475942Y-62994000D01*
X116438620Y-62990324D01*
X116401298Y-62994000D01*
X109003535Y-62994000D01*
X108900889Y-62925414D01*
X108730729Y-62854932D01*
X108550089Y-62819000D01*
X108365911Y-62819000D01*
X108185271Y-62854932D01*
X108015111Y-62925414D01*
X107861972Y-63027738D01*
X107731738Y-63157972D01*
X107629414Y-63311111D01*
X107558932Y-63481271D01*
X107523000Y-63661911D01*
X107523000Y-63846089D01*
X107558932Y-64026729D01*
X107629414Y-64196889D01*
X107731738Y-64350028D01*
X107861972Y-64480262D01*
X108015111Y-64582586D01*
X108185271Y-64653068D01*
X108365911Y-64689000D01*
X108550089Y-64689000D01*
X108730729Y-64653068D01*
X108900889Y-64582586D01*
X109003535Y-64514000D01*
X116123819Y-64514000D01*
X117780186Y-66170368D01*
X117690912Y-66188126D01*
X117520752Y-66258608D01*
X117367613Y-66360932D01*
X117237379Y-66491166D01*
X117135055Y-66644305D01*
X117064573Y-66814465D01*
X117028641Y-66995105D01*
X117028641Y-67179283D01*
X117064573Y-67359923D01*
X117135055Y-67530083D01*
X117211173Y-67644002D01*
X117211173Y-69825723D01*
X117004574Y-69740147D01*
X116727335Y-69685000D01*
X116444665Y-69685000D01*
X116167426Y-69740147D01*
X115906273Y-69848320D01*
X115671241Y-70005363D01*
X115471363Y-70205241D01*
X115316000Y-70437759D01*
X115160637Y-70205241D01*
X114960759Y-70005363D01*
X114725727Y-69848320D01*
X114464574Y-69740147D01*
X114187335Y-69685000D01*
X113904665Y-69685000D01*
X113627426Y-69740147D01*
X113366273Y-69848320D01*
X113131241Y-70005363D01*
X112931363Y-70205241D01*
X112776000Y-70437759D01*
X112620637Y-70205241D01*
X112420759Y-70005363D01*
X112185727Y-69848320D01*
X111924574Y-69740147D01*
X111647335Y-69685000D01*
X111364665Y-69685000D01*
X111087426Y-69740147D01*
X110826273Y-69848320D01*
X110591241Y-70005363D01*
X110391363Y-70205241D01*
X110234320Y-70440273D01*
X110126147Y-70701426D01*
X110071000Y-70978665D01*
X110071000Y-71261335D01*
X110126147Y-71538574D01*
X110234320Y-71799727D01*
X110391363Y-72034759D01*
X110591241Y-72234637D01*
X110823759Y-72390000D01*
X110591241Y-72545363D01*
X110391363Y-72745241D01*
X110236000Y-72977759D01*
X110080637Y-72745241D01*
X109880759Y-72545363D01*
X109645727Y-72388320D01*
X109384574Y-72280147D01*
X109107335Y-72225000D01*
X108824665Y-72225000D01*
X108547426Y-72280147D01*
X108286273Y-72388320D01*
X108051241Y-72545363D01*
X107851363Y-72745241D01*
X107695085Y-72979128D01*
X107662671Y-72918486D01*
X107418702Y-72846903D01*
X106605605Y-73660000D01*
X107418702Y-74473097D01*
X107662671Y-74401514D01*
X107693194Y-74337008D01*
X107694320Y-74339727D01*
X107851363Y-74574759D01*
X108051241Y-74774637D01*
X108286273Y-74931680D01*
X108547426Y-75039853D01*
X108824665Y-75095000D01*
X108935036Y-75095000D01*
X108935035Y-77548660D01*
X104781851Y-81701845D01*
X104749987Y-81727995D01*
X104669184Y-81826454D01*
X104645641Y-81855141D01*
X104568105Y-82000200D01*
X104520359Y-82157598D01*
X104504237Y-82321286D01*
X104508278Y-82362315D01*
X104508277Y-91409425D01*
X104504237Y-91450444D01*
X104508277Y-91491462D01*
X104520359Y-91614132D01*
X104568105Y-91771530D01*
X104645641Y-91916589D01*
X104749986Y-92043735D01*
X104781856Y-92069890D01*
X106745396Y-94033432D01*
X106771542Y-94065291D01*
X106803401Y-94091437D01*
X106803403Y-94091439D01*
X106898687Y-94169636D01*
X107043746Y-94247172D01*
X107201144Y-94294918D01*
X107364833Y-94311040D01*
X107405851Y-94307000D01*
X108388152Y-94307000D01*
X108397084Y-94397690D01*
X108444830Y-94555088D01*
X108482050Y-94624721D01*
X108522367Y-94700148D01*
X108626712Y-94827293D01*
X108658576Y-94853443D01*
X113661346Y-99856214D01*
X113725414Y-100010889D01*
X113827738Y-100164028D01*
X113957972Y-100294262D01*
X114111111Y-100396586D01*
X114281271Y-100467068D01*
X114461911Y-100503000D01*
X114646089Y-100503000D01*
X114826729Y-100467068D01*
X114996889Y-100396586D01*
X115150028Y-100294262D01*
X115161632Y-100282659D01*
X115174187Y-100295214D01*
X112633983Y-102835418D01*
X96540153Y-102835418D01*
X96437507Y-102766832D01*
X96267347Y-102696350D01*
X96086707Y-102660418D01*
X95902529Y-102660418D01*
X95721889Y-102696350D01*
X95551729Y-102766832D01*
X95398590Y-102869156D01*
X95268356Y-102999390D01*
X95166032Y-103152529D01*
X95095550Y-103322689D01*
X95059618Y-103503329D01*
X87212438Y-103503329D01*
X86272997Y-101724161D01*
X85436344Y-99855872D01*
X99111000Y-99855872D01*
X99111000Y-100296128D01*
X99196890Y-100727925D01*
X99365369Y-101134669D01*
X99609962Y-101500729D01*
X99921271Y-101812038D01*
X100287331Y-102056631D01*
X100694075Y-102225110D01*
X101125872Y-102311000D01*
X101566128Y-102311000D01*
X101997925Y-102225110D01*
X102404669Y-102056631D01*
X102770729Y-101812038D01*
X103082038Y-101500729D01*
X103326631Y-101134669D01*
X103495110Y-100727925D01*
X103581000Y-100296128D01*
X103581000Y-99855872D01*
X103495110Y-99424075D01*
X103326631Y-99017331D01*
X103082038Y-98651271D01*
X102770729Y-98339962D01*
X102404669Y-98095369D01*
X101997925Y-97926890D01*
X101566128Y-97841000D01*
X101125872Y-97841000D01*
X100694075Y-97926890D01*
X100287331Y-98095369D01*
X99921271Y-98339962D01*
X99609962Y-98651271D01*
X99365369Y-99017331D01*
X99196890Y-99424075D01*
X99111000Y-99855872D01*
X85436344Y-99855872D01*
X85283209Y-99513916D01*
X84438565Y-97244237D01*
X83742608Y-94924645D01*
X83198258Y-92564868D01*
X82807797Y-90174804D01*
X82572864Y-87764478D01*
X82494443Y-85344000D01*
X82572864Y-82923522D01*
X82807797Y-80513196D01*
X83198258Y-78123132D01*
X83742608Y-75763355D01*
X83753854Y-75725872D01*
X96317000Y-75725872D01*
X96317000Y-76166128D01*
X96402890Y-76597925D01*
X96571369Y-77004669D01*
X96815962Y-77370729D01*
X97127271Y-77682038D01*
X97493331Y-77926631D01*
X97900075Y-78095110D01*
X98331872Y-78181000D01*
X98772128Y-78181000D01*
X99203925Y-78095110D01*
X99610669Y-77926631D01*
X99976729Y-77682038D01*
X100288038Y-77370729D01*
X100532631Y-77004669D01*
X100701110Y-76597925D01*
X100787000Y-76166128D01*
X100787000Y-75725872D01*
X100701110Y-75294075D01*
X100532631Y-74887331D01*
X100288038Y-74521271D01*
X99976729Y-74209962D01*
X99610669Y-73965369D01*
X99203925Y-73796890D01*
X98772128Y-73711000D01*
X98331872Y-73711000D01*
X97900075Y-73796890D01*
X97493331Y-73965369D01*
X97127271Y-74209962D01*
X96815962Y-74521271D01*
X96571369Y-74887331D01*
X96402890Y-75294075D01*
X96317000Y-75725872D01*
X83753854Y-75725872D01*
X84416091Y-73518665D01*
X102451000Y-73518665D01*
X102451000Y-73801335D01*
X102506147Y-74078574D01*
X102614320Y-74339727D01*
X102771363Y-74574759D01*
X102971241Y-74774637D01*
X103206273Y-74931680D01*
X103467426Y-75039853D01*
X103744665Y-75095000D01*
X104027335Y-75095000D01*
X104304574Y-75039853D01*
X104565727Y-74931680D01*
X104800759Y-74774637D01*
X104922694Y-74652702D01*
X105612903Y-74652702D01*
X105684486Y-74896671D01*
X105939996Y-75017571D01*
X106214184Y-75086300D01*
X106496512Y-75100217D01*
X106776130Y-75058787D01*
X107042292Y-74963603D01*
X107167514Y-74896671D01*
X107239097Y-74652702D01*
X106426000Y-73839605D01*
X105612903Y-74652702D01*
X104922694Y-74652702D01*
X105000637Y-74574759D01*
X105156915Y-74340872D01*
X105189329Y-74401514D01*
X105433298Y-74473097D01*
X106246395Y-73660000D01*
X105433298Y-72846903D01*
X105189329Y-72918486D01*
X105158806Y-72982992D01*
X105157680Y-72980273D01*
X105000637Y-72745241D01*
X104800759Y-72545363D01*
X104565727Y-72388320D01*
X104304574Y-72280147D01*
X104027335Y-72225000D01*
X103744665Y-72225000D01*
X103467426Y-72280147D01*
X103206273Y-72388320D01*
X102971241Y-72545363D01*
X102771363Y-72745241D01*
X102614320Y-72980273D01*
X102506147Y-73241426D01*
X102451000Y-73518665D01*
X84416091Y-73518665D01*
X84438565Y-73443763D01*
X85283209Y-71174084D01*
X85370721Y-70978665D01*
X104991000Y-70978665D01*
X104991000Y-71261335D01*
X105046147Y-71538574D01*
X105154320Y-71799727D01*
X105311363Y-72034759D01*
X105511241Y-72234637D01*
X105745128Y-72390915D01*
X105684486Y-72423329D01*
X105612903Y-72667298D01*
X106426000Y-73480395D01*
X107239097Y-72667298D01*
X107167514Y-72423329D01*
X107103008Y-72392806D01*
X107105727Y-72391680D01*
X107340759Y-72234637D01*
X107540637Y-72034759D01*
X107697680Y-71799727D01*
X107805853Y-71538574D01*
X107861000Y-71261335D01*
X107861000Y-70978665D01*
X107805853Y-70701426D01*
X107697680Y-70440273D01*
X107540637Y-70205241D01*
X107340759Y-70005363D01*
X107105727Y-69848320D01*
X106844574Y-69740147D01*
X106567335Y-69685000D01*
X106284665Y-69685000D01*
X106007426Y-69740147D01*
X105746273Y-69848320D01*
X105511241Y-70005363D01*
X105311363Y-70205241D01*
X105154320Y-70440273D01*
X105046147Y-70701426D01*
X104991000Y-70978665D01*
X85370721Y-70978665D01*
X86272997Y-68963839D01*
X87403778Y-66822298D01*
X88670810Y-64758444D01*
X90068777Y-62780932D01*
X91591816Y-60898058D01*
X93233540Y-59117718D01*
X94987061Y-57447381D01*
X96845026Y-55894052D01*
X98799641Y-54464246D01*
X99695079Y-53894355D01*
X96494193Y-57095242D01*
X96339516Y-57159311D01*
X96186377Y-57261635D01*
X96056143Y-57391869D01*
X95953819Y-57545008D01*
X95883337Y-57715168D01*
X95847405Y-57895808D01*
X95847405Y-58079986D01*
X95883337Y-58260626D01*
X95953819Y-58430786D01*
X96056143Y-58583925D01*
X96186377Y-58714159D01*
X96339516Y-58816483D01*
X96509676Y-58886965D01*
X96690316Y-58922897D01*
X96874494Y-58922897D01*
X97055134Y-58886965D01*
X97225294Y-58816483D01*
X97378433Y-58714159D01*
X97508667Y-58583925D01*
X97610991Y-58430786D01*
X97675060Y-58276109D01*
X101776170Y-54175000D01*
X107776596Y-54175000D01*
X107931271Y-54239068D01*
X108111911Y-54275000D01*
X108296089Y-54275000D01*
X108476729Y-54239068D01*
X108646889Y-54168586D01*
X108800028Y-54066262D01*
X108930262Y-53936028D01*
X109032586Y-53782889D01*
X109103068Y-53612729D01*
X109139000Y-53432089D01*
X109139000Y-53247911D01*
X109103068Y-53067271D01*
X109032586Y-52897111D01*
X108930262Y-52743972D01*
X108800028Y-52613738D01*
X108646889Y-52511414D01*
X108476729Y-52440932D01*
X108296089Y-52405000D01*
X108111911Y-52405000D01*
X107931271Y-52440932D01*
X107776596Y-52505000D01*
X102043193Y-52505000D01*
X102965657Y-51998649D01*
X105159584Y-50973200D01*
X107415288Y-50091914D01*
X107874744Y-49945911D01*
X113619000Y-49945911D01*
X113619000Y-50130089D01*
X113654932Y-50310729D01*
X113725414Y-50480889D01*
X113794000Y-50583536D01*
X113794001Y-52032668D01*
X113790324Y-52070000D01*
X113804998Y-52218985D01*
X113848454Y-52362246D01*
X113919026Y-52494276D01*
X113976927Y-52564828D01*
X114014000Y-52610001D01*
X114042998Y-52633799D01*
X114900847Y-53491649D01*
X114924932Y-53612729D01*
X114995414Y-53782889D01*
X115097738Y-53936028D01*
X115227972Y-54066262D01*
X115381111Y-54168586D01*
X115551271Y-54239068D01*
X115731911Y-54275000D01*
X115916089Y-54275000D01*
X116096729Y-54239068D01*
X116266889Y-54168586D01*
X116420028Y-54066262D01*
X116550262Y-53936028D01*
X116652586Y-53782889D01*
X116723068Y-53612729D01*
X116759000Y-53432089D01*
X116759000Y-53247911D01*
X116723068Y-53067271D01*
X116652586Y-52897111D01*
X116550262Y-52743972D01*
X116420028Y-52613738D01*
X116266889Y-52511414D01*
X116096729Y-52440932D01*
X115975649Y-52416847D01*
X115314000Y-51755199D01*
X115314000Y-50961911D01*
X119207000Y-50961911D01*
X119207000Y-51146089D01*
X119242932Y-51326729D01*
X119313414Y-51496889D01*
X119415738Y-51650028D01*
X119545972Y-51780262D01*
X119699111Y-51882586D01*
X119869271Y-51953068D01*
X120049911Y-51989000D01*
X120234089Y-51989000D01*
X120414729Y-51953068D01*
X120584889Y-51882586D01*
X120687535Y-51814000D01*
X126685199Y-51814000D01*
X127092847Y-52221649D01*
X127116932Y-52342729D01*
X127187414Y-52512889D01*
X127289738Y-52666028D01*
X127419972Y-52796262D01*
X127573111Y-52898586D01*
X127743271Y-52969068D01*
X127923911Y-53005000D01*
X128108089Y-53005000D01*
X128288729Y-52969068D01*
X128458889Y-52898586D01*
X128612028Y-52796262D01*
X128742262Y-52666028D01*
X128844586Y-52512889D01*
X128915068Y-52342729D01*
X128951000Y-52162089D01*
X128951000Y-51977911D01*
X128915068Y-51797271D01*
X128844586Y-51627111D01*
X128742262Y-51473972D01*
X128612028Y-51343738D01*
X128458889Y-51241414D01*
X128288729Y-51170932D01*
X128167649Y-51146847D01*
X127563804Y-50543002D01*
X127540001Y-50513999D01*
X127424276Y-50419026D01*
X127292247Y-50348454D01*
X127148986Y-50304997D01*
X127037333Y-50294000D01*
X127037322Y-50294000D01*
X127000000Y-50290324D01*
X126962678Y-50294000D01*
X120687535Y-50294000D01*
X120584889Y-50225414D01*
X120414729Y-50154932D01*
X120234089Y-50119000D01*
X120049911Y-50119000D01*
X119869271Y-50154932D01*
X119699111Y-50225414D01*
X119545972Y-50327738D01*
X119415738Y-50457972D01*
X119313414Y-50611111D01*
X119242932Y-50781271D01*
X119207000Y-50961911D01*
X115314000Y-50961911D01*
X115314000Y-50583535D01*
X115382586Y-50480889D01*
X115453068Y-50310729D01*
X115489000Y-50130089D01*
X115489000Y-49945911D01*
X115453068Y-49765271D01*
X115382586Y-49595111D01*
X115280262Y-49441972D01*
X115150028Y-49311738D01*
X114996889Y-49209414D01*
X114826729Y-49138932D01*
X114646089Y-49103000D01*
X114461911Y-49103000D01*
X114281271Y-49138932D01*
X114111111Y-49209414D01*
X113957972Y-49311738D01*
X113827738Y-49441972D01*
X113725414Y-49595111D01*
X113654932Y-49765271D01*
X113619000Y-49945911D01*
X107874744Y-49945911D01*
X109723307Y-49358487D01*
X112073960Y-48775997D01*
X114457387Y-48346885D01*
X116863593Y-48072951D01*
X119282484Y-47955346D01*
X121703914Y-47994561D01*
G37*
%TD.AperFunction*%
D19*
X130911241Y-74774637D02*
X131146273Y-74931680D01*
X131407426Y-75039853D01*
X131684665Y-75095000D01*
X131967335Y-75095000D01*
X132244574Y-75039853D01*
X132272500Y-75028286D01*
X132272500Y-80831484D01*
X127553952Y-85550032D01*
X127625800Y-85188830D01*
X127625800Y-84787970D01*
X127547596Y-84394813D01*
X127394193Y-84024466D01*
X127171487Y-83691163D01*
X126888037Y-83407713D01*
X126554734Y-83185007D01*
X126184387Y-83031604D01*
X125791230Y-82953400D01*
X125390370Y-82953400D01*
X124997213Y-83031604D01*
X124626866Y-83185007D01*
X124293563Y-83407713D01*
X124010113Y-83691163D01*
X123787407Y-84024466D01*
X123634004Y-84394813D01*
X123555800Y-84787970D01*
X123555800Y-85188830D01*
X123634004Y-85581987D01*
X123787407Y-85952334D01*
X124010113Y-86285637D01*
X124293563Y-86569087D01*
X124626866Y-86791793D01*
X124997213Y-86945196D01*
X125390370Y-87023400D01*
X125791230Y-87023400D01*
X126152433Y-86951552D01*
X123337974Y-89766011D01*
X119399311Y-89766011D01*
X119361988Y-89762335D01*
X119324665Y-89766011D01*
X119324656Y-89766011D01*
X119213003Y-89777008D01*
X119069742Y-89820465D01*
X118937712Y-89891037D01*
X118871190Y-89945631D01*
X118821988Y-89986010D01*
X118798190Y-90015008D01*
X117834026Y-90979172D01*
X117644135Y-90941400D01*
X117361465Y-90941400D01*
X117084226Y-90996547D01*
X116823073Y-91104720D01*
X116588041Y-91261763D01*
X116388163Y-91461641D01*
X116231120Y-91696673D01*
X116122947Y-91957826D01*
X116067800Y-92235065D01*
X116067800Y-92517735D01*
X116122947Y-92794974D01*
X116231120Y-93056127D01*
X116388163Y-93291159D01*
X116588041Y-93491037D01*
X116823073Y-93648080D01*
X117084226Y-93756253D01*
X117361465Y-93811400D01*
X117644135Y-93811400D01*
X117921374Y-93756253D01*
X118182527Y-93648080D01*
X118417559Y-93491037D01*
X118539494Y-93369102D01*
X119189703Y-93369102D01*
X119261286Y-93613071D01*
X119516796Y-93733971D01*
X119790984Y-93802700D01*
X120073312Y-93816617D01*
X120352930Y-93775187D01*
X120619092Y-93680003D01*
X120744314Y-93613071D01*
X120815897Y-93369102D01*
X120002800Y-92556005D01*
X119189703Y-93369102D01*
X118539494Y-93369102D01*
X118617437Y-93291159D01*
X118751492Y-93090531D01*
X118766129Y-93117914D01*
X119010098Y-93189497D01*
X119823195Y-92376400D01*
X119809053Y-92362258D01*
X119988658Y-92182653D01*
X120002800Y-92196795D01*
X120815897Y-91383698D01*
X120787235Y-91286011D01*
X121563793Y-91286011D01*
X121388163Y-91461641D01*
X121254108Y-91662269D01*
X121239471Y-91634886D01*
X120995502Y-91563303D01*
X120182405Y-92376400D01*
X120995502Y-93189497D01*
X121239471Y-93117914D01*
X121253124Y-93089059D01*
X121388163Y-93291159D01*
X121588041Y-93491037D01*
X121822023Y-93647378D01*
X116614346Y-98855055D01*
X116614346Y-98420695D01*
X116618022Y-98383372D01*
X116614346Y-98346049D01*
X116614346Y-98346040D01*
X116603349Y-98234387D01*
X116559892Y-98091126D01*
X116489320Y-97959097D01*
X116394347Y-97843372D01*
X116365350Y-97819575D01*
X112238335Y-93692561D01*
X112214250Y-93571480D01*
X112143768Y-93401320D01*
X112041444Y-93248181D01*
X111911210Y-93117947D01*
X111758071Y-93015623D01*
X111587911Y-92945141D01*
X111407271Y-92909209D01*
X111223093Y-92909209D01*
X111042453Y-92945141D01*
X110872293Y-93015623D01*
X110719154Y-93117947D01*
X110588920Y-93248181D01*
X110486596Y-93401320D01*
X110416114Y-93571480D01*
X110380182Y-93752120D01*
X110380182Y-93936298D01*
X110416114Y-94116938D01*
X110486596Y-94287098D01*
X110552303Y-94385436D01*
X110058303Y-93891436D01*
X110119070Y-93744729D01*
X110155002Y-93564089D01*
X110155002Y-93379911D01*
X110119070Y-93199271D01*
X110048588Y-93029111D01*
X109946264Y-92875972D01*
X109816030Y-92745738D01*
X109662891Y-92643414D01*
X109492731Y-92572932D01*
X109312091Y-92537000D01*
X109127913Y-92537000D01*
X108947273Y-92572932D01*
X108792598Y-92637000D01*
X107710702Y-92637000D01*
X106178700Y-91105000D01*
X106264089Y-91105000D01*
X106444729Y-91069068D01*
X106614889Y-90998586D01*
X106768028Y-90896262D01*
X106898262Y-90766028D01*
X107000586Y-90612889D01*
X107071068Y-90442729D01*
X107107000Y-90262089D01*
X107107000Y-90077911D01*
X107071068Y-89897271D01*
X107007384Y-89743523D01*
X107007384Y-84787970D01*
X112379800Y-84787970D01*
X112379800Y-85188830D01*
X112458004Y-85581987D01*
X112611407Y-85952334D01*
X112834113Y-86285637D01*
X113117563Y-86569087D01*
X113450866Y-86791793D01*
X113821213Y-86945196D01*
X114214370Y-87023400D01*
X114615230Y-87023400D01*
X115008387Y-86945196D01*
X115378734Y-86791793D01*
X115712037Y-86569087D01*
X115995487Y-86285637D01*
X116218193Y-85952334D01*
X116371596Y-85581987D01*
X116449800Y-85188830D01*
X116449800Y-84787970D01*
X116371596Y-84394813D01*
X116218193Y-84024466D01*
X115995487Y-83691163D01*
X115712037Y-83407713D01*
X115378734Y-83185007D01*
X115008387Y-83031604D01*
X114615230Y-82953400D01*
X114214370Y-82953400D01*
X113821213Y-83031604D01*
X113450866Y-83185007D01*
X113117563Y-83407713D01*
X112834113Y-83691163D01*
X112611407Y-84024466D01*
X112458004Y-84394813D01*
X112379800Y-84787970D01*
X107007384Y-84787970D01*
X107007384Y-82742109D01*
X109756886Y-79992608D01*
X124300726Y-79992608D01*
X124338048Y-79996284D01*
X124375370Y-79992608D01*
X124375381Y-79992608D01*
X124487034Y-79981611D01*
X124630295Y-79938154D01*
X124762324Y-79867582D01*
X124878049Y-79772609D01*
X124901852Y-79743605D01*
X129100457Y-75545001D01*
X129788679Y-75545001D01*
X129826001Y-75548677D01*
X129863323Y-75545001D01*
X129863334Y-75545001D01*
X129974987Y-75534004D01*
X130118248Y-75490547D01*
X130250277Y-75419975D01*
X130366002Y-75325002D01*
X130389804Y-75295999D01*
X130911204Y-74774600D01*
X130911241Y-74774637D01*
%TA.AperFunction,Conductor*%
D20*
G36*
X130911241Y-74774637D02*
G01*
X131146273Y-74931680D01*
X131407426Y-75039853D01*
X131684665Y-75095000D01*
X131967335Y-75095000D01*
X132244574Y-75039853D01*
X132272500Y-75028286D01*
X132272500Y-80831484D01*
X127553952Y-85550032D01*
X127625800Y-85188830D01*
X127625800Y-84787970D01*
X127547596Y-84394813D01*
X127394193Y-84024466D01*
X127171487Y-83691163D01*
X126888037Y-83407713D01*
X126554734Y-83185007D01*
X126184387Y-83031604D01*
X125791230Y-82953400D01*
X125390370Y-82953400D01*
X124997213Y-83031604D01*
X124626866Y-83185007D01*
X124293563Y-83407713D01*
X124010113Y-83691163D01*
X123787407Y-84024466D01*
X123634004Y-84394813D01*
X123555800Y-84787970D01*
X123555800Y-85188830D01*
X123634004Y-85581987D01*
X123787407Y-85952334D01*
X124010113Y-86285637D01*
X124293563Y-86569087D01*
X124626866Y-86791793D01*
X124997213Y-86945196D01*
X125390370Y-87023400D01*
X125791230Y-87023400D01*
X126152433Y-86951552D01*
X123337974Y-89766011D01*
X119399311Y-89766011D01*
X119361988Y-89762335D01*
X119324665Y-89766011D01*
X119324656Y-89766011D01*
X119213003Y-89777008D01*
X119069742Y-89820465D01*
X118937712Y-89891037D01*
X118871190Y-89945631D01*
X118821988Y-89986010D01*
X118798190Y-90015008D01*
X117834026Y-90979172D01*
X117644135Y-90941400D01*
X117361465Y-90941400D01*
X117084226Y-90996547D01*
X116823073Y-91104720D01*
X116588041Y-91261763D01*
X116388163Y-91461641D01*
X116231120Y-91696673D01*
X116122947Y-91957826D01*
X116067800Y-92235065D01*
X116067800Y-92517735D01*
X116122947Y-92794974D01*
X116231120Y-93056127D01*
X116388163Y-93291159D01*
X116588041Y-93491037D01*
X116823073Y-93648080D01*
X117084226Y-93756253D01*
X117361465Y-93811400D01*
X117644135Y-93811400D01*
X117921374Y-93756253D01*
X118182527Y-93648080D01*
X118417559Y-93491037D01*
X118539494Y-93369102D01*
X119189703Y-93369102D01*
X119261286Y-93613071D01*
X119516796Y-93733971D01*
X119790984Y-93802700D01*
X120073312Y-93816617D01*
X120352930Y-93775187D01*
X120619092Y-93680003D01*
X120744314Y-93613071D01*
X120815897Y-93369102D01*
X120002800Y-92556005D01*
X119189703Y-93369102D01*
X118539494Y-93369102D01*
X118617437Y-93291159D01*
X118751492Y-93090531D01*
X118766129Y-93117914D01*
X119010098Y-93189497D01*
X119823195Y-92376400D01*
X119809053Y-92362258D01*
X119988658Y-92182653D01*
X120002800Y-92196795D01*
X120815897Y-91383698D01*
X120787235Y-91286011D01*
X121563793Y-91286011D01*
X121388163Y-91461641D01*
X121254108Y-91662269D01*
X121239471Y-91634886D01*
X120995502Y-91563303D01*
X120182405Y-92376400D01*
X120995502Y-93189497D01*
X121239471Y-93117914D01*
X121253124Y-93089059D01*
X121388163Y-93291159D01*
X121588041Y-93491037D01*
X121822023Y-93647378D01*
X116614346Y-98855055D01*
X116614346Y-98420695D01*
X116618022Y-98383372D01*
X116614346Y-98346049D01*
X116614346Y-98346040D01*
X116603349Y-98234387D01*
X116559892Y-98091126D01*
X116489320Y-97959097D01*
X116394347Y-97843372D01*
X116365350Y-97819575D01*
X112238335Y-93692561D01*
X112214250Y-93571480D01*
X112143768Y-93401320D01*
X112041444Y-93248181D01*
X111911210Y-93117947D01*
X111758071Y-93015623D01*
X111587911Y-92945141D01*
X111407271Y-92909209D01*
X111223093Y-92909209D01*
X111042453Y-92945141D01*
X110872293Y-93015623D01*
X110719154Y-93117947D01*
X110588920Y-93248181D01*
X110486596Y-93401320D01*
X110416114Y-93571480D01*
X110380182Y-93752120D01*
X110380182Y-93936298D01*
X110416114Y-94116938D01*
X110486596Y-94287098D01*
X110552303Y-94385436D01*
X110058303Y-93891436D01*
X110119070Y-93744729D01*
X110155002Y-93564089D01*
X110155002Y-93379911D01*
X110119070Y-93199271D01*
X110048588Y-93029111D01*
X109946264Y-92875972D01*
X109816030Y-92745738D01*
X109662891Y-92643414D01*
X109492731Y-92572932D01*
X109312091Y-92537000D01*
X109127913Y-92537000D01*
X108947273Y-92572932D01*
X108792598Y-92637000D01*
X107710702Y-92637000D01*
X106178700Y-91105000D01*
X106264089Y-91105000D01*
X106444729Y-91069068D01*
X106614889Y-90998586D01*
X106768028Y-90896262D01*
X106898262Y-90766028D01*
X107000586Y-90612889D01*
X107071068Y-90442729D01*
X107107000Y-90262089D01*
X107107000Y-90077911D01*
X107071068Y-89897271D01*
X107007384Y-89743523D01*
X107007384Y-84787970D01*
X112379800Y-84787970D01*
X112379800Y-85188830D01*
X112458004Y-85581987D01*
X112611407Y-85952334D01*
X112834113Y-86285637D01*
X113117563Y-86569087D01*
X113450866Y-86791793D01*
X113821213Y-86945196D01*
X114214370Y-87023400D01*
X114615230Y-87023400D01*
X115008387Y-86945196D01*
X115378734Y-86791793D01*
X115712037Y-86569087D01*
X115995487Y-86285637D01*
X116218193Y-85952334D01*
X116371596Y-85581987D01*
X116449800Y-85188830D01*
X116449800Y-84787970D01*
X116371596Y-84394813D01*
X116218193Y-84024466D01*
X115995487Y-83691163D01*
X115712037Y-83407713D01*
X115378734Y-83185007D01*
X115008387Y-83031604D01*
X114615230Y-82953400D01*
X114214370Y-82953400D01*
X113821213Y-83031604D01*
X113450866Y-83185007D01*
X113117563Y-83407713D01*
X112834113Y-83691163D01*
X112611407Y-84024466D01*
X112458004Y-84394813D01*
X112379800Y-84787970D01*
X107007384Y-84787970D01*
X107007384Y-82742109D01*
X109756886Y-79992608D01*
X124300726Y-79992608D01*
X124338048Y-79996284D01*
X124375370Y-79992608D01*
X124375381Y-79992608D01*
X124487034Y-79981611D01*
X124630295Y-79938154D01*
X124762324Y-79867582D01*
X124878049Y-79772609D01*
X124901852Y-79743605D01*
X129100457Y-75545001D01*
X129788679Y-75545001D01*
X129826001Y-75548677D01*
X129863323Y-75545001D01*
X129863334Y-75545001D01*
X129974987Y-75534004D01*
X130118248Y-75490547D01*
X130250277Y-75419975D01*
X130366002Y-75325002D01*
X130389804Y-75295999D01*
X130911204Y-74774600D01*
X130911241Y-74774637D01*
G37*
%TD.AperFunction*%
%TD*%
M02*
