M48
; DRILL file {KiCad (5.1.9)-1} date 03/28/21 17:18:57
; FORMAT={-:-/ absolute / inch / decimal}
; #@! TF.CreationDate,2021-03-28T17:18:57-04:00
; #@! TF.GenerationSoftware,Kicad,Pcbnew,(5.1.9)-1
FMAT,2
INCH
T1C0.0157
T2C0.0394
T3C0.0433
T4C0.0453
T5C0.0866
T6C0.1000
T7C0.1181
T8C0.1260
T9C0.1378
%
G90
G05
T1
X3.4Y-3.12
X3.4Y-3.59
X3.56Y-2.69
X3.69Y-2.46
X3.7793Y-4.0786
X3.8103Y-2.283
X4.18Y-3.55
X4.26Y-2.1
X4.27Y-2.51
X4.3Y-3.68
X4.3825Y-3.6947
X4.51Y-1.97
X4.51Y-3.92
X4.56Y-2.1
X4.5612Y-3.9233
X4.6442Y-2.6412
X4.71Y-1.94
X4.7265Y-2.5438
X4.73Y-2.01
X4.91Y-2.14
X5.04Y-2.05
X5.17Y-2.1
X5.33Y-2.23
X5.48Y-2.44
X5.515Y-2.63
X5.6Y-2.36
X5.77Y-2.56
X5.94Y-2.66
X6.03Y-3.59
X6.05Y-2.91
T2
X4.567Y-3.066
X4.6458Y-3.066
X4.7245Y-3.066
X4.8033Y-3.066
X4.882Y-3.066
X5.42Y-3.025
X5.52Y-3.025
X5.62Y-3.025
T3
X4.09Y-2.3
X4.09Y-2.9
X4.19Y-2.3
X4.19Y-2.8
X4.19Y-2.9
X4.29Y-2.3
X4.29Y-2.9
X4.39Y-2.3
X4.39Y-2.8
X4.39Y-2.9
X4.49Y-2.3
X4.49Y-2.8
X4.49Y-2.9
X4.59Y-2.3
X4.59Y-2.8
X4.59Y-2.9
X4.69Y-2.3
X4.69Y-2.9
X4.79Y-2.3
X4.79Y-2.9
X4.89Y-2.3
X4.89Y-2.9
X4.99Y-2.3
X4.99Y-2.9
X5.09Y-2.3
X5.09Y-2.9
X5.19Y-2.3
X5.19Y-2.9
X5.29Y-2.3
X5.29Y-2.9
X5.39Y-2.3
X5.39Y-2.4
X5.39Y-2.5
X5.39Y-2.6
X5.39Y-2.7
X5.39Y-2.8
X5.39Y-2.9
T4
X4.6261Y-3.6369
X4.7245Y-3.6369
X4.8229Y-3.6369
T5
X4.5045Y-3.346
X4.9445Y-3.346
T6
X4.1166Y-4.3643
T8
X3.88Y-2.99
X3.99Y-3.94
X5.02Y-4.01
T9
X5.52Y-3.6809
T6
G00X3.9757Y-4.3766
M15
G01X3.9757Y-4.3766
M16
G05
G00X4.1043Y-4.2234
M15
G01X4.1043Y-4.2234
M16
G05
T7
G00X5.2834Y-4.0928
M15
G01X5.2834Y-4.0928
M16
G05
G00X5.412Y-4.246
M15
G01X5.412Y-4.246
M16
G05
G00X5.5009Y-4.0408
M15
G01X5.5009Y-4.0408
M16
G05
T0
M30
