%TF.GenerationSoftware,KiCad,Pcbnew,(5.1.9)-1*%
%TF.CreationDate,2021-03-28T17:18:04-04:00*%
%TF.ProjectId,nogasm,6e6f6761-736d-42e6-9b69-6361645f7063,rev?*%
%TF.SameCoordinates,Original*%
%TF.FileFunction,Other,Fab,Top*%
%FSLAX46Y46*%
G04 Gerber Fmt 4.6, Leading zero omitted, Abs format (unit mm)*
G04 Created by KiCad (PCBNEW (5.1.9)-1) date 2021-03-28 17:18:04*
%MOMM*%
%LPD*%
G01*
G04 APERTURE LIST*
%ADD10C,0.100000*%
%ADD11C,0.150000*%
%ADD12C,0.075000*%
G04 APERTURE END LIST*
D10*
%TO.C,C19*%
X123428000Y-95616000D02*
X121428000Y-95616000D01*
X121428000Y-95616000D02*
X121428000Y-94376000D01*
X121428000Y-94376000D02*
X123428000Y-94376000D01*
X123428000Y-94376000D02*
X123428000Y-95616000D01*
%TO.C,C1*%
X120614000Y-55992000D02*
X118614000Y-55992000D01*
X118614000Y-55992000D02*
X118614000Y-54752000D01*
X118614000Y-54752000D02*
X120614000Y-54752000D01*
X120614000Y-54752000D02*
X120614000Y-55992000D01*
%TO.C,C2*%
X114367064Y-52791639D02*
X115051105Y-54671024D01*
X115051105Y-54671024D02*
X113885886Y-55095129D01*
X113885886Y-55095129D02*
X113201845Y-53215744D01*
X113201845Y-53215744D02*
X114367064Y-52791639D01*
%TO.C,C3*%
X102162937Y-62455206D02*
X100676647Y-63793467D01*
X100676647Y-63793467D02*
X99846925Y-62871968D01*
X99846925Y-62871968D02*
X101333215Y-61533707D01*
X101333215Y-61533707D02*
X102162937Y-62455206D01*
%TO.C,C4*%
X95310098Y-70092489D02*
X94433356Y-71890077D01*
X94433356Y-71890077D02*
X93318852Y-71346497D01*
X93318852Y-71346497D02*
X94195594Y-69548909D01*
X94195594Y-69548909D02*
X95310098Y-70092489D01*
%TO.C,C5*%
X91351105Y-79380019D02*
X91072759Y-81360555D01*
X91072759Y-81360555D02*
X89844827Y-81187981D01*
X89844827Y-81187981D02*
X90123173Y-79207445D01*
X90123173Y-79207445D02*
X91351105Y-79380019D01*
%TO.C,C6*%
X102110300Y-67669600D02*
X102110300Y-65669600D01*
X102110300Y-65669600D02*
X103350300Y-65669600D01*
X103350300Y-65669600D02*
X103350300Y-67669600D01*
X103350300Y-67669600D02*
X102110300Y-67669600D01*
%TO.C,C7*%
X127265541Y-50881474D02*
X126650828Y-52784663D01*
X126650828Y-52784663D02*
X125470851Y-52403540D01*
X125470851Y-52403540D02*
X126085564Y-50500351D01*
X126085564Y-50500351D02*
X127265541Y-50881474D01*
%TO.C,C8*%
X91324650Y-89618262D02*
X91740473Y-91574557D01*
X91740473Y-91574557D02*
X90527570Y-91832368D01*
X90527570Y-91832368D02*
X90111747Y-89876073D01*
X90111747Y-89876073D02*
X91324650Y-89618262D01*
%TO.C,C9*%
X94384270Y-99197462D02*
X95444108Y-100893558D01*
X95444108Y-100893558D02*
X94392528Y-101550658D01*
X94392528Y-101550658D02*
X93332690Y-99854562D01*
X93332690Y-99854562D02*
X94384270Y-99197462D01*
%TO.C,C10*%
X144209579Y-100827581D02*
X145209579Y-99095531D01*
X145209579Y-99095531D02*
X146283451Y-99715531D01*
X146283451Y-99715531D02*
X145283451Y-101447581D01*
X145283451Y-101447581D02*
X144209579Y-100827581D01*
%TO.C,C11*%
X149591289Y-89331844D02*
X149243993Y-91301460D01*
X149243993Y-91301460D02*
X148022831Y-91086136D01*
X148022831Y-91086136D02*
X148370127Y-89116520D01*
X148370127Y-89116520D02*
X149591289Y-89331844D01*
%TO.C,C12*%
X148407067Y-81610470D02*
X148059771Y-79640854D01*
X148059771Y-79640854D02*
X149280933Y-79425530D01*
X149280933Y-79425530D02*
X149628229Y-81395146D01*
X149628229Y-81395146D02*
X148407067Y-81610470D01*
%TO.C,C14*%
X145876064Y-72200641D02*
X144876064Y-70468591D01*
X144876064Y-70468591D02*
X145949936Y-69848591D01*
X145949936Y-69848591D02*
X146949936Y-71580641D01*
X146949936Y-71580641D02*
X145876064Y-72200641D01*
%TO.C,C15*%
X132857000Y-115534000D02*
X132857000Y-113534000D01*
X132857000Y-113534000D02*
X134097000Y-113534000D01*
X134097000Y-113534000D02*
X134097000Y-115534000D01*
X134097000Y-115534000D02*
X132857000Y-115534000D01*
%TO.C,C16*%
X147000293Y-63004785D02*
X145662032Y-64491075D01*
X145662032Y-64491075D02*
X144740533Y-63661353D01*
X144740533Y-63661353D02*
X146078794Y-62175063D01*
X146078794Y-62175063D02*
X147000293Y-63004785D01*
%TO.C,C17*%
X130444000Y-115574000D02*
X130444000Y-113574000D01*
X130444000Y-113574000D02*
X131684000Y-113574000D01*
X131684000Y-113574000D02*
X131684000Y-115574000D01*
X131684000Y-115574000D02*
X130444000Y-115574000D01*
%TO.C,C20*%
X116348000Y-94376000D02*
X118348000Y-94376000D01*
X118348000Y-94376000D02*
X118348000Y-95616000D01*
X118348000Y-95616000D02*
X116348000Y-95616000D01*
X116348000Y-95616000D02*
X116348000Y-94376000D01*
%TO.C,C21*%
X109986000Y-84694000D02*
X107986000Y-84694000D01*
X107986000Y-84694000D02*
X107986000Y-83454000D01*
X107986000Y-83454000D02*
X109986000Y-83454000D01*
X109986000Y-83454000D02*
X109986000Y-84694000D01*
%TO.C,Q1*%
X94784000Y-95111000D02*
X97484000Y-95111000D01*
X94784000Y-94361000D02*
X94784000Y-95111000D01*
X97484000Y-94361000D02*
X94784000Y-94361000D01*
X94784000Y-92831000D02*
X97484000Y-92831000D01*
X94784000Y-92081000D02*
X94784000Y-92831000D01*
X97484000Y-92081000D02*
X94784000Y-92081000D01*
X94784000Y-90551000D02*
X97484000Y-90551000D01*
X94784000Y-89801000D02*
X94784000Y-90551000D01*
X97889000Y-89801000D02*
X94784000Y-89801000D01*
X98484000Y-89206000D02*
X103704000Y-89206000D01*
X97484000Y-90206000D02*
X98484000Y-89206000D01*
X97484000Y-95706000D02*
X97484000Y-90206000D01*
X103704000Y-95706000D02*
X97484000Y-95706000D01*
X103704000Y-89206000D02*
X103704000Y-95706000D01*
X104704000Y-95156000D02*
X103704000Y-95156000D01*
X104704000Y-89756000D02*
X104704000Y-95156000D01*
X103704000Y-89756000D02*
X104704000Y-89756000D01*
%TO.C,Q2*%
X115273100Y-63562000D02*
X116673100Y-63562000D01*
X116673100Y-60522000D02*
X116673100Y-63562000D01*
X115273100Y-61092000D02*
X115823100Y-60522000D01*
X115823100Y-60522000D02*
X116673100Y-60522000D01*
X115273100Y-61092000D02*
X115273100Y-63542000D01*
%TO.C,Q3*%
X110275900Y-63496000D02*
X111675900Y-63496000D01*
X111675900Y-60456000D02*
X111675900Y-63496000D01*
X110275900Y-61026000D02*
X110825900Y-60456000D01*
X110825900Y-60456000D02*
X111675900Y-60456000D01*
X110275900Y-61026000D02*
X110275900Y-63476000D01*
%TO.C,Q4*%
X105621100Y-63511200D02*
X107021100Y-63511200D01*
X107021100Y-60471200D02*
X107021100Y-63511200D01*
X105621100Y-61041200D02*
X106171100Y-60471200D01*
X106171100Y-60471200D02*
X107021100Y-60471200D01*
X105621100Y-61041200D02*
X105621100Y-63491200D01*
%TO.C,R1*%
X93662000Y-80406000D02*
X95662000Y-80406000D01*
X95662000Y-80406000D02*
X95662000Y-81646000D01*
X95662000Y-81646000D02*
X93662000Y-81646000D01*
X93662000Y-81646000D02*
X93662000Y-80406000D01*
%TO.C,R2*%
X92852000Y-86518000D02*
X92852000Y-84518000D01*
X92852000Y-84518000D02*
X94092000Y-84518000D01*
X94092000Y-84518000D02*
X94092000Y-86518000D01*
X94092000Y-86518000D02*
X92852000Y-86518000D01*
%TO.C,R3*%
X122110000Y-105552000D02*
X124110000Y-105552000D01*
X124110000Y-105552000D02*
X124110000Y-106792000D01*
X124110000Y-106792000D02*
X122110000Y-106792000D01*
X122110000Y-106792000D02*
X122110000Y-105552000D01*
%TO.C,R4*%
X116507500Y-65678800D02*
X116507500Y-67678800D01*
X116507500Y-67678800D02*
X115267500Y-67678800D01*
X115267500Y-67678800D02*
X115267500Y-65678800D01*
X115267500Y-65678800D02*
X116507500Y-65678800D01*
%TO.C,R5*%
X111681500Y-65722000D02*
X111681500Y-67722000D01*
X111681500Y-67722000D02*
X110441500Y-67722000D01*
X110441500Y-67722000D02*
X110441500Y-65722000D01*
X110441500Y-65722000D02*
X111681500Y-65722000D01*
%TO.C,R6*%
X106753900Y-65678800D02*
X106753900Y-67678800D01*
X106753900Y-67678800D02*
X105513900Y-67678800D01*
X105513900Y-67678800D02*
X105513900Y-65678800D01*
X105513900Y-65678800D02*
X106753900Y-65678800D01*
%TO.C,R7*%
X121300000Y-69961000D02*
X121300000Y-67961000D01*
X121300000Y-67961000D02*
X122540000Y-67961000D01*
X122540000Y-67961000D02*
X122540000Y-69961000D01*
X122540000Y-69961000D02*
X121300000Y-69961000D01*
%TO.C,R8*%
X121300000Y-64293000D02*
X121300000Y-62293000D01*
X121300000Y-62293000D02*
X122540000Y-62293000D01*
X122540000Y-62293000D02*
X122540000Y-64293000D01*
X122540000Y-64293000D02*
X121300000Y-64293000D01*
%TO.C,RV1*%
X101016000Y-85598000D02*
G75*
G03*
X101016000Y-85598000I-1150000J0D01*
G01*
X100786000Y-85538000D02*
X100786000Y-85658000D01*
X99926000Y-85538000D02*
X100786000Y-85538000D01*
X99926000Y-84678000D02*
X99926000Y-85538000D01*
X99806000Y-84678000D02*
X99926000Y-84678000D01*
X99806000Y-85538000D02*
X99806000Y-84678000D01*
X98946000Y-85538000D02*
X99806000Y-85538000D01*
X98946000Y-85658000D02*
X98946000Y-85538000D01*
X99806000Y-85658000D02*
X98946000Y-85658000D01*
X99806000Y-86518000D02*
X99806000Y-85658000D01*
X99926000Y-86518000D02*
X99806000Y-86518000D01*
X99926000Y-85658000D02*
X99926000Y-86518000D01*
X100786000Y-85658000D02*
X99926000Y-85658000D01*
X97366000Y-88098000D02*
X102366000Y-88098000D01*
X97366000Y-83098000D02*
X97366000Y-88098000D01*
X102366000Y-83098000D02*
X97366000Y-83098000D01*
X102366000Y-88098000D02*
X102366000Y-83098000D01*
%TO.C,U17*%
X107604000Y-88000000D02*
X110704000Y-88000000D01*
X110704000Y-88000000D02*
X110704000Y-89800000D01*
X108254000Y-89800000D02*
X110704000Y-89800000D01*
X107604000Y-88000000D02*
X107604000Y-89150000D01*
X108254000Y-89800000D02*
X107604000Y-89150000D01*
%TO.C,D1*%
X110745755Y-99420904D02*
X112141476Y-99547597D01*
X110745755Y-99420904D02*
X111145541Y-100734506D01*
X111145541Y-100734506D02*
X112141476Y-99547597D01*
X111260050Y-98807992D02*
X110231461Y-100033817D01*
X111627182Y-100160509D02*
X112391862Y-100802152D01*
X110745755Y-99420904D02*
X110055013Y-98841303D01*
X113969995Y-100166920D02*
X110446190Y-97210097D01*
X113969995Y-100166920D02*
X112041632Y-102465053D01*
X108517827Y-99508230D02*
X110446190Y-97210097D01*
X112041632Y-102465053D02*
X108517827Y-99508230D01*
%TO.C,U15*%
X142058000Y-93495000D02*
G75*
G03*
X142058000Y-93495000I-1850000J0D01*
G01*
X137668000Y-80645000D02*
X137668000Y-76835000D01*
X140208000Y-80645000D02*
X140208000Y-76835000D01*
X142748000Y-80645000D02*
X142748000Y-76835000D01*
X135208000Y-80645000D02*
X145208000Y-80645000D01*
X135208000Y-89895000D02*
X135208000Y-80645000D01*
X145208000Y-89895000D02*
X135208000Y-89895000D01*
X145208000Y-80645000D02*
X145208000Y-89895000D01*
X135208000Y-89895000D02*
X145208000Y-89895000D01*
X135208000Y-96295000D02*
X135208000Y-89895000D01*
X145208000Y-96295000D02*
X135208000Y-96295000D01*
X145208000Y-89895000D02*
X145208000Y-96295000D01*
%TO.C,C13*%
X139212000Y-73450000D02*
X139212000Y-70250000D01*
X139212000Y-70250000D02*
X141712000Y-70250000D01*
X141712000Y-70250000D02*
X141712000Y-73450000D01*
X141712000Y-73450000D02*
X139212000Y-73450000D01*
%TO.C,C18*%
X134219000Y-79394000D02*
X134219000Y-82594000D01*
X134219000Y-82594000D02*
X131719000Y-82594000D01*
X131719000Y-82594000D02*
X131719000Y-79394000D01*
X131719000Y-79394000D02*
X134219000Y-79394000D01*
%TD*%
%TO.C,REF\u002A\u002A*%
D11*
X100012666Y-96328380D02*
X99679333Y-95852190D01*
X99441238Y-96328380D02*
X99441238Y-95328380D01*
X99822190Y-95328380D01*
X99917428Y-95376000D01*
X99965047Y-95423619D01*
X100012666Y-95518857D01*
X100012666Y-95661714D01*
X99965047Y-95756952D01*
X99917428Y-95804571D01*
X99822190Y-95852190D01*
X99441238Y-95852190D01*
X100441238Y-95804571D02*
X100774571Y-95804571D01*
X100917428Y-96328380D02*
X100441238Y-96328380D01*
X100441238Y-95328380D01*
X100917428Y-95328380D01*
X101679333Y-95804571D02*
X101346000Y-95804571D01*
X101346000Y-96328380D02*
X101346000Y-95328380D01*
X101822190Y-95328380D01*
X102346000Y-95328380D02*
X102346000Y-95566476D01*
X102107904Y-95471238D02*
X102346000Y-95566476D01*
X102584095Y-95471238D01*
X102203142Y-95756952D02*
X102346000Y-95566476D01*
X102488857Y-95756952D01*
X103107904Y-95328380D02*
X103107904Y-95566476D01*
X102869809Y-95471238D02*
X103107904Y-95566476D01*
X103346000Y-95471238D01*
X102965047Y-95756952D02*
X103107904Y-95566476D01*
X103250761Y-95756952D01*
X126174666Y-98106380D02*
X125841333Y-97630190D01*
X125603238Y-98106380D02*
X125603238Y-97106380D01*
X125984190Y-97106380D01*
X126079428Y-97154000D01*
X126127047Y-97201619D01*
X126174666Y-97296857D01*
X126174666Y-97439714D01*
X126127047Y-97534952D01*
X126079428Y-97582571D01*
X125984190Y-97630190D01*
X125603238Y-97630190D01*
X126603238Y-97582571D02*
X126936571Y-97582571D01*
X127079428Y-98106380D02*
X126603238Y-98106380D01*
X126603238Y-97106380D01*
X127079428Y-97106380D01*
X127841333Y-97582571D02*
X127508000Y-97582571D01*
X127508000Y-98106380D02*
X127508000Y-97106380D01*
X127984190Y-97106380D01*
X128508000Y-97106380D02*
X128508000Y-97344476D01*
X128269904Y-97249238D02*
X128508000Y-97344476D01*
X128746095Y-97249238D01*
X128365142Y-97534952D02*
X128508000Y-97344476D01*
X128650857Y-97534952D01*
X129269904Y-97106380D02*
X129269904Y-97344476D01*
X129031809Y-97249238D02*
X129269904Y-97344476D01*
X129508000Y-97249238D01*
X129127047Y-97534952D02*
X129269904Y-97344476D01*
X129412761Y-97534952D01*
%TO.C,C19*%
X121785142Y-97103142D02*
X121737523Y-97150761D01*
X121594666Y-97198380D01*
X121499428Y-97198380D01*
X121356571Y-97150761D01*
X121261333Y-97055523D01*
X121213714Y-96960285D01*
X121166095Y-96769809D01*
X121166095Y-96626952D01*
X121213714Y-96436476D01*
X121261333Y-96341238D01*
X121356571Y-96246000D01*
X121499428Y-96198380D01*
X121594666Y-96198380D01*
X121737523Y-96246000D01*
X121785142Y-96293619D01*
X122737523Y-97198380D02*
X122166095Y-97198380D01*
X122451809Y-97198380D02*
X122451809Y-96198380D01*
X122356571Y-96341238D01*
X122261333Y-96436476D01*
X122166095Y-96484095D01*
X123213714Y-97198380D02*
X123404190Y-97198380D01*
X123499428Y-97150761D01*
X123547047Y-97103142D01*
X123642285Y-96960285D01*
X123689904Y-96769809D01*
X123689904Y-96388857D01*
X123642285Y-96293619D01*
X123594666Y-96246000D01*
X123499428Y-96198380D01*
X123308952Y-96198380D01*
X123213714Y-96246000D01*
X123166095Y-96293619D01*
X123118476Y-96388857D01*
X123118476Y-96626952D01*
X123166095Y-96722190D01*
X123213714Y-96769809D01*
X123308952Y-96817428D01*
X123499428Y-96817428D01*
X123594666Y-96769809D01*
X123642285Y-96722190D01*
X123689904Y-96626952D01*
%TO.C,C1*%
X119447333Y-57479142D02*
X119399714Y-57526761D01*
X119256857Y-57574380D01*
X119161619Y-57574380D01*
X119018761Y-57526761D01*
X118923523Y-57431523D01*
X118875904Y-57336285D01*
X118828285Y-57145809D01*
X118828285Y-57002952D01*
X118875904Y-56812476D01*
X118923523Y-56717238D01*
X119018761Y-56622000D01*
X119161619Y-56574380D01*
X119256857Y-56574380D01*
X119399714Y-56622000D01*
X119447333Y-56669619D01*
X120399714Y-57574380D02*
X119828285Y-57574380D01*
X120114000Y-57574380D02*
X120114000Y-56574380D01*
X120018761Y-56717238D01*
X119923523Y-56812476D01*
X119828285Y-56860095D01*
%TO.C,C2*%
X115892867Y-54512302D02*
X115831833Y-54483842D01*
X115738225Y-54365886D01*
X115705652Y-54276392D01*
X115701539Y-54125863D01*
X115758460Y-54003795D01*
X115831668Y-53926475D01*
X115994371Y-53816581D01*
X116128613Y-53767721D01*
X116323888Y-53747321D01*
X116429670Y-53759495D01*
X116551737Y-53816417D01*
X116645345Y-53934372D01*
X116677918Y-54023866D01*
X116682031Y-54174395D01*
X116653570Y-54235429D01*
X116783864Y-54593407D02*
X116844898Y-54621867D01*
X116922218Y-54695075D01*
X117003651Y-54918812D01*
X116991478Y-55024593D01*
X116963017Y-55085627D01*
X116889809Y-55162947D01*
X116800315Y-55195521D01*
X116649786Y-55199633D01*
X115917379Y-54858106D01*
X116129106Y-55439821D01*
%TO.C,C3*%
X102291027Y-64341020D02*
X102287503Y-64408271D01*
X102213203Y-64539249D01*
X102142427Y-64602976D01*
X102004400Y-64663178D01*
X101869898Y-64656129D01*
X101770783Y-64617217D01*
X101607942Y-64507529D01*
X101512352Y-64401365D01*
X101420286Y-64227951D01*
X101391947Y-64125312D01*
X101398996Y-63990809D01*
X101473296Y-63859831D01*
X101544072Y-63796104D01*
X101682099Y-63735902D01*
X101749350Y-63739427D01*
X101933338Y-63445607D02*
X102393380Y-63031384D01*
X102400572Y-63537530D01*
X102506736Y-63441940D01*
X102609375Y-63413601D01*
X102676626Y-63417126D01*
X102775741Y-63456038D01*
X102935057Y-63632977D01*
X102963396Y-63735616D01*
X102959872Y-63802867D01*
X102920960Y-63901982D01*
X102708632Y-64093162D01*
X102605993Y-64121501D01*
X102538742Y-64117977D01*
%TO.C,C4*%
X96135301Y-71793003D02*
X96157225Y-71856677D01*
X96137401Y-72005951D01*
X96095651Y-72091551D01*
X95990227Y-72199075D01*
X95862878Y-72242925D01*
X95756404Y-72243975D01*
X95564330Y-72203275D01*
X95435931Y-72140651D01*
X95285607Y-72014352D01*
X95220882Y-71929802D01*
X95177032Y-71802453D01*
X95196857Y-71653179D01*
X95238607Y-71567580D01*
X95344031Y-71460056D01*
X95407705Y-71438131D01*
X95997451Y-70772110D02*
X96596647Y-71064357D01*
X95550679Y-70819110D02*
X96088300Y-71346231D01*
X96359673Y-70789835D01*
%TO.C,C5*%
X92661406Y-80742302D02*
X92701934Y-80796085D01*
X92729208Y-80944179D01*
X92715954Y-81038490D01*
X92648916Y-81173330D01*
X92541350Y-81254386D01*
X92440412Y-81288287D01*
X92245162Y-81308934D01*
X92103695Y-81289052D01*
X91921700Y-81215387D01*
X91834016Y-81154977D01*
X91752959Y-81047411D01*
X91725686Y-80899317D01*
X91738940Y-80805006D01*
X91805978Y-80670166D01*
X91859761Y-80629638D01*
X91891368Y-79720427D02*
X91825095Y-80191983D01*
X92290024Y-80305411D01*
X92249496Y-80251628D01*
X92215595Y-80150690D01*
X92248731Y-79914912D01*
X92309141Y-79827228D01*
X92362924Y-79786699D01*
X92463863Y-79752798D01*
X92699641Y-79785935D01*
X92787325Y-79846345D01*
X92827853Y-79900128D01*
X92861754Y-80001066D01*
X92828618Y-80236845D01*
X92768207Y-80324529D01*
X92714424Y-80365057D01*
%TO.C,C6*%
X101337442Y-66836266D02*
X101385061Y-66883885D01*
X101432680Y-67026742D01*
X101432680Y-67121980D01*
X101385061Y-67264838D01*
X101289823Y-67360076D01*
X101194585Y-67407695D01*
X101004109Y-67455314D01*
X100861252Y-67455314D01*
X100670776Y-67407695D01*
X100575538Y-67360076D01*
X100480300Y-67264838D01*
X100432680Y-67121980D01*
X100432680Y-67026742D01*
X100480300Y-66883885D01*
X100527919Y-66836266D01*
X100432680Y-65979123D02*
X100432680Y-66169600D01*
X100480300Y-66264838D01*
X100527919Y-66312457D01*
X100670776Y-66407695D01*
X100861252Y-66455314D01*
X101242204Y-66455314D01*
X101337442Y-66407695D01*
X101385061Y-66360076D01*
X101432680Y-66264838D01*
X101432680Y-66074361D01*
X101385061Y-65979123D01*
X101337442Y-65931504D01*
X101242204Y-65883885D01*
X101004109Y-65883885D01*
X100908871Y-65931504D01*
X100861252Y-65979123D01*
X100813633Y-66074361D01*
X100813633Y-66264838D01*
X100861252Y-66360076D01*
X100908871Y-66407695D01*
X101004109Y-66455314D01*
%TO.C,C7*%
X128322115Y-52448750D02*
X128352793Y-52508700D01*
X128354198Y-52659278D01*
X128324926Y-52749906D01*
X128235704Y-52871212D01*
X128115804Y-52932568D01*
X128010540Y-52948610D01*
X127814648Y-52935380D01*
X127678706Y-52891472D01*
X127512086Y-52787614D01*
X127436094Y-52713028D01*
X127374738Y-52593127D01*
X127373332Y-52442549D01*
X127402604Y-52351921D01*
X127491826Y-52230615D01*
X127551776Y-52199937D01*
X127563600Y-51853467D02*
X127768505Y-51219071D01*
X128588375Y-51934254D01*
%TO.C,C8*%
X92253877Y-90272699D02*
X92197398Y-90236021D01*
X92121118Y-90106186D01*
X92101317Y-90013029D01*
X92118194Y-89863394D01*
X92191549Y-89750435D01*
X92274806Y-89684056D01*
X92451219Y-89597875D01*
X92590954Y-89568174D01*
X92787169Y-89575150D01*
X92890226Y-89601927D01*
X93003184Y-89675283D01*
X93079464Y-89805118D01*
X93099266Y-89898275D01*
X93082389Y-90047911D01*
X93045711Y-90104390D01*
X92838468Y-90732635D02*
X92865246Y-90629578D01*
X92901924Y-90573099D01*
X92985180Y-90506719D01*
X93031758Y-90496818D01*
X93134816Y-90523596D01*
X93191295Y-90560274D01*
X93257674Y-90643530D01*
X93297277Y-90829844D01*
X93270499Y-90932901D01*
X93233821Y-90989380D01*
X93150565Y-91055760D01*
X93103987Y-91065660D01*
X93000929Y-91038883D01*
X92944450Y-91002205D01*
X92878071Y-90918949D01*
X92838468Y-90732635D01*
X92772089Y-90649379D01*
X92715610Y-90612701D01*
X92612552Y-90585923D01*
X92426238Y-90625526D01*
X92342982Y-90691905D01*
X92306304Y-90748384D01*
X92279527Y-90851442D01*
X92319129Y-91037756D01*
X92385509Y-91121012D01*
X92441988Y-91157690D01*
X92545045Y-91184467D01*
X92731359Y-91144865D01*
X92814615Y-91078485D01*
X92851293Y-91022006D01*
X92878071Y-90918949D01*
%TO.C,C9*%
X95481288Y-99494616D02*
X95415671Y-99479467D01*
X95299585Y-99383552D01*
X95249116Y-99302785D01*
X95213797Y-99156401D01*
X95244095Y-99025166D01*
X95299627Y-98934314D01*
X95435926Y-98792994D01*
X95557075Y-98717291D01*
X95743843Y-98656738D01*
X95849843Y-98646652D01*
X95981078Y-98676950D01*
X96097164Y-98772866D01*
X96147633Y-98853632D01*
X96182952Y-99000016D01*
X96167803Y-99065634D01*
X95652864Y-99948917D02*
X95753801Y-100110450D01*
X95844653Y-100165982D01*
X95910271Y-100181131D01*
X96081889Y-100186195D01*
X96268656Y-100125641D01*
X96591722Y-99923767D01*
X96647254Y-99832915D01*
X96662403Y-99767298D01*
X96652318Y-99661297D01*
X96551381Y-99499764D01*
X96460529Y-99444232D01*
X96394912Y-99429083D01*
X96288911Y-99439168D01*
X96086995Y-99565339D01*
X96031463Y-99656191D01*
X96016314Y-99721809D01*
X96026399Y-99827809D01*
X96127336Y-99989342D01*
X96218188Y-100044875D01*
X96283805Y-100060024D01*
X96389806Y-100049938D01*
%TO.C,C10*%
X143718837Y-100131858D02*
X143736266Y-100196906D01*
X143706077Y-100344434D01*
X143658458Y-100426912D01*
X143545790Y-100526821D01*
X143415693Y-100561680D01*
X143309405Y-100555301D01*
X143120638Y-100501302D01*
X142996920Y-100429873D01*
X142855772Y-100293396D01*
X142797103Y-100204538D01*
X142762244Y-100074440D01*
X142792433Y-99926912D01*
X142840052Y-99844434D01*
X142952720Y-99744525D01*
X143017769Y-99727096D01*
X144277506Y-99354690D02*
X143991792Y-99849562D01*
X144134649Y-99602126D02*
X143268623Y-99102126D01*
X143344722Y-99256034D01*
X143379582Y-99386131D01*
X143373202Y-99492419D01*
X143721004Y-98318580D02*
X143768623Y-98236101D01*
X143857482Y-98177432D01*
X143922530Y-98160002D01*
X144028819Y-98166382D01*
X144217585Y-98220381D01*
X144423782Y-98339428D01*
X144564930Y-98475906D01*
X144623599Y-98564764D01*
X144641028Y-98629813D01*
X144634649Y-98736101D01*
X144587030Y-98818580D01*
X144498171Y-98877249D01*
X144433122Y-98894678D01*
X144326834Y-98888299D01*
X144138068Y-98834300D01*
X143931871Y-98715252D01*
X143790723Y-98578775D01*
X143732054Y-98489916D01*
X143714624Y-98424868D01*
X143721004Y-98318580D01*
%TO.C,C11*%
X150770560Y-91207981D02*
X150809186Y-91263146D01*
X150831275Y-91412102D01*
X150814737Y-91505893D01*
X150743035Y-91638311D01*
X150632705Y-91715564D01*
X150530645Y-91745922D01*
X150334794Y-91759742D01*
X150194107Y-91734935D01*
X150014794Y-91654963D01*
X149929271Y-91591530D01*
X149852018Y-91481201D01*
X149829929Y-91332245D01*
X149846467Y-91238454D01*
X149918170Y-91106036D01*
X149973334Y-91067409D01*
X151029730Y-90286607D02*
X150930502Y-90849354D01*
X150980116Y-90567981D02*
X149995308Y-90394333D01*
X150119457Y-90512931D01*
X150196711Y-90623260D01*
X150227068Y-90725320D01*
X151195109Y-89348695D02*
X151095882Y-89911442D01*
X151145495Y-89630069D02*
X150160688Y-89456421D01*
X150284837Y-89575019D01*
X150362090Y-89685348D01*
X150392448Y-89787408D01*
%TO.C,C12*%
X146657237Y-80250810D02*
X146602073Y-80212183D01*
X146530370Y-80079766D01*
X146513832Y-79985974D01*
X146535921Y-79837019D01*
X146613175Y-79726689D01*
X146698697Y-79663256D01*
X146878010Y-79583284D01*
X147018697Y-79558478D01*
X147214548Y-79572297D01*
X147316609Y-79602655D01*
X147426938Y-79679908D01*
X147498640Y-79812326D01*
X147515178Y-79906117D01*
X147493089Y-80055073D01*
X147454463Y-80110238D01*
X146728825Y-81205260D02*
X146629598Y-80642513D01*
X146679212Y-80923886D02*
X147664019Y-80750238D01*
X147506795Y-80681254D01*
X147396466Y-80604001D01*
X147333032Y-80518478D01*
X147685994Y-81423315D02*
X147741158Y-81461941D01*
X147804592Y-81547464D01*
X147845937Y-81781942D01*
X147815579Y-81884002D01*
X147776952Y-81939166D01*
X147691430Y-82002600D01*
X147597639Y-82019138D01*
X147448683Y-81997049D01*
X146786708Y-81533529D01*
X146894205Y-82143172D01*
%TO.C,C14*%
X143766732Y-71521456D02*
X143701683Y-71504027D01*
X143589015Y-71404118D01*
X143541396Y-71321640D01*
X143511207Y-71174112D01*
X143546067Y-71044014D01*
X143604736Y-70955156D01*
X143745883Y-70818679D01*
X143869601Y-70747250D01*
X144058368Y-70693251D01*
X144164656Y-70686872D01*
X144294754Y-70721731D01*
X144407422Y-70821640D01*
X144455041Y-70904118D01*
X144485230Y-71051646D01*
X144467800Y-71116694D01*
X144160444Y-72393861D02*
X143874730Y-71898990D01*
X144017587Y-72146426D02*
X144883612Y-71646426D01*
X144712275Y-71635376D01*
X144582178Y-71600516D01*
X144493319Y-71541847D01*
X145166366Y-72802836D02*
X144589015Y-73136169D01*
X145377233Y-72406163D02*
X144639595Y-72557109D01*
X144949119Y-73093220D01*
%TO.C,C15*%
X133961142Y-119006857D02*
X134008761Y-119054476D01*
X134056380Y-119197333D01*
X134056380Y-119292571D01*
X134008761Y-119435428D01*
X133913523Y-119530666D01*
X133818285Y-119578285D01*
X133627809Y-119625904D01*
X133484952Y-119625904D01*
X133294476Y-119578285D01*
X133199238Y-119530666D01*
X133104000Y-119435428D01*
X133056380Y-119292571D01*
X133056380Y-119197333D01*
X133104000Y-119054476D01*
X133151619Y-119006857D01*
X134056380Y-118054476D02*
X134056380Y-118625904D01*
X134056380Y-118340190D02*
X133056380Y-118340190D01*
X133199238Y-118435428D01*
X133294476Y-118530666D01*
X133342095Y-118625904D01*
X133056380Y-117149714D02*
X133056380Y-117625904D01*
X133532571Y-117673523D01*
X133484952Y-117625904D01*
X133437333Y-117530666D01*
X133437333Y-117292571D01*
X133484952Y-117197333D01*
X133532571Y-117149714D01*
X133627809Y-117102095D01*
X133865904Y-117102095D01*
X133961142Y-117149714D01*
X134008761Y-117197333D01*
X134056380Y-117292571D01*
X134056380Y-117530666D01*
X134008761Y-117625904D01*
X133961142Y-117673523D01*
%TO.C,C16*%
X147006169Y-65220759D02*
X147009693Y-65288010D01*
X146949491Y-65426037D01*
X146885765Y-65496812D01*
X146754787Y-65571113D01*
X146620284Y-65578162D01*
X146517645Y-65549823D01*
X146344230Y-65457757D01*
X146238067Y-65362167D01*
X146128379Y-65199326D01*
X146089466Y-65100211D01*
X146082417Y-64965709D01*
X146142620Y-64827682D01*
X146206346Y-64756906D01*
X146337324Y-64682606D01*
X146404576Y-64679082D01*
X147714212Y-64576728D02*
X147331852Y-65001383D01*
X147523032Y-64789056D02*
X146779887Y-64119925D01*
X146822324Y-64286291D01*
X146829373Y-64420793D01*
X146801034Y-64523432D01*
X147544608Y-63270617D02*
X147417154Y-63412168D01*
X147388815Y-63514807D01*
X147392340Y-63582058D01*
X147434777Y-63748424D01*
X147544465Y-63911265D01*
X147827567Y-64166172D01*
X147930206Y-64194511D01*
X147997458Y-64190987D01*
X148096572Y-64152074D01*
X148224026Y-64010523D01*
X148252365Y-63907884D01*
X148248840Y-63840633D01*
X148209928Y-63741518D01*
X148032989Y-63582201D01*
X147930349Y-63553862D01*
X147863098Y-63557387D01*
X147763984Y-63596299D01*
X147636530Y-63737851D01*
X147608191Y-63840490D01*
X147611716Y-63907741D01*
X147650628Y-64006855D01*
%TO.C,C17*%
X131421142Y-119006857D02*
X131468761Y-119054476D01*
X131516380Y-119197333D01*
X131516380Y-119292571D01*
X131468761Y-119435428D01*
X131373523Y-119530666D01*
X131278285Y-119578285D01*
X131087809Y-119625904D01*
X130944952Y-119625904D01*
X130754476Y-119578285D01*
X130659238Y-119530666D01*
X130564000Y-119435428D01*
X130516380Y-119292571D01*
X130516380Y-119197333D01*
X130564000Y-119054476D01*
X130611619Y-119006857D01*
X131516380Y-118054476D02*
X131516380Y-118625904D01*
X131516380Y-118340190D02*
X130516380Y-118340190D01*
X130659238Y-118435428D01*
X130754476Y-118530666D01*
X130802095Y-118625904D01*
X130516380Y-117721142D02*
X130516380Y-117054476D01*
X131516380Y-117483047D01*
%TO.C,C20*%
X116705142Y-97131142D02*
X116657523Y-97178761D01*
X116514666Y-97226380D01*
X116419428Y-97226380D01*
X116276571Y-97178761D01*
X116181333Y-97083523D01*
X116133714Y-96988285D01*
X116086095Y-96797809D01*
X116086095Y-96654952D01*
X116133714Y-96464476D01*
X116181333Y-96369238D01*
X116276571Y-96274000D01*
X116419428Y-96226380D01*
X116514666Y-96226380D01*
X116657523Y-96274000D01*
X116705142Y-96321619D01*
X117086095Y-96321619D02*
X117133714Y-96274000D01*
X117228952Y-96226380D01*
X117467047Y-96226380D01*
X117562285Y-96274000D01*
X117609904Y-96321619D01*
X117657523Y-96416857D01*
X117657523Y-96512095D01*
X117609904Y-96654952D01*
X117038476Y-97226380D01*
X117657523Y-97226380D01*
X118276571Y-96226380D02*
X118371809Y-96226380D01*
X118467047Y-96274000D01*
X118514666Y-96321619D01*
X118562285Y-96416857D01*
X118609904Y-96607333D01*
X118609904Y-96845428D01*
X118562285Y-97035904D01*
X118514666Y-97131142D01*
X118467047Y-97178761D01*
X118371809Y-97226380D01*
X118276571Y-97226380D01*
X118181333Y-97178761D01*
X118133714Y-97131142D01*
X118086095Y-97035904D01*
X118038476Y-96845428D01*
X118038476Y-96607333D01*
X118086095Y-96416857D01*
X118133714Y-96321619D01*
X118181333Y-96274000D01*
X118276571Y-96226380D01*
%TO.C,C21*%
X108343142Y-86181142D02*
X108295523Y-86228761D01*
X108152666Y-86276380D01*
X108057428Y-86276380D01*
X107914571Y-86228761D01*
X107819333Y-86133523D01*
X107771714Y-86038285D01*
X107724095Y-85847809D01*
X107724095Y-85704952D01*
X107771714Y-85514476D01*
X107819333Y-85419238D01*
X107914571Y-85324000D01*
X108057428Y-85276380D01*
X108152666Y-85276380D01*
X108295523Y-85324000D01*
X108343142Y-85371619D01*
X108724095Y-85371619D02*
X108771714Y-85324000D01*
X108866952Y-85276380D01*
X109105047Y-85276380D01*
X109200285Y-85324000D01*
X109247904Y-85371619D01*
X109295523Y-85466857D01*
X109295523Y-85562095D01*
X109247904Y-85704952D01*
X108676476Y-86276380D01*
X109295523Y-86276380D01*
X110247904Y-86276380D02*
X109676476Y-86276380D01*
X109962190Y-86276380D02*
X109962190Y-85276380D01*
X109866952Y-85419238D01*
X109771714Y-85514476D01*
X109676476Y-85562095D01*
%TO.C,Q1*%
X99658761Y-93003619D02*
X99563523Y-92956000D01*
X99468285Y-92860761D01*
X99325428Y-92717904D01*
X99230190Y-92670285D01*
X99134952Y-92670285D01*
X99182571Y-92908380D02*
X99087333Y-92860761D01*
X98992095Y-92765523D01*
X98944476Y-92575047D01*
X98944476Y-92241714D01*
X98992095Y-92051238D01*
X99087333Y-91956000D01*
X99182571Y-91908380D01*
X99373047Y-91908380D01*
X99468285Y-91956000D01*
X99563523Y-92051238D01*
X99611142Y-92241714D01*
X99611142Y-92575047D01*
X99563523Y-92765523D01*
X99468285Y-92860761D01*
X99373047Y-92908380D01*
X99182571Y-92908380D01*
X100563523Y-92908380D02*
X99992095Y-92908380D01*
X100277809Y-92908380D02*
X100277809Y-91908380D01*
X100182571Y-92051238D01*
X100087333Y-92146476D01*
X99992095Y-92194095D01*
%TO.C,Q2*%
D12*
X115925480Y-62315809D02*
X115877861Y-62292000D01*
X115830242Y-62244380D01*
X115758814Y-62172952D01*
X115711195Y-62149142D01*
X115663576Y-62149142D01*
X115687385Y-62268190D02*
X115639766Y-62244380D01*
X115592147Y-62196761D01*
X115568338Y-62101523D01*
X115568338Y-61934857D01*
X115592147Y-61839619D01*
X115639766Y-61792000D01*
X115687385Y-61768190D01*
X115782623Y-61768190D01*
X115830242Y-61792000D01*
X115877861Y-61839619D01*
X115901671Y-61934857D01*
X115901671Y-62101523D01*
X115877861Y-62196761D01*
X115830242Y-62244380D01*
X115782623Y-62268190D01*
X115687385Y-62268190D01*
X116092147Y-61815809D02*
X116115957Y-61792000D01*
X116163576Y-61768190D01*
X116282623Y-61768190D01*
X116330242Y-61792000D01*
X116354052Y-61815809D01*
X116377861Y-61863428D01*
X116377861Y-61911047D01*
X116354052Y-61982476D01*
X116068338Y-62268190D01*
X116377861Y-62268190D01*
%TO.C,Q3*%
X110928280Y-62249809D02*
X110880661Y-62226000D01*
X110833042Y-62178380D01*
X110761614Y-62106952D01*
X110713995Y-62083142D01*
X110666376Y-62083142D01*
X110690185Y-62202190D02*
X110642566Y-62178380D01*
X110594947Y-62130761D01*
X110571138Y-62035523D01*
X110571138Y-61868857D01*
X110594947Y-61773619D01*
X110642566Y-61726000D01*
X110690185Y-61702190D01*
X110785423Y-61702190D01*
X110833042Y-61726000D01*
X110880661Y-61773619D01*
X110904471Y-61868857D01*
X110904471Y-62035523D01*
X110880661Y-62130761D01*
X110833042Y-62178380D01*
X110785423Y-62202190D01*
X110690185Y-62202190D01*
X111071138Y-61702190D02*
X111380661Y-61702190D01*
X111213995Y-61892666D01*
X111285423Y-61892666D01*
X111333042Y-61916476D01*
X111356852Y-61940285D01*
X111380661Y-61987904D01*
X111380661Y-62106952D01*
X111356852Y-62154571D01*
X111333042Y-62178380D01*
X111285423Y-62202190D01*
X111142566Y-62202190D01*
X111094947Y-62178380D01*
X111071138Y-62154571D01*
%TO.C,Q4*%
X106273480Y-62265009D02*
X106225861Y-62241200D01*
X106178242Y-62193580D01*
X106106814Y-62122152D01*
X106059195Y-62098342D01*
X106011576Y-62098342D01*
X106035385Y-62217390D02*
X105987766Y-62193580D01*
X105940147Y-62145961D01*
X105916338Y-62050723D01*
X105916338Y-61884057D01*
X105940147Y-61788819D01*
X105987766Y-61741200D01*
X106035385Y-61717390D01*
X106130623Y-61717390D01*
X106178242Y-61741200D01*
X106225861Y-61788819D01*
X106249671Y-61884057D01*
X106249671Y-62050723D01*
X106225861Y-62145961D01*
X106178242Y-62193580D01*
X106130623Y-62217390D01*
X106035385Y-62217390D01*
X106678242Y-61884057D02*
X106678242Y-62217390D01*
X106559195Y-61693580D02*
X106440147Y-62050723D01*
X106749671Y-62050723D01*
%TO.C,R1*%
X94578666Y-81252190D02*
X94412000Y-81014095D01*
X94292952Y-81252190D02*
X94292952Y-80752190D01*
X94483428Y-80752190D01*
X94531047Y-80776000D01*
X94554857Y-80799809D01*
X94578666Y-80847428D01*
X94578666Y-80918857D01*
X94554857Y-80966476D01*
X94531047Y-80990285D01*
X94483428Y-81014095D01*
X94292952Y-81014095D01*
X95054857Y-81252190D02*
X94769142Y-81252190D01*
X94912000Y-81252190D02*
X94912000Y-80752190D01*
X94864380Y-80823619D01*
X94816761Y-80871238D01*
X94769142Y-80895047D01*
%TO.C,R2*%
X93698190Y-85601333D02*
X93460095Y-85768000D01*
X93698190Y-85887047D02*
X93198190Y-85887047D01*
X93198190Y-85696571D01*
X93222000Y-85648952D01*
X93245809Y-85625142D01*
X93293428Y-85601333D01*
X93364857Y-85601333D01*
X93412476Y-85625142D01*
X93436285Y-85648952D01*
X93460095Y-85696571D01*
X93460095Y-85887047D01*
X93245809Y-85410857D02*
X93222000Y-85387047D01*
X93198190Y-85339428D01*
X93198190Y-85220380D01*
X93222000Y-85172761D01*
X93245809Y-85148952D01*
X93293428Y-85125142D01*
X93341047Y-85125142D01*
X93412476Y-85148952D01*
X93698190Y-85434666D01*
X93698190Y-85125142D01*
%TO.C,R3*%
X123026666Y-106398190D02*
X122860000Y-106160095D01*
X122740952Y-106398190D02*
X122740952Y-105898190D01*
X122931428Y-105898190D01*
X122979047Y-105922000D01*
X123002857Y-105945809D01*
X123026666Y-105993428D01*
X123026666Y-106064857D01*
X123002857Y-106112476D01*
X122979047Y-106136285D01*
X122931428Y-106160095D01*
X122740952Y-106160095D01*
X123193333Y-105898190D02*
X123502857Y-105898190D01*
X123336190Y-106088666D01*
X123407619Y-106088666D01*
X123455238Y-106112476D01*
X123479047Y-106136285D01*
X123502857Y-106183904D01*
X123502857Y-106302952D01*
X123479047Y-106350571D01*
X123455238Y-106374380D01*
X123407619Y-106398190D01*
X123264761Y-106398190D01*
X123217142Y-106374380D01*
X123193333Y-106350571D01*
%TO.C,R4*%
X116113690Y-66762133D02*
X115875595Y-66928800D01*
X116113690Y-67047847D02*
X115613690Y-67047847D01*
X115613690Y-66857371D01*
X115637500Y-66809752D01*
X115661309Y-66785942D01*
X115708928Y-66762133D01*
X115780357Y-66762133D01*
X115827976Y-66785942D01*
X115851785Y-66809752D01*
X115875595Y-66857371D01*
X115875595Y-67047847D01*
X115780357Y-66333561D02*
X116113690Y-66333561D01*
X115589880Y-66452609D02*
X115947023Y-66571657D01*
X115947023Y-66262133D01*
%TO.C,R5*%
X111287690Y-66805333D02*
X111049595Y-66972000D01*
X111287690Y-67091047D02*
X110787690Y-67091047D01*
X110787690Y-66900571D01*
X110811500Y-66852952D01*
X110835309Y-66829142D01*
X110882928Y-66805333D01*
X110954357Y-66805333D01*
X111001976Y-66829142D01*
X111025785Y-66852952D01*
X111049595Y-66900571D01*
X111049595Y-67091047D01*
X110787690Y-66352952D02*
X110787690Y-66591047D01*
X111025785Y-66614857D01*
X111001976Y-66591047D01*
X110978166Y-66543428D01*
X110978166Y-66424380D01*
X111001976Y-66376761D01*
X111025785Y-66352952D01*
X111073404Y-66329142D01*
X111192452Y-66329142D01*
X111240071Y-66352952D01*
X111263880Y-66376761D01*
X111287690Y-66424380D01*
X111287690Y-66543428D01*
X111263880Y-66591047D01*
X111240071Y-66614857D01*
%TO.C,R6*%
X106360090Y-66762133D02*
X106121995Y-66928800D01*
X106360090Y-67047847D02*
X105860090Y-67047847D01*
X105860090Y-66857371D01*
X105883900Y-66809752D01*
X105907709Y-66785942D01*
X105955328Y-66762133D01*
X106026757Y-66762133D01*
X106074376Y-66785942D01*
X106098185Y-66809752D01*
X106121995Y-66857371D01*
X106121995Y-67047847D01*
X105860090Y-66333561D02*
X105860090Y-66428800D01*
X105883900Y-66476419D01*
X105907709Y-66500228D01*
X105979138Y-66547847D01*
X106074376Y-66571657D01*
X106264852Y-66571657D01*
X106312471Y-66547847D01*
X106336280Y-66524038D01*
X106360090Y-66476419D01*
X106360090Y-66381180D01*
X106336280Y-66333561D01*
X106312471Y-66309752D01*
X106264852Y-66285942D01*
X106145804Y-66285942D01*
X106098185Y-66309752D01*
X106074376Y-66333561D01*
X106050566Y-66381180D01*
X106050566Y-66476419D01*
X106074376Y-66524038D01*
X106098185Y-66547847D01*
X106145804Y-66571657D01*
%TO.C,R7*%
X122146190Y-69044333D02*
X121908095Y-69211000D01*
X122146190Y-69330047D02*
X121646190Y-69330047D01*
X121646190Y-69139571D01*
X121670000Y-69091952D01*
X121693809Y-69068142D01*
X121741428Y-69044333D01*
X121812857Y-69044333D01*
X121860476Y-69068142D01*
X121884285Y-69091952D01*
X121908095Y-69139571D01*
X121908095Y-69330047D01*
X121646190Y-68877666D02*
X121646190Y-68544333D01*
X122146190Y-68758619D01*
%TO.C,R8*%
X122146190Y-63376333D02*
X121908095Y-63543000D01*
X122146190Y-63662047D02*
X121646190Y-63662047D01*
X121646190Y-63471571D01*
X121670000Y-63423952D01*
X121693809Y-63400142D01*
X121741428Y-63376333D01*
X121812857Y-63376333D01*
X121860476Y-63400142D01*
X121884285Y-63423952D01*
X121908095Y-63471571D01*
X121908095Y-63662047D01*
X121860476Y-63090619D02*
X121836666Y-63138238D01*
X121812857Y-63162047D01*
X121765238Y-63185857D01*
X121741428Y-63185857D01*
X121693809Y-63162047D01*
X121670000Y-63138238D01*
X121646190Y-63090619D01*
X121646190Y-62995380D01*
X121670000Y-62947761D01*
X121693809Y-62923952D01*
X121741428Y-62900142D01*
X121765238Y-62900142D01*
X121812857Y-62923952D01*
X121836666Y-62947761D01*
X121860476Y-62995380D01*
X121860476Y-63090619D01*
X121884285Y-63138238D01*
X121908095Y-63162047D01*
X121955714Y-63185857D01*
X122050952Y-63185857D01*
X122098571Y-63162047D01*
X122122380Y-63138238D01*
X122146190Y-63090619D01*
X122146190Y-62995380D01*
X122122380Y-62947761D01*
X122098571Y-62923952D01*
X122050952Y-62900142D01*
X121955714Y-62900142D01*
X121908095Y-62923952D01*
X121884285Y-62947761D01*
X121860476Y-62995380D01*
%TO.C,U17*%
X108880190Y-89519047D02*
X109284952Y-89519047D01*
X109332571Y-89495238D01*
X109356380Y-89471428D01*
X109380190Y-89423809D01*
X109380190Y-89328571D01*
X109356380Y-89280952D01*
X109332571Y-89257142D01*
X109284952Y-89233333D01*
X108880190Y-89233333D01*
X109380190Y-88733333D02*
X109380190Y-89019047D01*
X109380190Y-88876190D02*
X108880190Y-88876190D01*
X108951619Y-88923809D01*
X108999238Y-88971428D01*
X109023047Y-89019047D01*
X108880190Y-88566666D02*
X108880190Y-88233333D01*
X109380190Y-88447619D01*
%TO.C,D1*%
D11*
X111994681Y-97794569D02*
X112637468Y-97028524D01*
X112819860Y-97181569D01*
X112898686Y-97309874D01*
X112910425Y-97444049D01*
X112885685Y-97547614D01*
X112799728Y-97724136D01*
X112707901Y-97833571D01*
X112548987Y-97948876D01*
X112451291Y-97991223D01*
X112317116Y-98002962D01*
X112177072Y-97947614D01*
X111994681Y-97794569D01*
X113161987Y-98774055D02*
X112724247Y-98406748D01*
X112943117Y-98590401D02*
X113585904Y-97824357D01*
X113421121Y-97872574D01*
X113286947Y-97884313D01*
X113183381Y-97859573D01*
%TO.C,U15*%
X138969904Y-96867380D02*
X138969904Y-97676904D01*
X139017523Y-97772142D01*
X139065142Y-97819761D01*
X139160380Y-97867380D01*
X139350857Y-97867380D01*
X139446095Y-97819761D01*
X139493714Y-97772142D01*
X139541333Y-97676904D01*
X139541333Y-96867380D01*
X140541333Y-97867380D02*
X139969904Y-97867380D01*
X140255619Y-97867380D02*
X140255619Y-96867380D01*
X140160380Y-97010238D01*
X140065142Y-97105476D01*
X139969904Y-97153095D01*
X141446095Y-96867380D02*
X140969904Y-96867380D01*
X140922285Y-97343571D01*
X140969904Y-97295952D01*
X141065142Y-97248333D01*
X141303238Y-97248333D01*
X141398476Y-97295952D01*
X141446095Y-97343571D01*
X141493714Y-97438809D01*
X141493714Y-97676904D01*
X141446095Y-97772142D01*
X141398476Y-97819761D01*
X141303238Y-97867380D01*
X141065142Y-97867380D01*
X140969904Y-97819761D01*
X140922285Y-97772142D01*
%TO.C,C13*%
X139819142Y-68302142D02*
X139771523Y-68349761D01*
X139628666Y-68397380D01*
X139533428Y-68397380D01*
X139390571Y-68349761D01*
X139295333Y-68254523D01*
X139247714Y-68159285D01*
X139200095Y-67968809D01*
X139200095Y-67825952D01*
X139247714Y-67635476D01*
X139295333Y-67540238D01*
X139390571Y-67445000D01*
X139533428Y-67397380D01*
X139628666Y-67397380D01*
X139771523Y-67445000D01*
X139819142Y-67492619D01*
X140771523Y-68397380D02*
X140200095Y-68397380D01*
X140485809Y-68397380D02*
X140485809Y-67397380D01*
X140390571Y-67540238D01*
X140295333Y-67635476D01*
X140200095Y-67683095D01*
X141104857Y-67397380D02*
X141723904Y-67397380D01*
X141390571Y-67778333D01*
X141533428Y-67778333D01*
X141628666Y-67825952D01*
X141676285Y-67873571D01*
X141723904Y-67968809D01*
X141723904Y-68206904D01*
X141676285Y-68302142D01*
X141628666Y-68349761D01*
X141533428Y-68397380D01*
X141247714Y-68397380D01*
X141152476Y-68349761D01*
X141104857Y-68302142D01*
%TO.C,C18*%
X132199142Y-77192142D02*
X132151523Y-77239761D01*
X132008666Y-77287380D01*
X131913428Y-77287380D01*
X131770571Y-77239761D01*
X131675333Y-77144523D01*
X131627714Y-77049285D01*
X131580095Y-76858809D01*
X131580095Y-76715952D01*
X131627714Y-76525476D01*
X131675333Y-76430238D01*
X131770571Y-76335000D01*
X131913428Y-76287380D01*
X132008666Y-76287380D01*
X132151523Y-76335000D01*
X132199142Y-76382619D01*
X133151523Y-77287380D02*
X132580095Y-77287380D01*
X132865809Y-77287380D02*
X132865809Y-76287380D01*
X132770571Y-76430238D01*
X132675333Y-76525476D01*
X132580095Y-76573095D01*
X133722952Y-76715952D02*
X133627714Y-76668333D01*
X133580095Y-76620714D01*
X133532476Y-76525476D01*
X133532476Y-76477857D01*
X133580095Y-76382619D01*
X133627714Y-76335000D01*
X133722952Y-76287380D01*
X133913428Y-76287380D01*
X134008666Y-76335000D01*
X134056285Y-76382619D01*
X134103904Y-76477857D01*
X134103904Y-76525476D01*
X134056285Y-76620714D01*
X134008666Y-76668333D01*
X133913428Y-76715952D01*
X133722952Y-76715952D01*
X133627714Y-76763571D01*
X133580095Y-76811190D01*
X133532476Y-76906428D01*
X133532476Y-77096904D01*
X133580095Y-77192142D01*
X133627714Y-77239761D01*
X133722952Y-77287380D01*
X133913428Y-77287380D01*
X134008666Y-77239761D01*
X134056285Y-77192142D01*
X134103904Y-77096904D01*
X134103904Y-76906428D01*
X134056285Y-76811190D01*
X134008666Y-76763571D01*
X133913428Y-76715952D01*
%TO.C,REF\u002A\u002A*%
X97218666Y-72198380D02*
X96885333Y-71722190D01*
X96647238Y-72198380D02*
X96647238Y-71198380D01*
X97028190Y-71198380D01*
X97123428Y-71246000D01*
X97171047Y-71293619D01*
X97218666Y-71388857D01*
X97218666Y-71531714D01*
X97171047Y-71626952D01*
X97123428Y-71674571D01*
X97028190Y-71722190D01*
X96647238Y-71722190D01*
X97647238Y-71674571D02*
X97980571Y-71674571D01*
X98123428Y-72198380D02*
X97647238Y-72198380D01*
X97647238Y-71198380D01*
X98123428Y-71198380D01*
X98885333Y-71674571D02*
X98552000Y-71674571D01*
X98552000Y-72198380D02*
X98552000Y-71198380D01*
X99028190Y-71198380D01*
X99552000Y-71198380D02*
X99552000Y-71436476D01*
X99313904Y-71341238D02*
X99552000Y-71436476D01*
X99790095Y-71341238D01*
X99409142Y-71626952D02*
X99552000Y-71436476D01*
X99694857Y-71626952D01*
X100313904Y-71198380D02*
X100313904Y-71436476D01*
X100075809Y-71341238D02*
X100313904Y-71436476D01*
X100552000Y-71341238D01*
X100171047Y-71626952D02*
X100313904Y-71436476D01*
X100456761Y-71626952D01*
%TD*%
M02*
